# Blender v2.74 (sub 0) OBJ File: ''
# www.blender.org
mtllib cylinder.mtl
o Cylinder
v 0.000000 -0.010436 -0.239947
v -0.006323 -0.010236 -0.239947
v -0.006323 -0.010236 0.239947
v -0.012406 -0.009642 -0.239947
v -0.012406 -0.009642 0.239947
v -0.018008 -0.008677 -0.239947
v -0.018008 -0.008677 0.239947
v -0.022919 -0.007379 -0.239947
v -0.022919 -0.007379 0.239947
v -0.026951 -0.005798 -0.239947
v -0.026951 -0.005798 0.239947
v -0.029948 -0.003994 -0.239947
v -0.029948 -0.003994 0.239947
v -0.031792 -0.002036 -0.239947
v -0.031792 -0.002036 0.239947
v -0.032415 0.000000 -0.239947
v -0.032415 -0.000000 0.239947
v -0.031792 0.002036 -0.239947
v -0.029948 0.003994 -0.239947
v -0.029948 0.003994 0.239947
v -0.026951 0.005798 -0.239947
v -0.026951 0.005798 0.239947
v -0.022919 0.007379 -0.239947
v -0.022919 0.007379 0.239947
v -0.018008 0.008677 -0.239947
v -0.018008 0.008677 0.239947
v -0.012406 0.009642 -0.239947
v -0.012406 0.009642 0.239947
v -0.006323 0.010236 -0.239947
v -0.006323 0.010236 0.239947
v 0.000000 0.010436 -0.239947
v 0.000000 0.010436 0.239947
v 0.006323 0.010236 -0.239947
v 0.006323 0.010236 0.239947
v 0.012406 0.009642 -0.239947
v 0.012406 0.009642 0.239947
v 0.018008 0.008677 -0.239947
v 0.018008 0.008677 0.239947
v 0.022919 0.007379 -0.239947
v 0.022919 0.007379 0.239947
v 0.026951 0.005798 -0.239947
v 0.026951 0.005798 0.239947
v 0.029948 0.003994 -0.239947
v 0.029948 0.003994 0.239947
v 0.031792 0.002036 -0.239947
v 0.032415 0.000000 -0.239947
v 0.032415 -0.000000 0.239947
v 0.031792 -0.002036 -0.239947
v 0.031792 -0.002036 0.239947
v 0.029948 -0.003994 -0.239947
v 0.026951 -0.005798 -0.239947
v 0.026951 -0.005798 0.239947
v 0.022919 -0.007379 -0.239947
v 0.022919 -0.007379 0.239947
v 0.018008 -0.008677 -0.239947
v 0.018008 -0.008677 0.239947
v 0.012403 -0.009642 -0.239947
v 0.012403 -0.009642 0.239947
v 0.006323 -0.010236 -0.239947
v 0.000000 -0.010436 0.239947
v 0.006323 -0.010236 0.239947
v -0.031792 0.002036 0.239947
v 0.031792 0.002036 0.239947
v 0.029948 -0.003994 0.239947
vt 1.000000 0.000000
vt 1.000000 1.000000
vt 0.000000 1.000000
vt 0.000000 0.000000
vt 0.402455 0.009607
vt 0.597545 0.990393
vt 0.500000 0.000000
vt 0.500000 1.000000
vt 0.222215 0.084265
vt 0.402456 0.990393
vt 0.146446 0.146447
vt 0.222215 0.915735
vt 0.308659 0.961940
vt 0.000000 0.500000
vt 0.084266 0.777786
vt 0.146447 0.853554
vt 0.009607 0.597546
vt 0.038060 0.691342
vt 0.009607 0.402455
vt 0.084265 0.222215
vt 0.038060 0.308659
vt 0.308658 0.038060
vt 0.777785 0.915735
vt 0.597545 0.009607
vt 0.853553 0.853553
vt 0.777785 0.084265
vt 0.691342 0.038060
vt 1.000000 0.500000
vt 0.915735 0.222215
vt 0.853553 0.146447
vt 0.990393 0.402455
vt 0.961940 0.308658
vt 0.990393 0.597545
vt 0.915735 0.777785
vt 0.961940 0.691342
vt 0.691342 0.961940
vn 0.031600 0.999500 0.000000
vn 0.031900 0.999500 0.000000
vn 0.097200 0.995300 0.000000
vn 0.169400 0.985500 0.000000
vn 0.169300 0.985600 0.000000
vn 0.255500 0.966800 0.000000
vn 0.365000 0.931000 0.000000
vn 0.516000 0.856600 0.000000
vn 0.515800 0.856700 0.000000
vn 0.727800 0.685800 0.000000
vn 0.956300 0.292500 0.000000
vn 0.956300 -0.292500 -0.000000
vn 0.727800 -0.685800 -0.000000
vn 0.515800 -0.856700 -0.000000
vn 0.516000 -0.856600 -0.000000
vn 0.365000 -0.931000 -0.000000
vn 0.255500 -0.966800 -0.000000
vn 0.169300 -0.985600 -0.000000
vn 0.169400 -0.985500 -0.000000
vn 0.097200 -0.995300 -0.000000
vn 0.031600 -0.999500 -0.000000
vn 0.031900 -0.999500 -0.000000
vn -0.031600 -0.999500 -0.000000
vn -0.031900 -0.999500 -0.000000
vn -0.097200 -0.995300 -0.000000
vn -0.169400 -0.985500 -0.000000
vn -0.169300 -0.985600 -0.000000
vn -0.255500 -0.966800 -0.000000
vn -0.365000 -0.931000 -0.000000
vn -0.516000 -0.856600 -0.000000
vn -0.515800 -0.856700 -0.000000
vn -0.727800 -0.685800 -0.000000
vn -0.956300 -0.292500 -0.000000
vn -0.956300 0.292500 0.000000
vn -0.727800 0.685800 0.000000
vn -0.515800 0.856700 0.000000
vn -0.516000 0.856600 0.000000
vn -0.365000 0.931000 0.000000
vn -0.255500 0.966800 0.000000
vn -0.169200 0.985600 0.000000
vn -0.169300 0.985600 0.000000
vn 0.000000 0.000000 1.000000
vn -0.031600 0.999500 0.000000
vn -0.031900 0.999500 0.000000
vn -0.097200 0.995300 0.000000
vn -0.000000 0.000000 -1.000000
vn 0.000300 -0.000100 -1.000000
usemtl None
s 1
f 1/1/1 2/2/2 3/3/1
f 2/1/3 4/2/3 5/3/3
f 4/1/4 6/2/5 7/3/5
f 6/1/6 8/2/6 9/3/6
f 8/1/7 10/2/7 11/3/7
f 10/1/8 12/2/8 13/3/9
f 12/1/10 14/2/10 15/3/10
f 14/1/11 16/2/11 17/3/11
f 17/4/12 16/1/12 18/2/12
f 18/1/13 19/2/13 20/3/13
f 19/1/14 21/2/15 22/3/15
f 21/1/16 23/2/16 24/3/16
f 23/1/17 25/2/17 26/3/17
f 25/1/18 27/2/19 28/3/19
f 27/1/20 29/2/20 30/3/20
f 29/1/21 31/2/22 32/3/21
f 31/1/23 33/2/24 34/3/23
f 33/1/25 35/2/25 36/3/25
f 35/1/26 37/2/27 38/3/27
f 37/1/28 39/2/28 40/3/28
f 39/1/29 41/2/29 42/3/29
f 41/1/30 43/2/30 44/3/31
f 44/4/32 43/1/32 45/2/32
f 45/1/33 46/2/33 47/3/33
f 46/1/34 48/2/34 49/3/34
f 49/4/35 48/1/35 50/2/35
f 50/1/36 51/2/37 52/3/37
f 51/1/38 53/2/38 54/3/38
f 53/1/39 55/2/39 56/3/39
f 55/1/40 57/2/41 58/3/41
f 31/5/42 1/6/42 33/7/42
f 59/1/43 1/2/44 60/3/43
f 57/1/45 59/2/45 61/3/45
f 60/8/46 3/6/46 32/7/46
f 60/4/2 1/1/1 3/3/1
f 3/4/3 2/1/3 5/3/3
f 5/4/4 4/1/4 7/3/5
f 7/4/6 6/1/6 9/3/6
f 9/4/7 8/1/7 11/3/7
f 11/4/8 10/1/8 13/3/9
f 13/4/10 12/1/10 15/3/10
f 15/4/11 14/1/11 17/3/11
f 62/3/12 17/4/12 18/2/12
f 62/4/13 18/1/13 20/3/13
f 20/4/15 19/1/14 22/3/15
f 22/4/16 21/1/16 24/3/16
f 24/4/17 23/1/17 26/3/17
f 26/4/18 25/1/18 28/3/19
f 28/4/20 27/1/20 30/3/20
f 30/4/22 29/1/21 32/3/21
f 32/4/24 31/1/23 34/3/23
f 34/4/25 33/1/25 36/3/25
f 36/4/26 35/1/26 38/3/27
f 38/4/28 37/1/28 40/3/28
f 40/4/29 39/1/29 42/3/29
f 42/4/30 41/1/30 44/3/31
f 63/3/32 44/4/32 45/2/32
f 63/4/33 45/1/33 47/3/33
f 47/4/34 46/1/34 49/3/34
f 64/3/35 49/4/35 50/2/35
f 64/4/37 50/1/36 52/3/37
f 52/4/38 51/1/38 54/3/38
f 54/4/39 53/1/39 56/3/39
f 56/4/41 55/1/40 58/3/41
f 27/9/42 4/10/42 2/8/42
f 25/11/42 8/12/42 6/13/42
f 18/14/42 12/15/42 10/16/42
f 18/14/42 16/17/42 14/18/42
f 10/16/42 19/19/42 18/14/42
f 10/16/42 23/20/42 21/21/42
f 4/10/42 27/9/42 25/11/42
f 2/8/42 31/5/42 29/22/42
f 57/23/42 35/24/42 33/7/42
f 55/25/42 39/26/42 37/27/42
f 48/28/42 43/29/42 41/30/42
f 48/28/42 46/31/42 45/32/42
f 41/30/42 50/33/42 48/28/42
f 41/30/42 53/34/42 51/35/42
f 35/24/42 57/23/42 55/25/42
f 33/7/42 1/6/42 59/36/42
f 25/11/42 6/13/42 4/10/42
f 18/14/42 14/18/42 12/15/42
f 10/16/42 21/21/42 19/19/42
f 2/8/42 29/22/42 27/9/42
f 55/25/42 37/27/42 35/24/42
f 48/28/42 45/32/42 43/29/42
f 41/30/42 51/35/42 50/33/42
f 33/7/42 59/36/42 57/23/42
f 25/11/42 23/20/42 8/12/42
f 10/16/42 8/12/42 23/20/42
f 55/25/42 53/34/42 39/26/42
f 41/30/42 39/26/42 53/34/42
f 1/6/42 31/5/42 2/8/42
f 61/4/44 59/1/43 60/3/43
f 58/4/45 57/1/45 61/3/45
f 32/7/46 61/10/46 60/8/46
f 36/22/46 56/12/46 58/13/46
f 40/11/46 52/15/46 54/16/46
f 47/14/46 49/17/47 64/18/46
f 44/21/46 63/19/46 47/14/46
f 64/18/46 42/20/46 44/21/46
f 54/16/46 38/9/46 40/11/46
f 58/13/46 34/5/46 36/22/46
f 3/6/46 30/24/46 32/7/46
f 7/23/46 26/26/46 28/27/46
f 11/34/46 22/29/46 24/30/46
f 17/28/46 62/31/46 20/32/46
f 13/35/46 15/33/46 17/28/46
f 22/29/46 11/34/46 13/35/46
f 26/26/46 7/23/46 9/25/46
f 30/24/46 3/6/46 5/36/46
f 32/7/46 34/5/46 61/10/46
f 40/11/46 42/20/46 52/15/46
f 64/18/46 44/21/46 47/14/46
f 54/16/46 56/12/46 38/9/46
f 5/36/46 28/27/46 30/24/46
f 13/35/46 20/32/46 22/29/46
f 20/32/46 13/35/46 17/28/46
f 28/27/46 5/36/46 7/23/46
f 61/10/46 34/5/46 58/13/46
f 64/18/46 52/15/46 42/20/46
f 9/25/46 24/30/46 26/26/46
f 24/30/46 9/25/46 11/34/46
f 56/12/46 36/22/46 38/9/46
