# Blender v2.74 (sub 0) OBJ File: 'Animation_Idle.blend'
# www.blender.org
mtllib spoon.mtl
o Model_Mesh.240
v 0.089393 0.334581 -0.838665
v 0.102088 0.373747 -1.039424
v -0.021040 0.143685 1.377183
v 0.063334 0.316824 -1.418072
v 0.089393 0.353071 -1.240740
v 0.075560 0.239547 -0.703303
v 0.095083 0.047592 -1.240740
v 0.089393 -0.257888 -1.240740
v 0.150081 0.200334 -1.240740
v 0.089393 0.353071 -1.240740
v 0.063334 0.316824 -1.418072
v 0.124022 -0.087027 -1.418072
v 0.079529 -0.105150 -1.240740
v 0.141370 0.047592 -1.418072
v 0.063334 0.316824 -1.418072
v 0.020636 -0.257888 -1.240740
v 0.053471 -0.087027 -1.418072
v 0.089393 -0.257888 -1.240740
v 0.069024 0.047592 -1.418072
v 0.053471 0.182210 -1.418072
v -0.005422 0.316824 -1.418072
v -0.076518 0.047592 1.377183
v 0.162771 -0.115484 -1.039424
v -0.005422 -0.221640 -1.418072
v -0.005422 0.316824 -1.418072
v 0.063334 -0.221640 -1.418072
v 0.063334 -0.221640 -1.418072
v 0.167428 0.047592 -1.240740
v 0.020636 0.353071 -1.240740
v -0.005422 -0.221640 -1.418072
v 0.063334 -0.221640 -1.418072
v 0.102088 -0.278563 -1.039424
v 0.033325 -0.278563 -1.039424
v 0.107777 0.047592 -1.039424
v 0.150081 -0.105150 -1.240740
v 0.124022 0.182210 -1.418072
v 0.102088 -0.278563 -1.039424
v 0.079529 0.200334 -1.240740
v 0.092219 -0.115488 -1.039424
v 0.075560 0.239547 -0.703303
v 0.066231 -0.048386 -0.703303
v 0.075560 -0.144363 -0.703303
v 0.020636 0.334581 -0.838665
v 0.089923 -0.048502 1.377183
v -0.028106 0.047592 -0.239299
v 0.053471 -0.087027 -1.418072
v 0.003168 -0.006579 -0.239299
v -0.021040 -0.048502 1.377183
v 0.089923 0.143685 1.377183
v 0.145405 0.047592 1.377183
v 0.089923 -0.048502 -0.004333
v -0.021040 -0.048502 -0.004333
v 0.096988 0.047592 -0.239299
v 0.065715 0.101763 -0.239299
v 0.003168 0.101763 -0.239299
v 0.162771 0.210672 -1.039424
v 0.079529 0.191084 -0.838665
v 0.089393 0.334581 -0.838665
v 0.003168 -0.006579 -0.584679
v 0.075560 -0.144363 -0.703303
v 0.065715 -0.006579 -0.239299
v 0.003168 0.101763 -0.584679
v 0.069024 0.047592 -1.418072
v 0.141370 0.047592 -1.418072
v 0.089923 -0.048502 1.377183
v 0.138599 0.047592 -0.703303
v 0.010572 0.239547 -0.703303
v 0.079529 -0.095900 -0.838665
v 0.180123 0.047592 -1.039424
v 0.001536 0.047592 -0.584679
v 0.122200 -0.048386 -0.703303
v -0.028106 0.047592 -0.239299
v 0.065715 -0.006579 -0.584679
v 0.067346 0.047592 -0.584679
v 0.003168 0.101763 -0.239299
v 0.124022 -0.087027 -1.418072
v 0.065715 0.101763 -0.584679
v 0.065715 0.101763 -0.584679
v 0.095083 0.047592 -0.838665
v 0.033325 0.373747 -1.039424
v 0.065715 -0.006579 -0.584679
v 0.089393 -0.239397 -0.838665
v 0.065715 -0.006579 -0.239299
v 0.001536 0.047592 -0.584679
v 0.065715 0.101763 -0.584679
v 0.065715 0.101763 -0.239299
v 0.096988 0.047592 -0.239299
v 0.003168 0.101763 -0.584679
v 0.122200 0.143569 -0.703303
v 0.020636 -0.239397 -0.838665
v 0.102088 0.373747 -1.039424
v 0.167428 0.047592 -0.838665
v 0.150081 -0.095900 -0.838665
v 0.053471 0.182210 -1.418072
v 0.003168 -0.006579 -0.584679
v 0.003168 -0.006579 -0.239299
v 0.065715 -0.006579 -0.584679
v 0.065715 -0.006579 -0.239299
v 0.067346 0.047592 -0.584679
v 0.124022 0.182210 -1.418072
v 0.089393 -0.239397 -0.838665
v 0.092219 0.210672 -1.039424
v 0.080933 0.047592 -0.703303
v 0.066231 0.143569 -0.703303
v 0.010572 -0.144363 -0.703303
v 0.065715 -0.006579 -0.584679
v 0.150081 0.191084 -0.838665
v -0.076518 0.047592 -0.004333
v -0.021040 -0.048502 1.377183
v -0.021040 0.143685 1.377183
v -0.021040 0.143685 -0.004333
v -0.076518 0.047592 1.377183
v 0.089923 0.143685 -0.004333
v 0.089923 0.143685 1.377183
v -0.021040 0.143685 -0.004333
v 0.145405 0.047592 -0.004333
v 0.145405 0.047592 1.377183
vt 0.597114 0.862252
vt 0.570497 0.888779
vt 0.623731 0.888779
vt 0.623731 0.940897
vt 0.570497 0.940897
vt 0.597114 0.966800
vt 0.308593 0.978662
vt 0.308593 0.942467
vt 0.358217 0.979039
vt 0.358217 0.942467
vt 0.408042 0.979039
vt 0.408042 0.942467
vt 0.457868 0.942467
vt 0.457868 0.979039
vt 0.507491 0.942467
vt 0.507491 0.978662
vt 0.696991 0.823356
vt 0.568950 0.762448
vt 0.568950 0.823777
vt 0.696991 0.750266
vt 0.696991 0.704900
vt 0.568950 0.705741
vt 0.568950 0.651553
vt 0.696991 0.651553
vt 0.568950 0.597786
vt 0.696991 0.580563
vt 0.696991 0.533937
vt 0.568950 0.540658
vt 0.569133 0.479330
vt 0.696991 0.479330
vt 0.384065 0.337270
vt 0.444226 0.217431
vt 0.444424 0.272682
vt 0.382093 0.232995
vt 0.444226 0.160235
vt 0.382093 0.141170
vt 0.444226 0.097592
vt 0.383671 0.040007
vt 0.015010 0.337270
vt 0.015010 0.232605
vt 0.015010 0.136112
vt 0.015010 0.040007
vt 0.384262 0.337270
vt 0.015010 0.238442
vt 0.134444 0.422614
vt 0.116947 0.424050
vt 0.134444 0.505520
vt 0.108649 0.505161
vt 0.134444 0.584120
vt 0.160240 0.505161
vt 0.151942 0.424050
vt 0.078885 0.500854
vt 0.095661 0.584120
vt 0.134444 0.700762
vt 0.173228 0.584120
vt 0.190184 0.500854
vt 0.167636 0.412565
vt 0.204435 0.480756
vt 0.101253 0.412565
vt 0.064454 0.480756
vt 0.053811 0.580889
vt 0.090069 0.700404
vt 0.092053 0.817405
vt 0.134444 0.818123
vt 0.176835 0.817405
vt 0.179000 0.700404
vt 0.036674 0.568328
vt 0.042627 0.697173
vt 0.046776 0.816329
vt 0.053631 0.922563
vt 0.095300 0.922563
vt 0.134444 0.922922
vt 0.173588 0.922563
vt 0.023867 0.693226
vt 0.027474 0.815252
vt 0.034510 0.922204
vt 0.215438 0.922563
vt 0.222293 0.815970
vt 0.226442 0.697173
vt 0.215077 0.580889
vt 0.234559 0.922204
vt 0.241414 0.815252
vt 0.245202 0.693226
vt 0.232214 0.568328
vt 0.439639 0.504736
vt 0.474477 0.502473
vt 0.424246 0.432346
vt 0.456856 0.585420
vt 0.509314 0.582781
vt 0.464147 0.704184
vt 0.523493 0.701168
vt 0.515998 0.818801
vt 0.404599 0.505490
vt 0.404599 0.586174
vt 0.404599 0.704938
vt 0.460299 0.821818
vt 0.502833 0.921730
vt 0.453615 0.924746
vt 0.404397 0.432723
vt 0.384750 0.432346
vt 0.369559 0.504736
vt 0.352140 0.585420
vt 0.345051 0.704184
vt 0.348697 0.821818
vt 0.404599 0.822572
vt 0.404599 0.925500
vt 0.355381 0.924746
vt 0.334519 0.502473
vt 0.299681 0.582781
vt 0.285503 0.701168
vt 0.292997 0.818801
vt 0.306163 0.922107
vn 0.000000 0.000000 1.000000
vn 0.000000 0.000000 -1.000000
vn 0.993500 -0.083900 -0.076800
vn 0.999900 0.000000 -0.009700
vn 0.866000 -0.500000 0.000000
vn 0.996300 0.000000 -0.085500
vn 0.675200 0.735800 -0.052200
vn 0.500000 0.866000 0.000000
vn -0.500000 0.866000 0.000000
vn -0.675200 0.735800 -0.052200
vn -0.999900 0.000000 -0.009700
vn -0.996300 0.000000 -0.085500
vn -0.675200 -0.735800 -0.052200
vn -0.500000 -0.866000 0.000000
vn 0.000000 -1.000000 0.000000
vn 0.000000 0.996300 -0.085200
vn 0.489700 0.848200 -0.201800
vn -0.489700 0.848200 -0.201800
vn 0.497600 0.861800 -0.098300
vn 0.979400 0.000000 -0.201800
vn 0.995100 0.000000 -0.098300
vn 0.489700 -0.848200 -0.201800
vn 0.497500 -0.861800 -0.098300
vn -0.489700 -0.848200 -0.201800
vn 1.000000 0.000000 0.000000
vn 0.500000 -0.866000 0.000000
vn -0.497600 -0.861800 -0.098300
vn -0.979400 0.000000 -0.201800
vn -0.995100 0.000000 -0.098300
vn -0.862900 0.498200 -0.085200
vn -1.000000 0.000000 0.000000
vn -0.831000 0.000000 -0.556200
vn -0.947800 0.303900 -0.095800
vn -0.949900 0.000000 -0.312600
vn -0.889100 -0.292800 -0.351800
vn -0.995700 0.000000 -0.092800
vn -0.889100 0.292800 -0.351800
vn -0.947800 -0.303900 -0.095800
vn -0.855500 0.367500 0.364600
vn -0.951500 -0.264900 -0.156200
vn -1.000000 0.000000 -0.001400
vn -0.951500 0.264900 -0.156200
vn -0.855500 -0.367500 0.364600
vn 0.000000 -0.652400 0.757800
vn 0.000000 -0.744700 0.667300
vn 0.000000 0.652400 0.757800
vn 0.000000 0.744700 0.667300
vn -0.788800 0.572700 0.223000
vn -0.973100 -0.230300 -0.008100
vn -0.964000 -0.235800 0.123200
vn -0.994300 0.000000 0.106900
vn -0.964000 0.235800 0.123200
vn -0.973100 0.230300 -0.008100
vn 0.000000 0.923900 0.382500
vn -0.770500 0.636600 0.031200
vn -0.804600 0.593600 -0.017500
vn -0.895800 0.444000 0.019600
vn -0.954900 -0.248600 0.162400
vn -0.989300 0.000000 0.145400
vn -0.954900 0.248600 0.162400
vn 0.000000 0.999000 0.045200
vn 0.000000 0.989000 -0.148100
vn 0.000000 0.979700 -0.200300
vn -0.895800 -0.444000 0.019600
vn -0.804600 -0.593600 -0.017500
vn -0.770500 -0.636600 0.031200
vn -0.788800 -0.572700 0.223000
vn 0.000000 -0.979700 -0.200300
vn 0.000000 -0.989000 -0.148100
vn 0.000000 -0.999000 0.045200
vn 0.000000 -0.923900 0.382500
vn 0.885300 0.270200 0.378200
vn 0.837700 0.388600 0.383800
vn 0.850400 0.149300 0.504400
vn 0.945900 0.263200 0.189800
vn 0.907000 0.370400 0.200200
vn 0.970600 0.240400 0.008400
vn 0.937100 0.348700 0.012800
vn 0.921800 0.360600 -0.142500
vn 0.938700 0.000000 0.344600
vn 0.989400 0.000000 0.145300
vn 1.000000 0.000000 0.001600
vn 0.961200 0.246300 -0.123800
vn 0.903400 0.384600 -0.189300
vn 0.951800 0.260100 -0.162700
vn 0.857200 0.000000 0.514900
vn 0.850400 -0.149300 0.504400
vn 0.885300 -0.270200 0.378200
vn 0.945900 -0.263200 0.189800
vn 0.970600 -0.240400 0.008400
vn 0.961200 -0.246300 -0.123800
vn 0.994200 0.000000 -0.107200
vn 0.989300 0.000000 -0.145400
vn 0.951800 -0.260100 -0.162700
vn 0.837700 -0.388600 0.383800
vn 0.907000 -0.370400 0.200100
vn 0.937100 -0.348700 0.012800
vn 0.921800 -0.360600 -0.142500
vn 0.903400 -0.384600 -0.189300
usemtl DefaultMaterial.018
s 1
f 22/1/1 48/2/1 3/3/1
f 3/3/1 48/2/1 49/4/1
f 48/2/1 65/5/1 49/4/1
f 49/4/1 65/5/1 50/6/1
f 25/7/2 11/8/2 94/9/2
f 94/9/2 11/8/2 100/10/2
f 94/9/2 100/10/2 63/11/2
f 63/11/2 100/10/2 64/12/2
f 76/13/2 63/11/2 64/12/2
f 46/14/2 63/11/2 76/13/2
f 27/15/2 46/14/2 76/13/2
f 24/16/2 46/14/2 27/15/2
f 73/17/3 87/18/4 83/19/5
f 73/17/3 74/20/6 87/18/4
f 74/20/6 85/21/7 87/18/4
f 85/21/7 86/22/8 87/18/4
f 86/22/8 85/21/7 75/23/9
f 75/23/9 85/21/7 62/24/10
f 62/24/10 72/25/11 75/23/9
f 62/24/10 84/26/12 72/25/11
f 84/26/12 95/27/13 72/25/11
f 95/27/13 96/28/14 72/25/11
f 96/28/14 95/27/13 98/29/15
f 98/29/15 95/27/13 97/30/15
f 111/31/16 54/32/17 55/33/18
f 113/34/19 54/32/17 111/31/16
f 113/34/19 53/35/20 54/32/17
f 116/36/21 53/35/20 113/34/19
f 116/36/21 61/37/22 53/35/20
f 51/38/23 61/37/22 116/36/21
f 51/38/23 47/35/24 61/37/22
f 110/39/9 113/34/19 111/31/16
f 114/40/8 113/34/19 110/39/9
f 114/40/8 116/36/21 113/34/19
f 117/41/25 116/36/21 114/40/8
f 117/41/25 51/38/23 116/36/21
f 44/42/26 51/38/23 117/41/25
f 44/42/26 52/36/27 51/38/23
f 52/36/27 47/35/24 51/38/23
f 52/36/27 45/32/28 47/35/24
f 108/34/29 45/32/28 52/36/27
f 108/34/29 55/33/18 45/32/28
f 115/43/30 55/33/18 108/34/29
f 112/44/31 115/43/30 108/34/29
f 110/39/9 115/43/30 112/44/31
f 109/41/14 52/36/27 44/42/26
f 109/41/14 108/34/29 52/36/27
f 112/44/31 108/34/29 109/41/14
f 70/45/32 88/46/33 103/47/34
f 103/47/34 88/46/33 104/48/35
f 103/47/34 104/48/35 79/49/36
f 79/49/36 41/50/37 103/47/34
f 41/50/37 59/51/38 103/47/34
f 103/47/34 59/51/38 70/45/32
f 67/52/39 104/48/35 88/46/33
f 104/48/35 67/52/39 57/53/40
f 79/49/36 104/48/35 57/53/40
f 79/49/36 57/53/40 34/54/41
f 34/54/41 68/55/42 79/49/36
f 68/55/42 41/50/37 79/49/36
f 68/55/42 105/56/43 41/50/37
f 41/50/37 105/56/43 59/51/38
f 59/51/38 105/56/43 106/57/44
f 106/57/44 105/56/43 42/58/45
f 88/46/33 78/59/46 67/52/39
f 67/52/39 78/59/46 40/60/47
f 67/52/39 40/60/47 43/61/48
f 57/53/40 67/52/39 43/61/48
f 57/53/40 43/61/48 102/62/49
f 34/54/41 57/53/40 102/62/49
f 38/63/50 34/54/41 102/62/49
f 7/64/51 34/54/41 38/63/50
f 13/65/52 34/54/41 7/64/51
f 39/66/53 34/54/41 13/65/52
f 39/66/53 68/55/42 34/54/41
f 43/61/48 40/60/47 58/67/54
f 43/61/48 58/67/54 80/68/55
f 102/62/49 43/61/48 80/68/55
f 29/69/56 102/62/49 80/68/55
f 38/63/50 102/62/49 29/69/56
f 21/70/57 38/63/50 29/69/56
f 20/71/58 38/63/50 21/70/57
f 20/71/58 7/64/51 38/63/50
f 19/72/59 7/64/51 20/71/58
f 17/73/60 7/64/51 19/72/59
f 13/65/52 7/64/51 17/73/60
f 80/68/55 58/67/54 91/74/61
f 91/74/61 10/75/62 80/68/55
f 80/68/55 10/75/62 29/69/56
f 10/75/62 15/76/63 29/69/56
f 29/69/56 15/76/63 21/70/57
f 30/77/64 13/65/52 17/73/60
f 16/78/65 13/65/52 30/77/64
f 16/78/65 39/66/53 13/65/52
f 33/79/66 39/66/53 16/78/65
f 33/79/66 90/80/67 39/66/53
f 39/66/53 90/80/67 68/55/42
f 90/80/67 105/56/43 68/55/42
f 105/56/43 90/80/67 42/58/45
f 26/81/68 16/78/65 30/77/64
f 8/82/69 16/78/65 26/81/68
f 8/82/69 33/79/66 16/78/65
f 37/83/70 33/79/66 8/82/69
f 82/84/71 33/79/66 37/83/70
f 90/80/67 33/79/66 82/84/71
f 42/58/45 90/80/67 82/84/71
f 89/85/72 6/86/73 77/87/74
f 107/88/75 6/86/73 89/85/72
f 1/89/76 6/86/73 107/88/75
f 56/90/77 1/89/76 107/88/75
f 2/91/78 1/89/76 56/90/77
f 2/91/78 56/90/77 5/92/79
f 89/85/72 77/87/74 66/93/80
f 92/94/81 89/85/72 66/93/80
f 107/88/75 89/85/72 92/94/81
f 69/95/82 107/88/75 92/94/81
f 56/90/77 107/88/75 69/95/82
f 56/90/77 69/95/82 9/96/83
f 5/92/79 56/90/77 9/96/83
f 5/92/79 9/96/83 4/97/84
f 4/97/84 9/96/83 36/98/85
f 66/93/80 77/87/74 99/99/86
f 99/99/86 81/100/87 66/93/80
f 66/93/80 81/100/87 71/101/88
f 66/93/80 71/101/88 92/94/81
f 92/94/81 71/101/88 93/102/89
f 92/94/81 93/102/89 69/95/82
f 69/95/82 93/102/89 23/103/90
f 35/104/91 69/95/82 23/103/90
f 28/105/92 69/95/82 35/104/91
f 9/96/83 69/95/82 28/105/92
f 9/96/83 28/105/92 36/98/85
f 36/98/85 28/105/92 14/106/93
f 14/106/93 28/105/92 12/107/94
f 60/108/95 71/101/88 81/100/87
f 71/101/88 60/108/95 93/102/89
f 93/102/89 60/108/95 101/109/96
f 93/102/89 101/109/96 23/103/90
f 23/103/90 101/109/96 32/110/97
f 18/111/98 23/103/90 32/110/97
f 35/104/91 23/103/90 18/111/98
f 31/112/99 35/104/91 18/111/98
f 12/107/94 35/104/91 31/112/99
f 12/107/94 28/105/92 35/104/91
