# Blender v2.76 (sub 0) OBJ File: ''
# www.blender.org
mtllib 2.mtl
o Text.005
v -0.036872 0.000000 -0.615604
v 0.015742 0.000000 -0.616014
v -0.010092 0.000000 -0.617431
v 0.039547 0.000000 -0.611829
v -0.061646 0.000000 -0.610308
v 0.061282 0.000000 -0.604974
v -0.084318 0.000000 -0.601821
v 0.080904 0.000000 -0.595549
v -0.104791 0.000000 -0.590418
v 0.098373 0.000000 -0.583651
v -0.122971 0.000000 -0.576378
v 0.113647 0.000000 -0.569381
v -0.138761 0.000000 -0.559977
v -0.014679 0.000000 -0.559633
v 0.126685 0.000000 -0.552836
v -0.152067 0.000000 -0.541493
v -0.029556 0.000000 -0.558628
v 0.001321 0.000000 -0.558598
v -0.043408 0.000000 -0.555645
v 0.015847 0.000000 -0.555556
v -0.056164 0.000000 -0.550731
v 0.028913 0.000000 -0.550602
v 0.137445 0.000000 -0.534115
v -0.067754 0.000000 -0.543935
v 0.040537 0.000000 -0.543833
v -0.078108 0.000000 -0.535304
v 0.050733 0.000000 -0.535343
v -0.162793 0.000000 -0.521203
v 0.059518 0.000000 -0.525229
v -0.087156 0.000000 -0.524885
v 0.145886 0.000000 -0.513317
v 0.066908 0.000000 -0.513586
v -0.094828 0.000000 -0.512728
v -0.170843 0.000000 -0.499384
v 0.072919 0.000000 -0.500510
v 0.151967 0.000000 -0.490541
v -0.101053 0.000000 -0.498879
v 0.077566 0.000000 -0.486095
v -0.176121 0.000000 -0.476312
v -0.105763 0.000000 -0.483386
v 0.155645 0.000000 -0.465886
v 0.080866 0.000000 -0.470438
v -0.108885 0.000000 -0.466297
v -0.178533 0.000000 -0.452266
v 0.082834 0.000000 -0.453635
v -0.110352 0.000000 -0.447660
v 0.156881 0.000000 -0.439450
v 0.083486 0.000000 -0.435780
v -0.177982 0.000000 -0.427523
v -0.110092 0.000000 -0.427523
v 0.153820 0.000000 -0.400408
v 0.080388 0.000000 -0.401276
v 0.071547 0.000000 -0.369763
v 0.145086 0.000000 -0.364959
v 0.057640 0.000000 -0.340525
v 0.131350 0.000000 -0.332454
v 0.039348 0.000000 -0.312844
v 0.113286 0.000000 -0.302243
v 0.017347 0.000000 -0.286004
v 0.091564 0.000000 -0.273675
v -0.007683 0.000000 -0.259289
v 0.066858 0.000000 -0.246101
v -0.035065 0.000000 -0.231981
v 0.039839 0.000000 -0.218871
v -0.064118 0.000000 -0.203364
v 0.011179 0.000000 -0.191335
v -0.094166 0.000000 -0.172721
v -0.018449 0.000000 -0.162844
v -0.124529 0.000000 -0.139335
v -0.048373 0.000000 -0.132747
v -0.154528 0.000000 -0.102490
v -0.077922 0.000000 -0.100395
v -0.183486 0.000000 -0.061468
v -0.106422 0.000000 -0.065138
v 0.174312 0.000000 -0.065138
v 0.167890 0.000000 0.000000
v -0.183486 0.000000 0.000000
vt 0.297600 0.000339
vt 0.213371 0.004914
vt 0.254568 0.000078
vt 0.175697 0.013977
vt 0.337767 0.006350
vt 0.141600 0.027107
vt 0.374889 0.017676
vt 0.111140 0.044138
vt 0.408782 0.033887
vt 0.084370 0.064914
vt 0.439268 0.054545
vt 0.061349 0.089265
vt 0.466164 0.079218
vt 0.267658 0.092105
vt 0.042131 0.117036
vt 0.486958 0.104105
vt 0.311206 0.092340
vt 0.253442 0.097403
vt 0.348102 0.097539
vt 0.229149 0.103687
vt 0.364742 0.102422
vt 0.207470 0.113088
vt 0.025434 0.149510
vt 0.380104 0.109806
vt 0.188369 0.125440
vt 0.394094 0.119639
vt 0.171816 0.140587
vt 0.502635 0.128640
vt 0.157774 0.158366
vt 0.406620 0.131869
vt 0.012817 0.185310
vt 0.146210 0.178618
vt 0.417588 0.146440
vt 0.515087 0.155387
vt 0.137089 0.201181
vt 0.004344 0.224265
vt 0.426902 0.163301
vt 0.130377 0.225899
vt 0.524165 0.184008
vt 0.434472 0.182398
vt 0.000078 0.266204
vt 0.126039 0.252608
vt 0.440200 0.203679
vt 0.529721 0.214159
vt 0.124042 0.281148
vt 0.443998 0.227090
vt 0.000078 0.310959
vt 0.124351 0.311361
vt 0.531604 0.245500
vt 0.445768 0.252577
vt 0.008332 0.376669
vt 0.132309 0.369403
vt 0.149733 0.421938
vt 0.025886 0.435861
vt 0.175535 0.470230
vt 0.051657 0.489686
vt 0.208621 0.515546
vt 0.084558 0.539293
vt 0.247906 0.559148
vt 0.123508 0.585837
vt 0.292298 0.602300
vt 0.167421 0.630465
vt 0.340711 0.646267
vt 0.215214 0.674329
vt 0.392049 0.692314
vt 0.265803 0.718581
vt 0.445228 0.741705
vt 0.318102 0.764370
vt 0.499156 0.795704
vt 0.371029 0.812848
vt 0.552742 0.855576
vt 0.423500 0.865165
vt 0.604899 0.922585
vt 0.474428 0.922472
vt 0.249502 0.935550
vt 0.258901 0.999922
vt 0.607753 0.983612
vn 0.000000 1.000000 0.000000
usemtl None.005
s 1
f 1/1/1 2/2/1 3/3/1
f 1/1/1 4/4/1 2/2/1
f 5/5/1 4/4/1 1/1/1
f 5/5/1 6/6/1 4/4/1
f 7/7/1 6/6/1 5/5/1
f 7/7/1 8/8/1 6/6/1
f 9/9/1 8/8/1 7/7/1
f 9/9/1 10/10/1 8/8/1
f 11/11/1 10/10/1 9/9/1
f 11/11/1 12/12/1 10/10/1
f 13/13/1 12/12/1 11/11/1
f 13/13/1 14/14/1 12/12/1
f 14/14/1 15/15/1 12/12/1
f 16/16/1 17/17/1 13/13/1
f 17/17/1 14/14/1 13/13/1
f 18/18/1 15/15/1 14/14/1
f 16/16/1 19/19/1 17/17/1
f 20/20/1 15/15/1 18/18/1
f 16/16/1 21/21/1 19/19/1
f 22/22/1 15/15/1 20/20/1
f 22/22/1 23/23/1 15/15/1
f 16/16/1 24/24/1 21/21/1
f 25/25/1 23/23/1 22/22/1
f 16/16/1 26/26/1 24/24/1
f 27/27/1 23/23/1 25/25/1
f 28/28/1 26/26/1 16/16/1
f 29/29/1 23/23/1 27/27/1
f 28/28/1 30/30/1 26/26/1
f 29/29/1 31/31/1 23/23/1
f 32/32/1 31/31/1 29/29/1
f 28/28/1 33/33/1 30/30/1
f 34/34/1 33/33/1 28/28/1
f 35/35/1 31/31/1 32/32/1
f 35/35/1 36/36/1 31/31/1
f 34/34/1 37/37/1 33/33/1
f 38/38/1 36/36/1 35/35/1
f 39/39/1 37/37/1 34/34/1
f 39/39/1 40/40/1 37/37/1
f 38/38/1 41/41/1 36/36/1
f 42/42/1 41/41/1 38/38/1
f 39/39/1 43/43/1 40/40/1
f 44/44/1 43/43/1 39/39/1
f 45/45/1 41/41/1 42/42/1
f 44/44/1 46/46/1 43/43/1
f 45/45/1 47/47/1 41/41/1
f 48/48/1 47/47/1 45/45/1
f 49/49/1 46/46/1 44/44/1
f 49/49/1 50/50/1 46/46/1
f 48/48/1 51/51/1 47/47/1
f 52/52/1 51/51/1 48/48/1
f 53/53/1 51/51/1 52/52/1
f 53/53/1 54/54/1 51/51/1
f 55/55/1 54/54/1 53/53/1
f 55/55/1 56/56/1 54/54/1
f 57/57/1 56/56/1 55/55/1
f 57/57/1 58/58/1 56/56/1
f 59/59/1 58/58/1 57/57/1
f 59/59/1 60/60/1 58/58/1
f 61/61/1 60/60/1 59/59/1
f 61/61/1 62/62/1 60/60/1
f 63/63/1 62/62/1 61/61/1
f 63/63/1 64/64/1 62/62/1
f 65/65/1 64/64/1 63/63/1
f 65/65/1 66/66/1 64/64/1
f 67/67/1 66/66/1 65/65/1
f 67/67/1 68/68/1 66/66/1
f 69/69/1 68/68/1 67/67/1
f 69/69/1 70/70/1 68/68/1
f 71/71/1 70/70/1 69/69/1
f 71/71/1 72/72/1 70/70/1
f 73/73/1 72/72/1 71/71/1
f 73/73/1 74/74/1 72/72/1
f 73/73/1 75/75/1 74/74/1
f 73/73/1 76/76/1 75/75/1
f 77/77/1 76/76/1 73/73/1
