# Blender v2.76 (sub 0) OBJ File: ''
# www.blender.org
mtllib 3.mtl
o Text.006
v -0.036751 0.000000 -0.615940
v 0.012405 0.000000 -0.616238
v -0.010550 0.000000 -0.617431
v 0.033949 0.000000 -0.612700
v -0.060750 0.000000 -0.611617
v 0.053971 0.000000 -0.606881
v -0.082526 0.000000 -0.604688
v 0.072358 0.000000 -0.598845
v -0.102056 0.000000 -0.595379
v 0.089000 0.000000 -0.588655
v -0.119318 0.000000 -0.583917
v 0.103784 0.000000 -0.576376
v -0.134289 0.000000 -0.570528
v 0.116600 0.000000 -0.562071
v -0.146948 0.000000 -0.555437
v -0.018807 0.000000 -0.560550
v -0.005246 0.000000 -0.559806
v 0.127336 0.000000 -0.545804
v -0.031562 0.000000 -0.559863
v -0.043625 0.000000 -0.557802
v 0.007420 0.000000 -0.557577
v -0.054917 0.000000 -0.554372
v 0.019137 0.000000 -0.553870
v -0.157272 0.000000 -0.538872
v -0.065358 0.000000 -0.549575
v 0.029850 0.000000 -0.548692
v -0.074870 0.000000 -0.543415
v 0.039506 0.000000 -0.542048
v 0.135880 0.000000 -0.527638
v -0.083372 0.000000 -0.535894
v 0.048050 0.000000 -0.533945
v -0.165238 0.000000 -0.521058
v -0.090784 0.000000 -0.527017
v 0.055429 0.000000 -0.524389
v 0.142121 0.000000 -0.507637
v -0.097027 0.000000 -0.516786
v 0.061587 0.000000 -0.513388
v -0.170825 0.000000 -0.502221
v -0.102021 0.000000 -0.505204
v 0.066471 0.000000 -0.500946
v 0.145947 0.000000 -0.485865
v -0.105687 0.000000 -0.492274
v -0.174010 0.000000 -0.482588
v 0.070026 0.000000 -0.487071
v -0.107945 0.000000 -0.478000
v 0.072199 0.000000 -0.471769
v 0.147248 0.000000 -0.462385
v -0.174771 0.000000 -0.462385
v -0.108716 0.000000 -0.462385
v 0.072936 0.000000 -0.455046
v 0.146578 0.000000 -0.446045
v 0.071937 0.000000 -0.434342
v 0.144563 0.000000 -0.430513
v 0.068998 0.000000 -0.416174
v 0.141198 0.000000 -0.415797
v 0.064206 0.000000 -0.400401
v 0.136476 0.000000 -0.401903
v 0.130391 0.000000 -0.388837
v 0.057645 0.000000 -0.386884
v 0.122936 0.000000 -0.376606
v 0.049403 0.000000 -0.375482
v 0.114104 0.000000 -0.365215
v 0.039564 0.000000 -0.366055
v 0.028216 0.000000 -0.358463
v 0.103891 0.000000 -0.354672
v 0.015443 0.000000 -0.352565
v 0.092288 0.000000 -0.344983
v 0.001333 0.000000 -0.348222
v -0.014029 0.000000 -0.345294
v -0.030557 0.000000 -0.343639
v 0.079290 0.000000 -0.336154
v -0.048165 0.000000 -0.343119
v -0.079358 0.000000 -0.288073
v -0.079358 0.000000 -0.343119
v 0.064890 0.000000 -0.328191
v 0.049083 0.000000 -0.321101
v 0.049083 0.000000 -0.320183
v 0.067618 0.000000 -0.316052
v 0.084675 0.000000 -0.310147
v 0.100229 0.000000 -0.302566
v 0.114254 0.000000 -0.293408
v -0.048165 0.000000 -0.288073
v 0.126724 0.000000 -0.282772
v -0.021000 0.000000 -0.286744
v 0.002417 0.000000 -0.282943
v 0.022348 0.000000 -0.276950
v 0.137615 0.000000 -0.270757
v 0.039059 0.000000 -0.269045
v 0.146899 0.000000 -0.257461
v 0.052813 0.000000 -0.259510
v 0.063876 0.000000 -0.248624
v 0.154553 0.000000 -0.242983
v 0.072512 0.000000 -0.236667
v 0.160550 0.000000 -0.227423
v 0.078984 0.000000 -0.223921
v 0.164866 0.000000 -0.210878
v 0.083558 0.000000 -0.210665
v 0.167474 0.000000 -0.193447
v 0.086498 0.000000 -0.197180
v 0.088068 0.000000 -0.183745
v 0.168349 0.000000 -0.175229
v 0.088532 0.000000 -0.170642
v 0.167048 0.000000 -0.149245
v 0.087806 0.000000 -0.151860
v -0.181747 0.000000 -0.138838
v -0.112385 0.000000 -0.161468
v -0.178440 0.000000 -0.161468
v -0.113888 0.000000 -0.145757
v 0.085631 0.000000 -0.134527
v 0.163146 0.000000 -0.124618
v -0.113783 0.000000 -0.130810
v -0.182038 0.000000 -0.116972
v 0.082010 0.000000 -0.118678
v -0.112027 0.000000 -0.116743
v 0.156637 0.000000 -0.101520
v 0.076945 0.000000 -0.104349
v -0.179315 0.000000 -0.096101
v -0.108580 0.000000 -0.103670
v 0.070441 0.000000 -0.091575
v -0.103399 0.000000 -0.091705
v 0.147520 0.000000 -0.080122
v -0.173581 0.000000 -0.076453
v -0.096445 0.000000 -0.080963
v 0.062500 0.000000 -0.080390
v -0.087675 0.000000 -0.071560
v 0.053126 0.000000 -0.070830
v 0.135790 0.000000 -0.060598
v -0.164841 0.000000 -0.058257
v -0.077047 0.000000 -0.063609
v 0.042321 0.000000 -0.062929
v -0.064521 0.000000 -0.057225
v 0.030089 0.000000 -0.056723
v 0.121445 0.000000 -0.043119
v -0.153096 0.000000 -0.041743
v -0.050055 0.000000 -0.052523
v 0.016433 0.000000 -0.052247
v -0.033608 0.000000 -0.049618
v 0.001357 0.000000 -0.049535
v -0.015138 0.000000 -0.048624
v 0.104482 0.000000 -0.027857
v -0.138351 0.000000 -0.027141
v 0.084896 0.000000 -0.014985
v -0.120608 0.000000 -0.014679
v 0.062686 0.000000 -0.004673
v -0.099871 0.000000 -0.004587
v 0.037848 -0.000000 0.002905
v -0.076143 -0.000000 0.002905
v 0.010379 -0.000000 0.007578
v -0.049426 -0.000000 0.007569
v -0.019725 -0.000000 0.009174
vt 0.336266 0.002455
vt 0.262967 0.001720
vt 0.297204 0.000077
vt 0.230821 0.006868
vt 0.372027 0.009044
vt 0.200932 0.015426
vt 0.404457 0.019505
vt 0.173466 0.027301
vt 0.433525 0.033502
vt 0.148590 0.042397
vt 0.459197 0.050696
vt 0.126471 0.060619
vt 0.481442 0.070750
vt 0.107276 0.081875
vt 0.500229 0.093328
vt 0.309183 0.084945
vt 0.288903 0.087808
vt 0.090927 0.105904
vt 0.309064 0.088280
vt 0.331671 0.091865
vt 0.270092 0.092676
vt 0.350165 0.097197
vt 0.252494 0.097779
vt 0.517450 0.120104
vt 0.367304 0.104779
vt 0.236339 0.105111
vt 0.382960 0.114604
vt 0.221707 0.114667
vt 0.077537 0.132673
vt 0.396999 0.126673
vt 0.208680 0.126437
vt 0.530854 0.148971
vt 0.409293 0.140978
vt 0.197337 0.140415
vt 0.067514 0.162261
vt 0.419711 0.157518
vt 0.187761 0.156591
vt 0.540402 0.179562
vt 0.428124 0.176291
vt 0.180033 0.174960
vt 0.061027 0.194576
vt 0.434402 0.197293
vt 0.546051 0.211506
vt 0.174234 0.195513
vt 0.438415 0.220519
vt 0.170444 0.218244
vt 0.058241 0.229527
vt 0.547760 0.244437
vt 0.440035 0.245967
vt 0.168743 0.243143
vt 0.058651 0.253907
vt 0.169486 0.274040
vt 0.061095 0.277130
vt 0.173212 0.301226
vt 0.065581 0.299187
vt 0.179786 0.324909
vt 0.072118 0.320066
vt 0.080718 0.339761
vt 0.189079 0.345293
vt 0.091389 0.358261
vt 0.200953 0.362586
vt 0.104143 0.375558
vt 0.215279 0.376992
vt 0.231920 0.388717
vt 0.118986 0.391641
vt 0.250747 0.397968
vt 0.135932 0.406501
vt 0.271622 0.404950
vt 0.294414 0.409868
vt 0.326629 0.414024
vt 0.155725 0.420786
vt 0.363859 0.416369
vt 0.411709 0.507793
vt 0.414705 0.418066
vt 0.178765 0.434550
vt 0.204142 0.446966
vt 0.204012 0.450854
vt 0.173719 0.456891
vt 0.145764 0.465867
vt 0.120191 0.477624
vt 0.097046 0.492001
vt 0.360777 0.509856
vt 0.076174 0.508587
vt 0.316298 0.513849
vt 0.277979 0.518164
vt 0.245150 0.526312
vt 0.057541 0.527228
vt 0.217395 0.537820
vt 0.041416 0.548076
vt 0.194312 0.552208
vt 0.175490 0.569003
vt 0.027844 0.570971
vt 0.160523 0.587728
vt 0.016875 0.595755
vt 0.149006 0.607906
vt 0.008557 0.622271
vt 0.140530 0.629062
vt 0.002941 0.650361
vt 0.134689 0.650720
vt 0.131075 0.672405
vt 0.000077 0.679865
vt 0.129283 0.693639
vt 0.000129 0.722149
vt 0.128973 0.724186
vt 0.590262 0.763255
vt 0.474486 0.718237
vt 0.586777 0.724472
vt 0.475558 0.745086
vt 0.131129 0.752496
vt 0.004511 0.762436
vt 0.473968 0.770486
vt 0.588693 0.800454
vt 0.135751 0.778511
vt 0.469655 0.794234
vt 0.013246 0.800448
vt 0.142837 0.802173
vt 0.582094 0.835676
vt 0.462561 0.816132
vt 0.152383 0.823426
vt 0.452624 0.835983
vt 0.026350 0.835907
vt 0.570491 0.868536
vt 0.439788 0.853588
vt 0.164387 0.842212
vt 0.423992 0.868744
vt 0.178847 0.858475
vt 0.043844 0.868531
vt 0.553916 0.898644
vt 0.405174 0.881258
vt 0.195760 0.872157
vt 0.383277 0.890928
vt 0.215125 0.883201
vt 0.065745 0.898043
vt 0.532391 0.925608
vt 0.358242 0.897556
vt 0.236939 0.891550
vt 0.330006 0.900942
vt 0.261198 0.897148
vt 0.298467 0.901233
vt 0.093183 0.925550
vt 0.505980 0.949080
vt 0.125301 0.949235
vt 0.474668 0.968637
vt 0.162116 0.968808
vt 0.438483 0.983891
vt 0.203649 0.983975
vt 0.397452 0.994448
vt 0.249922 0.994444
vt 0.351600 0.999923
vt 0.300956 0.999923
vn 0.000000 1.000000 0.000000
usemtl None.006
s 1
f 1/1/1 2/2/1 3/3/1
f 1/1/1 4/4/1 2/2/1
f 5/5/1 4/4/1 1/1/1
f 5/5/1 6/6/1 4/4/1
f 7/7/1 6/6/1 5/5/1
f 7/7/1 8/8/1 6/6/1
f 9/9/1 8/8/1 7/7/1
f 9/9/1 10/10/1 8/8/1
f 11/11/1 10/10/1 9/9/1
f 11/11/1 12/12/1 10/10/1
f 13/13/1 12/12/1 11/11/1
f 13/13/1 14/14/1 12/12/1
f 15/15/1 16/16/1 13/13/1
f 16/16/1 14/14/1 13/13/1
f 16/16/1 17/17/1 14/14/1
f 17/17/1 18/18/1 14/14/1
f 15/15/1 19/19/1 16/16/1
f 15/15/1 20/20/1 19/19/1
f 21/21/1 18/18/1 17/17/1
f 15/15/1 22/22/1 20/20/1
f 23/23/1 18/18/1 21/21/1
f 24/24/1 22/22/1 15/15/1
f 24/24/1 25/25/1 22/22/1
f 26/26/1 18/18/1 23/23/1
f 24/24/1 27/27/1 25/25/1
f 28/28/1 18/18/1 26/26/1
f 28/28/1 29/29/1 18/18/1
f 24/24/1 30/30/1 27/27/1
f 31/31/1 29/29/1 28/28/1
f 32/32/1 30/30/1 24/24/1
f 32/32/1 33/33/1 30/30/1
f 34/34/1 29/29/1 31/31/1
f 34/34/1 35/35/1 29/29/1
f 32/32/1 36/36/1 33/33/1
f 37/37/1 35/35/1 34/34/1
f 38/38/1 36/36/1 32/32/1
f 38/38/1 39/39/1 36/36/1
f 40/40/1 35/35/1 37/37/1
f 40/40/1 41/41/1 35/35/1
f 38/38/1 42/42/1 39/39/1
f 43/43/1 42/42/1 38/38/1
f 44/44/1 41/41/1 40/40/1
f 43/43/1 45/45/1 42/42/1
f 46/46/1 41/41/1 44/44/1
f 46/46/1 47/47/1 41/41/1
f 48/48/1 45/45/1 43/43/1
f 48/48/1 49/49/1 45/45/1
f 50/50/1 47/47/1 46/46/1
f 50/50/1 51/51/1 47/47/1
f 52/52/1 51/51/1 50/50/1
f 52/52/1 53/53/1 51/51/1
f 54/54/1 53/53/1 52/52/1
f 54/54/1 55/55/1 53/53/1
f 56/56/1 55/55/1 54/54/1
f 56/56/1 57/57/1 55/55/1
f 56/56/1 58/58/1 57/57/1
f 59/59/1 58/58/1 56/56/1
f 59/59/1 60/60/1 58/58/1
f 61/61/1 60/60/1 59/59/1
f 61/61/1 62/62/1 60/60/1
f 63/63/1 62/62/1 61/61/1
f 64/64/1 62/62/1 63/63/1
f 64/64/1 65/65/1 62/62/1
f 66/66/1 65/65/1 64/64/1
f 66/66/1 67/67/1 65/65/1
f 68/68/1 67/67/1 66/66/1
f 69/69/1 67/67/1 68/68/1
f 70/70/1 67/67/1 69/69/1
f 70/70/1 71/71/1 67/67/1
f 72/72/1 71/71/1 70/70/1
f 73/73/1 72/72/1 74/74/1
f 73/73/1 71/71/1 72/72/1
f 73/73/1 75/75/1 71/71/1
f 73/73/1 76/76/1 75/75/1
f 73/73/1 77/77/1 76/76/1
f 73/73/1 78/78/1 77/77/1
f 73/73/1 79/79/1 78/78/1
f 73/73/1 80/80/1 79/79/1
f 73/73/1 81/81/1 80/80/1
f 73/73/1 82/82/1 81/81/1
f 82/82/1 83/83/1 81/81/1
f 84/84/1 83/83/1 82/82/1
f 85/85/1 83/83/1 84/84/1
f 86/86/1 83/83/1 85/85/1
f 86/86/1 87/87/1 83/83/1
f 88/88/1 87/87/1 86/86/1
f 88/88/1 89/89/1 87/87/1
f 90/90/1 89/89/1 88/88/1
f 91/91/1 89/89/1 90/90/1
f 91/91/1 92/92/1 89/89/1
f 93/93/1 92/92/1 91/91/1
f 93/93/1 94/94/1 92/92/1
f 95/95/1 94/94/1 93/93/1
f 95/95/1 96/96/1 94/94/1
f 97/97/1 96/96/1 95/95/1
f 97/97/1 98/98/1 96/96/1
f 99/99/1 98/98/1 97/97/1
f 100/100/1 98/98/1 99/99/1
f 100/100/1 101/101/1 98/98/1
f 102/102/1 101/101/1 100/100/1
f 102/102/1 103/103/1 101/101/1
f 104/104/1 103/103/1 102/102/1
f 105/105/1 106/106/1 107/107/1
f 105/105/1 108/108/1 106/106/1
f 109/109/1 103/103/1 104/104/1
f 109/109/1 110/110/1 103/103/1
f 105/105/1 111/111/1 108/108/1
f 112/112/1 111/111/1 105/105/1
f 113/113/1 110/110/1 109/109/1
f 112/112/1 114/114/1 111/111/1
f 113/113/1 115/115/1 110/110/1
f 116/116/1 115/115/1 113/113/1
f 117/117/1 114/114/1 112/112/1
f 117/117/1 118/118/1 114/114/1
f 119/119/1 115/115/1 116/116/1
f 117/117/1 120/120/1 118/118/1
f 119/119/1 121/121/1 115/115/1
f 122/122/1 120/120/1 117/117/1
f 122/122/1 123/123/1 120/120/1
f 124/124/1 121/121/1 119/119/1
f 122/122/1 125/125/1 123/123/1
f 126/126/1 121/121/1 124/124/1
f 126/126/1 127/127/1 121/121/1
f 128/128/1 125/125/1 122/122/1
f 128/128/1 129/129/1 125/125/1
f 130/130/1 127/127/1 126/126/1
f 128/128/1 131/131/1 129/129/1
f 132/132/1 127/127/1 130/130/1
f 132/132/1 133/133/1 127/127/1
f 134/134/1 131/131/1 128/128/1
f 134/134/1 135/135/1 131/131/1
f 136/136/1 133/133/1 132/132/1
f 134/134/1 137/137/1 135/135/1
f 138/138/1 133/133/1 136/136/1
f 134/134/1 139/139/1 137/137/1
f 139/139/1 133/133/1 138/138/1
f 134/134/1 133/133/1 139/139/1
f 134/134/1 140/140/1 133/133/1
f 141/141/1 140/140/1 134/134/1
f 141/141/1 142/142/1 140/140/1
f 143/143/1 142/142/1 141/141/1
f 143/143/1 144/144/1 142/142/1
f 145/145/1 144/144/1 143/143/1
f 145/145/1 146/146/1 144/144/1
f 147/147/1 146/146/1 145/145/1
f 147/147/1 148/148/1 146/146/1
f 149/149/1 148/148/1 147/147/1
f 150/150/1 148/148/1 149/149/1
