# Blender v2.76 (sub 0) OBJ File: ''
# www.blender.org
mtllib 4.mtl
o Text.007
v -0.209633 0.000000 -0.196330
v 0.041743 0.000000 -0.537615
v 0.018807 0.000000 -0.608257
v 0.111468 0.000000 -0.608257
v 0.111468 0.000000 -0.203670
v -0.142661 0.000000 -0.203670
v 0.041743 0.000000 -0.203670
v 0.192202 0.000000 -0.203670
v 0.192202 0.000000 -0.145872
v -0.209633 0.000000 -0.145872
v 0.041743 0.000000 -0.145872
v 0.041743 0.000000 0.000000
v 0.111468 0.000000 -0.145872
v 0.111468 0.000000 0.000000
vt 0.722534 0.524918
vt 0.463719 0.093035
vt 0.498340 0.008556
vt 0.382095 0.000085
vt 0.353197 0.511721
vt 0.651671 0.515916
vt 0.459179 0.512609
vt 0.000085 0.511722
vt 0.000085 0.615635
vt 0.722534 0.615635
vt 0.361311 0.621940
vt 0.361311 0.999915
vt 0.180644 0.621940
vt 0.180644 0.999915
vn -0.000000 1.000000 0.000000
vn 0.000000 0.000000 -1.000000
vn 0.000000 0.000000 1.000000
usemtl None.007
s 1
f 1/1/1 2/2/1 3/3/1
f 2/2/1 4/4/1 3/3/1
f 2/2/1 5/5/1 4/4/1
f 1/1/1 6/6/1 2/2/1
f 7/7/1 5/5/1 2/2/1
f 1/1/1 7/7/1 6/6/1
f 1/1/1 5/5/1 7/7/1
f 1/1/1 8/8/1 5/5/1
f 1/1/1 9/9/1 8/8/1
f 10/10/1 9/9/1 1/1/1
f 11/11/2 9/9/2 10/10/2
f 12/12/1 13/13/1 11/11/1
f 13/13/3 9/9/3 11/11/3
f 12/12/1 14/14/1 13/13/1
