# Blender v2.76 (sub 0) OBJ File: ''
# www.blender.org
mtllib 5.mtl
o Text
v -0.161927 0.000000 -0.292661
v -0.084862 0.000000 -0.544037
v -0.140826 0.000000 -0.608257
v 0.138073 0.000000 -0.608257
v 0.131651 0.000000 -0.544037
v -0.097706 0.000000 -0.361468
v -0.017305 0.000000 -0.368751
v 0.016544 0.000000 -0.367600
v -0.012385 0.000000 -0.368807
v -0.022847 0.000000 -0.368582
v -0.028942 0.000000 -0.368306
v -0.035525 0.000000 -0.367924
v -0.042528 0.000000 -0.367440
v 0.043208 0.000000 -0.363965
v -0.049885 0.000000 -0.366858
v -0.057529 0.000000 -0.366180
v -0.065392 0.000000 -0.365409
v -0.073409 0.000000 -0.364550
v -0.081511 0.000000 -0.363604
v 0.067560 0.000000 -0.357884
v -0.089633 0.000000 -0.362576
v 0.089551 0.000000 -0.349337
v -0.151163 0.000000 -0.294913
v -0.140418 0.000000 -0.297069
v -0.129673 0.000000 -0.299111
v -0.118909 0.000000 -0.301019
v 0.109134 0.000000 -0.338306
v -0.108107 0.000000 -0.302775
v -0.097248 0.000000 -0.304358
v -0.086312 0.000000 -0.305750
v -0.075280 0.000000 -0.306932
v 0.126261 0.000000 -0.324771
v -0.064134 0.000000 -0.307884
v -0.052854 0.000000 -0.308588
v -0.041421 0.000000 -0.309025
v -0.029817 0.000000 -0.309174
v 0.140885 0.000000 -0.308712
v -0.005807 0.000000 -0.308315
v 0.152956 0.000000 -0.290112
v 0.015397 0.000000 -0.305742
v 0.033931 0.000000 -0.301462
v 0.049932 0.000000 -0.295481
v 0.063538 0.000000 -0.287805
v 0.162428 0.000000 -0.268951
v 0.074885 0.000000 -0.278440
v 0.084111 0.000000 -0.267394
v 0.169253 0.000000 -0.245209
v 0.091352 0.000000 -0.254672
v 0.096746 0.000000 -0.240281
v 0.173383 0.000000 -0.218868
v 0.100429 0.000000 -0.224227
v 0.102538 0.000000 -0.206516
v 0.174771 0.000000 -0.189908
v 0.103211 0.000000 -0.187156
v 0.173381 0.000000 -0.163250
v 0.102636 0.000000 -0.168241
v 0.100828 0.000000 -0.150136
v -0.180642 0.000000 -0.137360
v -0.110550 0.000000 -0.163303
v -0.178440 0.000000 -0.163303
v -0.112596 0.000000 -0.146014
v 0.169236 0.000000 -0.137572
v 0.097663 0.000000 -0.132999
v -0.112772 0.000000 -0.129961
v 0.162371 0.000000 -0.113131
v -0.179918 0.000000 -0.113256
v 0.093017 0.000000 -0.116989
v -0.111081 0.000000 -0.115195
v 0.086766 0.000000 -0.102267
v -0.107526 0.000000 -0.101767
v -0.176290 0.000000 -0.091069
v 0.152820 0.000000 -0.090180
v 0.078784 0.000000 -0.088991
v -0.102111 0.000000 -0.089728
v -0.169776 0.000000 -0.070880
v 0.140619 0.000000 -0.068975
v -0.094839 0.000000 -0.079128
v 0.068949 0.000000 -0.077320
v -0.085713 0.000000 -0.070020
v 0.057136 0.000000 -0.067414
v -0.160394 0.000000 -0.052768
v -0.074737 0.000000 -0.062453
v 0.125803 0.000000 -0.049771
v 0.043220 0.000000 -0.059432
v -0.061912 0.000000 -0.056479
v 0.027077 0.000000 -0.053534
v -0.047243 0.000000 -0.052149
v 0.008583 0.000000 -0.049878
v -0.148165 0.000000 -0.036812
v -0.030733 0.000000 -0.049514
v -0.012385 0.000000 -0.048624
v 0.108406 0.000000 -0.032822
v -0.133107 0.000000 -0.023092
v 0.088464 0.000000 -0.018383
v -0.115240 0.000000 -0.011689
v 0.066012 0.000000 -0.006709
v -0.094581 0.000000 -0.002681
v 0.041085 -0.000000 0.001945
v -0.071152 -0.000000 0.003852
v 0.013717 -0.000000 0.007325
v -0.044970 -0.000000 0.007831
v -0.016055 -0.000000 0.009174
vt 0.639882 0.999913
vt 0.573385 0.292130
vt 0.756714 0.152709
vt 0.018226 0.000087
vt 0.000087 0.173648
vt 0.507487 0.782578
vt 0.201394 0.699438
vt 0.171088 0.697794
vt 0.191459 0.698445
vt 0.212570 0.700901
vt 0.226176 0.703035
vt 0.243135 0.706105
vt 0.264607 0.710483
vt 0.128096 0.697937
vt 0.287532 0.715621
vt 0.314214 0.722145
vt 0.345215 0.730369
vt 0.381173 0.740672
vt 0.422464 0.753429
vt 0.067923 0.701629
vt 0.463046 0.766847
vt 0.005018 0.712226
vt 0.000087 0.723346
vt 0.000121 0.722769
vt 0.000174 0.722196
vt 0.000244 0.721631
vt 0.004721 0.711158
vt 0.004538 0.711082
vt 0.004558 0.711083
vt 0.004741 0.711148
vn -0.000000 1.000000 0.000000
usemtl None
s 1
f 1/1/1 2/2/1 3/3/1
f 2/2/1 4/4/1 3/3/1
f 2/2/1 5/5/1 4/4/1
f 1/1/1 6/6/1 2/2/1
f 7/7/1 8/8/1 9/9/1
f 10/10/1 8/8/1 7/7/1
f 11/11/1 8/8/1 10/10/1
f 12/12/1 8/8/1 11/11/1
f 13/13/1 8/8/1 12/12/1
f 13/13/1 14/14/1 8/8/1
f 15/15/1 14/14/1 13/13/1
f 16/16/1 14/14/1 15/15/1
f 17/17/1 14/14/1 16/16/1
f 18/18/1 14/14/1 17/17/1
f 19/19/1 14/14/1 18/18/1
f 19/19/1 20/20/1 14/14/1
f 21/21/1 20/20/1 19/19/1
f 6/6/1 20/20/1 21/21/1
f 1/1/1 20/20/1 6/6/1
f 1/1/1 22/22/1 20/20/1
f 1/1/1 23/23/1 22/22/1
f 23/23/1 24/24/1 22/22/1
f 24/24/1 25/25/1 22/22/1
f 25/25/1 26/26/1 22/22/1
f 26/26/1 27/27/1 22/22/1
f 26/26/1 28/28/1 27/27/1
f 28/28/1 29/28/1 27/27/1
f 29/28/1 30/29/1 27/27/1
f 30/29/1 31/29/1 27/27/1
f 31/29/1 32/27/1 27/27/1
f 31/29/1 33/30/1 32/27/1
f 33/30/1 34/30/1 32/27/1
f 34/30/1 35/30/1 32/27/1
f 35/30/1 36/30/1 32/27/1
f 36/30/1 37/27/1 32/27/1
f 38/30/1 37/27/1 36/30/1
f 38/30/1 39/27/1 37/27/1
f 40/27/1 39/27/1 38/30/1
f 41/27/1 39/27/1 40/27/1
f 42/27/1 39/27/1 41/27/1
f 43/27/1 39/27/1 42/27/1
f 43/27/1 44/27/1 39/27/1
f 45/27/1 44/27/1 43/27/1
f 46/27/1 44/27/1 45/27/1
f 46/27/1 47/27/1 44/27/1
f 48/27/1 47/27/1 46/27/1
f 49/27/1 47/27/1 48/27/1
f 49/27/1 50/27/1 47/27/1
f 51/27/1 50/27/1 49/27/1
f 52/27/1 50/27/1 51/27/1
f 52/27/1 53/27/1 50/27/1
f 54/27/1 53/27/1 52/27/1
f 54/27/1 55/27/1 53/27/1
f 56/27/1 55/27/1 54/27/1
f 57/27/1 55/27/1 56/27/1
f 58/30/1 59/30/1 60/30/1
f 58/30/1 61/30/1 59/30/1
f 57/27/1 62/27/1 55/27/1
f 63/27/1 62/27/1 57/27/1
f 58/30/1 64/30/1 61/30/1
f 63/27/1 65/27/1 62/27/1
f 66/30/1 64/30/1 58/30/1
f 67/27/1 65/27/1 63/27/1
f 66/30/1 68/30/1 64/30/1
f 69/27/1 65/27/1 67/27/1
f 66/30/1 70/30/1 68/30/1
f 71/30/1 70/30/1 66/30/1
f 69/27/1 72/27/1 65/27/1
f 73/27/1 72/27/1 69/27/1
f 71/30/1 74/30/1 70/30/1
f 75/30/1 74/30/1 71/30/1
f 73/27/1 76/27/1 72/27/1
f 75/30/1 77/30/1 74/30/1
f 78/27/1 76/27/1 73/27/1
f 75/30/1 79/30/1 77/30/1
f 80/27/1 76/27/1 78/27/1
f 81/30/1 79/30/1 75/30/1
f 81/30/1 82/30/1 79/30/1
f 80/27/1 83/27/1 76/27/1
f 84/27/1 83/27/1 80/27/1
f 81/30/1 85/30/1 82/30/1
f 86/27/1 83/27/1 84/27/1
f 81/30/1 87/27/1 85/30/1
f 88/27/1 83/27/1 86/27/1
f 89/30/1 87/27/1 81/30/1
f 89/30/1 90/27/1 87/27/1
f 91/27/1 83/27/1 88/27/1
f 91/27/1 92/27/1 83/27/1
f 89/30/1 91/27/1 90/27/1
f 89/30/1 92/27/1 91/27/1
f 93/30/1 92/27/1 89/30/1
f 93/30/1 94/27/1 92/27/1
f 95/30/1 94/27/1 93/30/1
f 95/30/1 96/27/1 94/27/1
f 97/30/1 96/27/1 95/30/1
f 97/30/1 98/27/1 96/27/1
f 99/30/1 98/27/1 97/30/1
f 99/30/1 100/27/1 98/27/1
f 101/27/1 100/27/1 99/30/1
f 101/27/1 102/27/1 100/27/1
