# Blender v2.76 (sub 0) OBJ File: ''
# www.blender.org
mtllib 7.mtl
o Text.011
v -0.174312 0.000000 -0.544037
v 0.174312 0.000000 -0.608257
v -0.174312 0.000000 -0.608257
v 0.174312 0.000000 -0.551376
v 0.104587 0.000000 -0.544037
v 0.151080 0.000000 -0.518119
v 0.082632 0.000000 -0.511414
v 0.129056 0.000000 -0.482182
v 0.061285 0.000000 -0.475259
v 0.108185 0.000000 -0.443678
v 0.040582 0.000000 -0.435938
v 0.088413 0.000000 -0.402718
v 0.020557 0.000000 -0.393816
v 0.069686 0.000000 -0.359414
v 0.001246 0.000000 -0.349260
v 0.051950 0.000000 -0.313876
v -0.017317 0.000000 -0.302638
v 0.035150 0.000000 -0.266217
v -0.035095 0.000000 -0.254314
v 0.019232 0.000000 -0.216548
v -0.052056 0.000000 -0.204655
v 0.004143 0.000000 -0.164980
v -0.068162 0.000000 -0.154028
v -0.010172 0.000000 -0.111625
v -0.083380 0.000000 -0.102799
v -0.023768 0.000000 -0.056595
v -0.097674 0.000000 -0.051334
v -0.036697 0.000000 0.000000
v -0.111009 0.000000 0.000000
vt 0.573086 0.105630
vt 0.000076 0.000076
vt 0.573086 0.000076
vt 0.000076 0.093567
vt 0.114690 0.105631
vt 0.038265 0.148236
vt 0.150780 0.159257
vt 0.074468 0.207309
vt 0.185871 0.218689
vt 0.108777 0.270602
vt 0.219903 0.283325
vt 0.141278 0.337933
vt 0.252821 0.352565
vt 0.172062 0.409116
vt 0.284565 0.425807
vt 0.201217 0.483972
vt 0.315079 0.502445
vt 0.228833 0.562314
vt 0.344303 0.581880
vt 0.255000 0.643961
vt 0.372184 0.663510
vt 0.279804 0.728729
vt 0.398660 0.746731
vt 0.303335 0.816434
vt 0.423676 0.830942
vt 0.325685 0.906893
vt 0.447172 0.915541
vt 0.346938 0.999924
vt 0.469093 0.999924
vn 0.000000 1.000000 0.000000
usemtl None.011
s 1
f 1/1/1 2/2/1 3/3/1
f 1/1/1 4/4/1 2/2/1
f 1/1/1 5/5/1 4/4/1
f 5/5/1 6/6/1 4/4/1
f 7/7/1 6/6/1 5/5/1
f 7/7/1 8/8/1 6/6/1
f 9/9/1 8/8/1 7/7/1
f 9/9/1 10/10/1 8/8/1
f 11/11/1 10/10/1 9/9/1
f 11/11/1 12/12/1 10/10/1
f 13/13/1 12/12/1 11/11/1
f 13/13/1 14/14/1 12/12/1
f 15/15/1 14/14/1 13/13/1
f 15/15/1 16/16/1 14/14/1
f 17/17/1 16/16/1 15/15/1
f 17/17/1 18/18/1 16/16/1
f 19/19/1 18/18/1 17/17/1
f 19/19/1 20/20/1 18/18/1
f 21/21/1 20/20/1 19/19/1
f 21/21/1 22/22/1 20/20/1
f 23/23/1 22/22/1 21/21/1
f 23/23/1 24/24/1 22/22/1
f 25/25/1 24/24/1 23/23/1
f 25/25/1 26/26/1 24/24/1
f 27/27/1 26/26/1 25/25/1
f 27/27/1 28/28/1 26/26/1
f 29/29/1 28/28/1 27/27/1
