# Blender v2.76 (sub 0) OBJ File: ''
# www.blender.org
mtllib 8.mtl
o Text.012
v -0.020756 0.000000 -0.616112
v 0.030840 0.000000 -0.616187
v 0.005963 0.000000 -0.617431
v 0.054439 0.000000 -0.612526
v -0.045787 0.000000 -0.612232
v 0.076591 0.000000 -0.606551
v -0.069008 0.000000 -0.605906
v 0.097129 0.000000 -0.598369
v -0.090299 0.000000 -0.597248
v 0.115883 0.000000 -0.588085
v -0.109539 0.000000 -0.586372
v 0.132684 0.000000 -0.575803
v -0.126606 0.000000 -0.573395
v 0.147363 0.000000 -0.561629
v -0.141379 0.000000 -0.558429
v -0.001376 0.000000 -0.560550
v 0.015070 0.000000 -0.559756
v 0.159752 0.000000 -0.545668
v -0.015925 0.000000 -0.559777
v -0.029693 0.000000 -0.557501
v 0.030420 0.000000 -0.557403
v -0.153738 0.000000 -0.541590
v -0.042589 0.000000 -0.553784
v 0.044610 0.000000 -0.553541
v -0.054519 0.000000 -0.548692
v 0.057577 0.000000 -0.548216
v -0.065392 0.000000 -0.542287
v 0.069258 0.000000 -0.541477
v 0.169682 0.000000 -0.528025
v -0.075115 0.000000 -0.534633
v -0.163561 0.000000 -0.522993
v 0.079587 0.000000 -0.533372
v -0.083595 0.000000 -0.525794
v 0.088502 0.000000 -0.523947
v 0.176984 0.000000 -0.508805
v -0.090741 0.000000 -0.515834
v 0.095940 0.000000 -0.513252
v -0.170727 0.000000 -0.502752
v -0.096459 0.000000 -0.504816
v 0.101835 0.000000 -0.501333
v 0.181488 0.000000 -0.488113
v -0.100658 0.000000 -0.492805
v -0.175116 0.000000 -0.480982
v 0.106125 0.000000 -0.488239
v -0.103246 0.000000 -0.479863
v 0.108745 0.000000 -0.474017
v 0.183028 0.000000 -0.466055
v -0.176606 0.000000 -0.457798
v -0.104128 0.000000 -0.466055
v 0.109633 0.000000 -0.458716
v -0.103156 0.000000 -0.451306
v 0.181982 0.000000 -0.447767
v 0.108642 0.000000 -0.444917
v -0.175672 0.000000 -0.439565
v -0.100327 0.000000 -0.437742
v 0.178946 0.000000 -0.430917
v 0.105755 0.000000 -0.432348
v -0.172957 0.000000 -0.422868
v -0.095771 0.000000 -0.425287
v 0.101104 0.000000 -0.420900
v 0.174068 0.000000 -0.415410
v -0.089619 0.000000 -0.413863
v -0.168592 0.000000 -0.407597
v 0.094818 0.000000 -0.410466
v 0.167499 0.000000 -0.401155
v -0.082002 0.000000 -0.403396
v 0.087029 0.000000 -0.400936
v -0.162708 0.000000 -0.393646
v -0.073050 0.000000 -0.393807
v 0.159388 0.000000 -0.388060
v 0.077867 0.000000 -0.392202
v -0.062894 0.000000 -0.385022
v -0.155435 0.000000 -0.380905
v 0.067463 0.000000 -0.384156
v 0.149885 0.000000 -0.376032
v -0.051665 0.000000 -0.376962
v 0.055946 0.000000 -0.376690
v -0.146904 0.000000 -0.369266
v -0.039493 0.000000 -0.369553
v 0.043449 0.000000 -0.369696
v 0.139140 0.000000 -0.364979
v 0.030101 0.000000 -0.363065
v -0.026508 0.000000 -0.362717
v -0.137245 0.000000 -0.358621
v 0.127302 0.000000 -0.354808
v 0.016033 0.000000 -0.356689
v -0.012841 0.000000 -0.356377
v -0.126589 0.000000 -0.348862
v 0.001376 0.000000 -0.350459
v 0.114521 0.000000 -0.345427
v -0.115066 0.000000 -0.339880
v 0.100947 0.000000 -0.336744
v -0.102808 0.000000 -0.331566
v 0.086730 0.000000 -0.328666
v -0.089944 0.000000 -0.323814
v 0.072018 0.000000 -0.321101
v -0.076606 0.000000 -0.316514
v 0.088036 0.000000 -0.313403
v -0.092726 0.000000 -0.308832
v 0.103831 0.000000 -0.305313
v -0.108397 0.000000 -0.300399
v 0.119180 0.000000 -0.296631
v -0.123438 0.000000 -0.291112
v 0.133860 0.000000 -0.287156
v -0.137666 0.000000 -0.280870
v -0.008716 0.000000 -0.285321
v 0.147648 0.000000 -0.276687
v -0.025884 0.000000 -0.277679
v 0.008988 0.000000 -0.277726
v -0.150900 0.000000 -0.269570
v 0.026189 0.000000 -0.269975
v -0.042011 0.000000 -0.269822
v 0.160321 0.000000 -0.265023
v 0.042689 0.000000 -0.261912
v -0.057010 0.000000 -0.261654
v -0.162959 0.000000 -0.257110
v 0.171656 0.000000 -0.251964
v 0.058291 0.000000 -0.253381
v -0.070795 0.000000 -0.253075
v -0.173661 0.000000 -0.243389
v 0.072797 0.000000 -0.244225
v -0.083281 0.000000 -0.243986
v 0.181431 0.000000 -0.237309
v 0.086009 0.000000 -0.234289
v -0.094381 0.000000 -0.234289
v -0.182824 0.000000 -0.228304
v 0.189421 0.000000 -0.220857
v -0.104009 0.000000 -0.223885
v 0.097731 0.000000 -0.223416
v -0.190267 0.000000 -0.211755
v -0.112080 0.000000 -0.212674
v 0.107764 0.000000 -0.211451
v 0.195404 0.000000 -0.202408
v -0.118506 0.000000 -0.200559
v -0.195808 0.000000 -0.193637
v 0.115912 0.000000 -0.198237
v 0.199158 0.000000 -0.181761
v -0.123203 0.000000 -0.187441
v 0.121976 0.000000 -0.183618
v -0.199266 0.000000 -0.173851
v -0.126085 0.000000 -0.173220
v 0.125759 0.000000 -0.167438
v 0.200459 0.000000 -0.158716
v -0.200459 0.000000 -0.152294
v -0.127064 0.000000 -0.157798
v 0.127064 0.000000 -0.149541
v 0.198782 0.000000 -0.134405
v -0.126113 0.000000 -0.141967
v -0.198785 0.000000 -0.128110
v 0.126011 0.000000 -0.134258
v -0.123276 0.000000 -0.127094
v 0.193846 0.000000 -0.111557
v 0.122923 0.000000 -0.120086
v -0.193875 0.000000 -0.105611
v -0.118578 0.000000 -0.113260
v 0.117904 0.000000 -0.107067
v -0.112046 0.000000 -0.100544
v 0.185794 0.000000 -0.090295
v 0.111060 0.000000 -0.095243
v -0.185894 0.000000 -0.084877
v -0.103704 0.000000 -0.089025
v 0.102496 0.000000 -0.084655
v 0.174771 0.000000 -0.070744
v -0.093578 0.000000 -0.078784
v -0.175008 0.000000 -0.065987
v 0.092317 0.000000 -0.075344
v -0.081694 0.000000 -0.069901
v 0.080627 0.000000 -0.067352
v 0.160918 0.000000 -0.053028
v -0.068077 0.000000 -0.062453
v 0.067533 0.000000 -0.060720
v -0.161383 0.000000 -0.049022
v -0.052752 0.000000 -0.056522
v 0.053139 0.000000 -0.055490
v -0.035746 0.000000 -0.052187
v 0.037551 0.000000 -0.051703
v 0.144381 0.000000 -0.037271
v -0.017083 0.000000 -0.049528
v 0.020873 0.000000 -0.049401
v 0.003211 0.000000 -0.048624
v -0.145183 0.000000 -0.034060
v 0.125301 0.000000 -0.023597
v -0.126576 0.000000 -0.021181
v 0.103823 0.000000 -0.012130
v -0.105725 0.000000 -0.010466
v 0.080089 0.000000 -0.002996
v -0.082798 0.000000 -0.001993
v 0.054243 -0.000000 0.003682
v -0.057960 -0.000000 0.004158
v 0.026429 -0.000000 0.007781
v -0.031375 -0.000000 0.007907
v -0.003211 -0.000000 0.009174
vt 0.333320 0.003257
vt 0.273860 0.003019
vt 0.302396 0.000085
vt 0.246872 0.008343
vt 0.362139 0.008760
vt 0.221622 0.016172
vt 0.388777 0.016950
vt 0.198305 0.026462
vt 0.413111 0.027755
vt 0.177114 0.039108
vt 0.435010 0.041060
vt 0.158238 0.053993
vt 0.454339 0.056733
vt 0.141867 0.070989
vt 0.466339 0.072523
vt 0.318301 0.073167
vt 0.298378 0.075868
vt 0.123949 0.089824
vt 0.356448 0.075635
vt 0.369288 0.079393
vt 0.279729 0.080153
vt 0.484536 0.086334
vt 0.381860 0.084012
vt 0.262480 0.085315
vt 0.393499 0.089928
vt 0.246717 0.092230
vt 0.404202 0.097119
vt 0.232469 0.100872
vt 0.108287 0.110587
vt 0.413998 0.105578
vt 0.501935 0.101552
vt 0.219525 0.111107
vt 0.423354 0.115011
vt 0.208210 0.123072
vt 0.095381 0.134009
vt 0.431702 0.125837
vt 0.198386 0.136679
vt 0.518081 0.120191
vt 0.439308 0.137905
vt 0.190338 0.152035
vt 0.085609 0.160318
vt 0.445723 0.151539
vt 0.532458 0.142895
vt 0.184046 0.169089
vt 0.450945 0.166687
vt 0.179736 0.187921
vt 0.079538 0.189665
vt 0.544107 0.169921
vt 0.454694 0.183462
vt 0.177532 0.208474
vt 0.456551 0.202241
vt 0.077559 0.215026
vt 0.177964 0.227287
vt 0.551076 0.193318
vt 0.455855 0.220267
vt 0.078728 0.239267
vt 0.181157 0.244640
vt 0.554958 0.216430
vt 0.452582 0.237482
vt 0.186976 0.260658
vt 0.082982 0.262340
vt 0.446848 0.253917
vt 0.555691 0.239053
vt 0.195354 0.275310
vt 0.090149 0.284180
vt 0.438701 0.269441
vt 0.206068 0.288646
vt 0.553492 0.260952
vt 0.428268 0.284019
vt 0.100054 0.304768
vt 0.218938 0.300707
vt 0.415873 0.297793
vt 0.548472 0.281821
vt 0.233618 0.311764
vt 0.112407 0.323889
vt 0.401552 0.310648
vt 0.250016 0.321643
vt 0.541020 0.301749
vt 0.385473 0.322586
vt 0.267897 0.330786
vt 0.126797 0.341488
vt 0.287229 0.339109
vt 0.368053 0.333861
vt 0.531364 0.320489
vt 0.143033 0.357896
vt 0.307842 0.346687
vt 0.349274 0.344332
vt 0.519824 0.338318
vt 0.329292 0.353957
vt 0.160720 0.372972
vt 0.506214 0.353778
vt 0.179704 0.385457
vt 0.491412 0.368528
vt 0.199668 0.397172
vt 0.475621 0.382739
vt 0.220414 0.408307
vt 0.459062 0.396612
vt 0.192045 0.423952
vt 0.489718 0.407657
vt 0.164254 0.440489
vt 0.519630 0.420242
vt 0.137408 0.458147
vt 0.548516 0.434532
vt 0.111900 0.477204
vt 0.576298 0.449586
vt 0.354511 0.462097
vt 0.087863 0.497077
vt 0.385270 0.473092
vt 0.325146 0.478079
vt 0.602556 0.466766
vt 0.296665 0.494203
vt 0.414482 0.484554
vt 0.065864 0.518807
vt 0.269209 0.510753
vt 0.441797 0.496738
vt 0.627034 0.486175
vt 0.046338 0.542924
vt 0.243175 0.528003
vt 0.467283 0.509799
vt 0.649415 0.508224
vt 0.219016 0.546174
vt 0.490764 0.523956
vt 0.029636 0.569660
vt 0.197040 0.565516
vt 0.511965 0.539438
vt 0.669442 0.533060
vt 0.016237 0.599566
vt 0.530863 0.556420
vt 0.177642 0.586321
vt 0.686744 0.561076
vt 0.547281 0.575122
vt 0.161298 0.608882
vt 0.006503 0.632974
vt 0.560984 0.595762
vt 0.701007 0.592499
vt 0.148296 0.633483
vt 0.000958 0.670393
vt 0.571869 0.618540
vt 0.139043 0.660422
vt 0.711815 0.627636
vt 0.579749 0.643670
vt 0.133980 0.690001
vt 0.000085 0.712210
vt 0.718771 0.666713
vt 0.584432 0.671354
vt 0.133487 0.722501
vt 0.004860 0.756364
vt 0.585662 0.700186
vt 0.720824 0.711403
vt 0.136974 0.750091
vt 0.583278 0.727651
vt 0.015645 0.797826
vt 0.144038 0.775482
vt 0.716383 0.753859
vt 0.577301 0.753551
vt 0.154523 0.798603
vt 0.567753 0.777726
vt 0.032245 0.836292
vt 0.168223 0.819305
vt 0.705696 0.793774
vt 0.554682 0.799946
vt 0.184956 0.837556
vt 0.054401 0.871381
vt 0.538133 0.820102
vt 0.689114 0.830811
vt 0.204488 0.853197
vt 0.518162 0.837934
vt 0.226625 0.866244
vt 0.081774 0.902742
vt 0.494816 0.853394
vt 0.251123 0.876522
vt 0.667040 0.864693
vt 0.468156 0.866190
vt 0.277799 0.884081
vt 0.438227 0.876310
vt 0.306446 0.888860
vt 0.113898 0.930053
vt 0.405069 0.883613
vt 0.336831 0.890678
vt 0.368778 0.889596
vt 0.640235 0.895020
vt 0.150334 0.953049
vt 0.608555 0.921891
vt 0.190896 0.971727
vt 0.572415 0.945187
vt 0.235314 0.985882
vt 0.532105 0.964748
vt 0.283314 0.995326
vt 0.487913 0.980420
vt 0.334630 0.999915
vt 0.440130 0.992119
vt 0.389049 0.999915
vn 0.000000 1.000000 0.000000
usemtl None.012
s 1
f 1/1/1 2/2/1 3/3/1
f 1/1/1 4/4/1 2/2/1
f 5/5/1 4/4/1 1/1/1
f 5/5/1 6/6/1 4/4/1
f 7/7/1 6/6/1 5/5/1
f 7/7/1 8/8/1 6/6/1
f 9/9/1 8/8/1 7/7/1
f 9/9/1 10/10/1 8/8/1
f 11/11/1 10/10/1 9/9/1
f 11/11/1 12/12/1 10/10/1
f 13/13/1 12/12/1 11/11/1
f 13/13/1 14/14/1 12/12/1
f 15/15/1 16/16/1 13/13/1
f 16/16/1 14/14/1 13/13/1
f 16/16/1 17/17/1 14/14/1
f 17/17/1 18/18/1 14/14/1
f 15/15/1 19/19/1 16/16/1
f 15/15/1 20/20/1 19/19/1
f 21/21/1 18/18/1 17/17/1
f 22/22/1 20/20/1 15/15/1
f 22/22/1 23/23/1 20/20/1
f 24/24/1 18/18/1 21/21/1
f 22/22/1 25/25/1 23/23/1
f 26/26/1 18/18/1 24/24/1
f 22/22/1 27/27/1 25/25/1
f 28/28/1 18/18/1 26/26/1
f 28/28/1 29/29/1 18/18/1
f 22/22/1 30/30/1 27/27/1
f 31/31/1 30/30/1 22/22/1
f 32/32/1 29/29/1 28/28/1
f 31/31/1 33/33/1 30/30/1
f 34/34/1 29/29/1 32/32/1
f 34/34/1 35/35/1 29/29/1
f 31/31/1 36/36/1 33/33/1
f 37/37/1 35/35/1 34/34/1
f 38/38/1 36/36/1 31/31/1
f 38/38/1 39/39/1 36/36/1
f 40/40/1 35/35/1 37/37/1
f 40/40/1 41/41/1 35/35/1
f 38/38/1 42/42/1 39/39/1
f 43/43/1 42/42/1 38/38/1
f 44/44/1 41/41/1 40/40/1
f 43/43/1 45/45/1 42/42/1
f 46/46/1 41/41/1 44/44/1
f 46/46/1 47/47/1 41/41/1
f 48/48/1 45/45/1 43/43/1
f 48/48/1 49/49/1 45/45/1
f 50/50/1 47/47/1 46/46/1
f 48/48/1 51/51/1 49/49/1
f 50/50/1 52/52/1 47/47/1
f 53/53/1 52/52/1 50/50/1
f 54/54/1 51/51/1 48/48/1
f 54/54/1 55/55/1 51/51/1
f 53/53/1 56/56/1 52/52/1
f 57/57/1 56/56/1 53/53/1
f 58/58/1 55/55/1 54/54/1
f 58/58/1 59/59/1 55/55/1
f 60/60/1 56/56/1 57/57/1
f 60/60/1 61/61/1 56/56/1
f 58/58/1 62/62/1 59/59/1
f 63/63/1 62/62/1 58/58/1
f 64/64/1 61/61/1 60/60/1
f 64/64/1 65/65/1 61/61/1
f 63/63/1 66/66/1 62/62/1
f 67/67/1 65/65/1 64/64/1
f 68/68/1 66/66/1 63/63/1
f 68/68/1 69/69/1 66/66/1
f 67/67/1 70/70/1 65/65/1
f 71/71/1 70/70/1 67/67/1
f 68/68/1 72/72/1 69/69/1
f 73/73/1 72/72/1 68/68/1
f 74/74/1 70/70/1 71/71/1
f 74/74/1 75/75/1 70/70/1
f 73/73/1 76/76/1 72/72/1
f 77/77/1 75/75/1 74/74/1
f 78/78/1 76/76/1 73/73/1
f 78/78/1 79/79/1 76/76/1
f 80/80/1 75/75/1 77/77/1
f 80/80/1 81/81/1 75/75/1
f 82/82/1 81/81/1 80/80/1
f 78/78/1 83/83/1 79/79/1
f 84/84/1 83/83/1 78/78/1
f 82/82/1 85/85/1 81/81/1
f 86/86/1 85/85/1 82/82/1
f 84/84/1 87/87/1 83/83/1
f 88/88/1 87/87/1 84/84/1
f 89/89/1 85/85/1 86/86/1
f 88/88/1 89/89/1 87/87/1
f 89/89/1 90/90/1 85/85/1
f 88/88/1 90/90/1 89/89/1
f 91/91/1 90/90/1 88/88/1
f 91/91/1 92/92/1 90/90/1
f 93/93/1 92/92/1 91/91/1
f 93/93/1 94/94/1 92/92/1
f 95/95/1 94/94/1 93/93/1
f 95/95/1 96/96/1 94/94/1
f 97/97/1 96/96/1 95/95/1
f 97/97/1 98/98/1 96/96/1
f 99/99/1 98/98/1 97/97/1
f 99/99/1 100/100/1 98/98/1
f 101/101/1 100/100/1 99/99/1
f 101/101/1 102/102/1 100/100/1
f 103/103/1 102/102/1 101/101/1
f 103/103/1 104/104/1 102/102/1
f 105/105/1 106/106/1 103/103/1
f 106/106/1 104/104/1 103/103/1
f 106/106/1 107/107/1 104/104/1
f 105/105/1 108/108/1 106/106/1
f 109/109/1 107/107/1 106/106/1
f 110/110/1 108/108/1 105/105/1
f 111/111/1 107/107/1 109/109/1
f 110/110/1 112/112/1 108/108/1
f 111/111/1 113/113/1 107/107/1
f 114/114/1 113/113/1 111/111/1
f 110/110/1 115/115/1 112/112/1
f 116/116/1 115/115/1 110/110/1
f 114/114/1 117/117/1 113/113/1
f 118/118/1 117/117/1 114/114/1
f 116/116/1 119/119/1 115/115/1
f 120/120/1 119/119/1 116/116/1
f 121/121/1 117/117/1 118/118/1
f 120/120/1 122/122/1 119/119/1
f 121/121/1 123/123/1 117/117/1
f 124/124/1 123/123/1 121/121/1
f 120/120/1 125/125/1 122/122/1
f 126/126/1 125/125/1 120/120/1
f 124/124/1 127/127/1 123/123/1
f 126/126/1 128/128/1 125/125/1
f 129/129/1 127/127/1 124/124/1
f 130/130/1 128/128/1 126/126/1
f 130/130/1 131/131/1 128/128/1
f 132/132/1 127/127/1 129/129/1
f 132/132/1 133/133/1 127/127/1
f 130/130/1 134/134/1 131/131/1
f 135/135/1 134/134/1 130/130/1
f 136/136/1 133/133/1 132/132/1
f 136/136/1 137/137/1 133/133/1
f 135/135/1 138/138/1 134/134/1
f 139/139/1 137/137/1 136/136/1
f 140/140/1 138/138/1 135/135/1
f 140/140/1 141/141/1 138/138/1
f 142/142/1 137/137/1 139/139/1
f 142/142/1 143/143/1 137/137/1
f 144/144/1 141/141/1 140/140/1
f 144/144/1 145/145/1 141/141/1
f 146/146/1 143/143/1 142/142/1
f 146/146/1 147/147/1 143/143/1
f 144/144/1 148/148/1 145/145/1
f 149/149/1 148/148/1 144/144/1
f 150/150/1 147/147/1 146/146/1
f 149/149/1 151/151/1 148/148/1
f 150/150/1 152/152/1 147/147/1
f 153/153/1 152/152/1 150/150/1
f 154/154/1 151/151/1 149/149/1
f 154/154/1 155/155/1 151/151/1
f 156/156/1 152/152/1 153/153/1
f 154/154/1 157/157/1 155/155/1
f 156/156/1 158/158/1 152/152/1
f 159/159/1 158/158/1 156/156/1
f 160/160/1 157/157/1 154/154/1
f 160/160/1 161/161/1 157/157/1
f 162/162/1 158/158/1 159/159/1
f 162/162/1 163/163/1 158/158/1
f 160/160/1 164/164/1 161/161/1
f 165/165/1 164/164/1 160/160/1
f 166/166/1 163/163/1 162/162/1
f 165/165/1 167/167/1 164/164/1
f 168/168/1 163/163/1 166/166/1
f 168/168/1 169/169/1 163/163/1
f 165/165/1 170/170/1 167/167/1
f 171/171/1 169/169/1 168/168/1
f 172/172/1 170/170/1 165/165/1
f 172/172/1 173/173/1 170/170/1
f 174/174/1 169/169/1 171/171/1
f 172/172/1 175/175/1 173/173/1
f 176/176/1 169/169/1 174/174/1
f 176/176/1 177/177/1 169/169/1
f 172/172/1 178/178/1 175/175/1
f 179/179/1 177/177/1 176/176/1
f 172/172/1 180/180/1 178/178/1
f 180/180/1 177/177/1 179/179/1
f 181/181/1 180/180/1 172/172/1
f 181/181/1 177/177/1 180/180/1
f 181/181/1 182/182/1 177/177/1
f 183/183/1 182/182/1 181/181/1
f 183/183/1 184/184/1 182/182/1
f 185/185/1 184/184/1 183/183/1
f 185/185/1 186/186/1 184/184/1
f 187/187/1 186/186/1 185/185/1
f 187/187/1 188/188/1 186/186/1
f 189/189/1 188/188/1 187/187/1
f 189/189/1 190/190/1 188/188/1
f 191/191/1 190/190/1 189/189/1
f 191/191/1 192/192/1 190/190/1
