# Blender v2.76 (sub 0) OBJ File: ''
# www.blender.org
mtllib A.mtl
o Text.001
v -0.051763 0.000000 -0.557779
v 0.039964 0.000000 -0.608257
v -0.035265 0.000000 -0.608257
v 0.056250 0.000000 -0.558410
v 0.072091 0.000000 -0.508410
v -0.067783 0.000000 -0.507263
v -0.000403 0.000000 -0.524771
v -0.007861 0.000000 -0.499933
v 0.006862 0.000000 -0.500458
v 0.087498 0.000000 -0.458257
v -0.083345 0.000000 -0.456709
v 0.013987 0.000000 -0.476143
v -0.015112 0.000000 -0.475378
v 0.020984 0.000000 -0.451821
v -0.022178 0.000000 -0.451046
v 0.102485 0.000000 -0.407951
v -0.098466 0.000000 -0.406116
v 0.027867 0.000000 -0.427489
v -0.029081 0.000000 -0.426877
v 0.034648 0.000000 -0.403145
v -0.035845 0.000000 -0.402810
v 0.117064 0.000000 -0.357492
v -0.113168 0.000000 -0.355485
v 0.041340 0.000000 -0.378784
v -0.042490 0.000000 -0.378784
v 0.047955 0.000000 -0.354405
v -0.049040 0.000000 -0.354739
v 0.131248 0.000000 -0.306881
v -0.127467 0.000000 -0.304817
v -0.055517 0.000000 -0.330615
v 0.054507 0.000000 -0.330003
v -0.061943 0.000000 -0.306350
v 0.061007 0.000000 -0.305576
v 0.145050 0.000000 -0.256116
v -0.068340 0.000000 -0.281885
v 0.067470 0.000000 -0.281120
v -0.141385 0.000000 -0.254109
v -0.074730 0.000000 -0.257158
v 0.073907 0.000000 -0.256633
v -0.081137 0.000000 -0.232110
v 0.080331 0.000000 -0.232110
v 0.158482 0.000000 -0.205199
v -0.154939 0.000000 -0.203364
v 0.095010 0.000000 -0.172477
v 0.171558 0.000000 -0.154128
v -0.168150 0.000000 -0.152580
v -0.096733 0.000000 -0.172477
v -0.100173 0.000000 -0.157993
v 0.098624 0.000000 -0.158063
v 0.102137 0.000000 -0.143710
v -0.103606 0.000000 -0.143455
v 0.184289 0.000000 -0.102905
v -0.181035 0.000000 -0.101758
v 0.105560 0.000000 -0.129401
v -0.107026 0.000000 -0.128885
v 0.108907 0.000000 -0.115121
v -0.110427 0.000000 -0.114305
v 0.112190 0.000000 -0.100853
v -0.113803 0.000000 -0.099738
v 0.196690 0.000000 -0.051529
v -0.193615 0.000000 -0.050898
v 0.115423 0.000000 -0.086583
v -0.117146 0.000000 -0.085206
v 0.118617 0.000000 -0.072293
v -0.120452 0.000000 -0.070732
v 0.121785 0.000000 -0.057968
v -0.123713 0.000000 -0.056337
v 0.124941 0.000000 -0.043592
v -0.126923 0.000000 -0.042044
v 0.208771 0.000000 0.000000
v -0.205908 0.000000 0.000000
v 0.128097 0.000000 -0.029150
v -0.130075 0.000000 -0.027875
v 0.131265 0.000000 -0.014624
v -0.133164 0.000000 -0.013853
v 0.134459 0.000000 0.000000
v -0.136183 0.000000 0.000000
vt 0.428336 0.083057
vt 0.277558 0.000083
vt 0.401217 0.000083
vt 0.250788 0.082020
vt 0.224749 0.164209
vt 0.454670 0.166093
vt 0.343913 0.137314
vt 0.356172 0.178142
vt 0.331971 0.177279
vt 0.199424 0.246649
vt 0.480251 0.249192
vt 0.320259 0.217248
vt 0.368091 0.218505
vt 0.308758 0.257228
vt 0.379706 0.258501
vt 0.174789 0.329340
vt 0.505106 0.332355
vt 0.297444 0.297224
vt 0.391053 0.298229
vt 0.286298 0.337240
vt 0.402172 0.337790
vt 0.150825 0.412283
vt 0.529274 0.415581
vt 0.275298 0.377284
vt 0.413095 0.377283
vt 0.264425 0.417357
vt 0.423862 0.416808
vt 0.127510 0.495476
vt 0.552778 0.498867
vt 0.434509 0.456462
vt 0.253655 0.457469
vt 0.445072 0.496348
vt 0.242970 0.497621
vt 0.104823 0.578922
vt 0.455587 0.536563
vt 0.232347 0.537821
vt 0.575656 0.582219
vt 0.466091 0.577208
vt 0.221766 0.578072
vt 0.476623 0.618381
vt 0.211207 0.618382
vt 0.082745 0.662618
vt 0.597936 0.665633
vt 0.187078 0.716405
vt 0.061251 0.746567
vt 0.619653 0.749110
vt 0.502259 0.716404
vt 0.507914 0.740213
vt 0.181137 0.740098
vt 0.175363 0.763691
vt 0.513557 0.764110
vt 0.040325 0.830766
vt 0.640833 0.832650
vt 0.169736 0.787212
vt 0.519179 0.788059
vt 0.164235 0.810685
vt 0.524769 0.812026
vt 0.158839 0.834138
vt 0.530319 0.835971
vt 0.019941 0.915216
vt 0.661512 0.916252
vt 0.153524 0.857595
vt 0.535814 0.859858
vt 0.148274 0.881084
vt 0.541248 0.883650
vt 0.143067 0.904631
vt 0.546609 0.907312
vt 0.137879 0.928262
vt 0.551885 0.930807
vt 0.000083 0.999918
vt 0.681719 0.999917
vt 0.132692 0.952001
vt 0.557066 0.954097
vt 0.127484 0.975879
vt 0.562144 0.977146
vt 0.122234 0.999917
vt 0.567107 0.999918
vn 0.000000 1.000000 0.000000
usemtl None.002
s 1
f 1/1/1 2/2/1 3/3/1
f 1/1/1 4/4/1 2/2/1
f 1/1/1 5/5/1 4/4/1
f 6/6/1 7/7/1 1/1/1
f 7/7/1 5/5/1 1/1/1
f 6/6/1 8/8/1 7/7/1
f 9/9/1 5/5/1 7/7/1
f 9/9/1 10/10/1 5/5/1
f 11/11/1 8/8/1 6/6/1
f 12/12/1 10/10/1 9/9/1
f 11/11/1 13/13/1 8/8/1
f 14/14/1 10/10/1 12/12/1
f 11/11/1 15/15/1 13/13/1
f 14/14/1 16/16/1 10/10/1
f 17/17/1 15/15/1 11/11/1
f 18/18/1 16/16/1 14/14/1
f 17/17/1 19/19/1 15/15/1
f 20/20/1 16/16/1 18/18/1
f 17/17/1 21/21/1 19/19/1
f 20/20/1 22/22/1 16/16/1
f 23/23/1 21/21/1 17/17/1
f 24/24/1 22/22/1 20/20/1
f 23/23/1 25/25/1 21/21/1
f 26/26/1 22/22/1 24/24/1
f 23/23/1 27/27/1 25/25/1
f 26/26/1 28/28/1 22/22/1
f 29/29/1 27/27/1 23/23/1
f 29/29/1 30/30/1 27/27/1
f 31/31/1 28/28/1 26/26/1
f 29/29/1 32/32/1 30/30/1
f 33/33/1 28/28/1 31/31/1
f 33/33/1 34/34/1 28/28/1
f 29/29/1 35/35/1 32/32/1
f 36/36/1 34/34/1 33/33/1
f 37/37/1 35/35/1 29/29/1
f 37/37/1 38/38/1 35/35/1
f 39/39/1 34/34/1 36/36/1
f 37/37/1 40/40/1 38/38/1
f 41/41/1 34/34/1 39/39/1
f 41/41/1 42/42/1 34/34/1
f 43/43/1 40/40/1 37/37/1
f 43/43/1 41/41/1 40/40/1
f 43/43/1 42/42/1 41/41/1
f 43/43/1 44/44/1 42/42/1
f 44/44/1 45/45/1 42/42/1
f 46/46/1 47/47/1 43/43/1
f 47/47/1 44/44/1 43/43/1
f 46/46/1 48/48/1 47/47/1
f 49/49/1 45/45/1 44/44/1
f 50/50/1 45/45/1 49/49/1
f 46/46/1 51/51/1 48/48/1
f 50/50/1 52/52/1 45/45/1
f 53/53/1 51/51/1 46/46/1
f 54/54/1 52/52/1 50/50/1
f 53/53/1 55/55/1 51/51/1
f 56/56/1 52/52/1 54/54/1
f 53/53/1 57/57/1 55/55/1
f 58/58/1 52/52/1 56/56/1
f 53/53/1 59/59/1 57/57/1
f 58/58/1 60/60/1 52/52/1
f 61/61/1 59/59/1 53/53/1
f 62/62/1 60/60/1 58/58/1
f 61/61/1 63/63/1 59/59/1
f 64/64/1 60/60/1 62/62/1
f 61/61/1 65/65/1 63/63/1
f 66/66/1 60/60/1 64/64/1
f 61/61/1 67/67/1 65/65/1
f 68/68/1 60/60/1 66/66/1
f 61/61/1 69/69/1 67/67/1
f 68/68/1 70/70/1 60/60/1
f 71/71/1 69/69/1 61/61/1
f 72/72/1 70/70/1 68/68/1
f 71/71/1 73/73/1 69/69/1
f 74/74/1 70/70/1 72/72/1
f 71/71/1 75/75/1 73/73/1
f 76/76/1 70/70/1 74/74/1
f 71/71/1 77/77/1 75/75/1
