# Blender v2.76 (sub 0) OBJ File: ''
# www.blender.org
mtllib B.mtl
o Text_Text.001
v -0.159532 -0.000000 0.000812
v -0.086137 0.000000 -0.547812
v -0.159532 0.000000 -0.607445
v -0.014578 0.000000 -0.607445
v 0.014822 0.000000 -0.606290
v 0.041564 0.000000 -0.602862
v 0.065669 0.000000 -0.597225
v 0.087155 0.000000 -0.589437
v 0.106042 0.000000 -0.579559
v 0.122349 0.000000 -0.567652
v 0.136095 0.000000 -0.553776
v -0.026504 0.000000 -0.547812
v -0.006656 0.000000 -0.547160
v 0.147298 0.000000 -0.537992
v -0.086137 0.000000 -0.348730
v 0.011183 0.000000 -0.545192
v 0.027065 0.000000 -0.541892
v 0.041046 0.000000 -0.537245
v 0.155979 0.000000 -0.520361
v 0.053179 0.000000 -0.531234
v 0.063519 0.000000 -0.523844
v 0.072119 0.000000 -0.515059
v 0.162155 0.000000 -0.500943
v 0.079034 0.000000 -0.504863
v 0.084319 0.000000 -0.493240
v 0.165847 0.000000 -0.479798
v 0.088026 0.000000 -0.480173
v 0.090211 0.000000 -0.465648
v 0.167074 0.000000 -0.456987
v 0.090927 0.000000 -0.449647
v 0.166299 0.000000 -0.441159
v 0.090089 0.000000 -0.435713
v 0.164007 0.000000 -0.426240
v 0.087584 0.000000 -0.422422
v 0.160250 0.000000 -0.412219
v 0.083430 0.000000 -0.409882
v 0.155079 0.000000 -0.399087
v 0.077641 0.000000 -0.398203
v 0.148545 0.000000 -0.386833
v 0.070234 0.000000 -0.387492
v 0.061225 0.000000 -0.377858
v 0.140698 0.000000 -0.375450
v 0.050630 0.000000 -0.369409
v 0.131589 0.000000 -0.364927
v 0.038464 0.000000 -0.362253
v 0.121270 0.000000 -0.355254
v 0.024743 0.000000 -0.356499
v 0.009484 0.000000 -0.352255
v 0.109792 0.000000 -0.346422
v -0.007298 0.000000 -0.349629
v -0.025587 0.000000 -0.348730
v -0.086137 0.000000 -0.289097
v 0.097205 0.000000 -0.338421
v 0.083560 0.000000 -0.331243
v 0.068909 0.000000 -0.324877
v 0.083469 0.000000 -0.320412
v 0.098084 0.000000 -0.314768
v 0.112501 0.000000 -0.307875
v 0.126469 0.000000 -0.299664
v 0.139736 0.000000 -0.290064
v -0.029256 0.000000 -0.289097
v -0.000019 0.000000 -0.287698
v 0.152051 0.000000 -0.279005
v -0.086137 0.000000 -0.058821
v 0.025055 0.000000 -0.283715
v 0.046274 0.000000 -0.277471
v 0.163161 0.000000 -0.266417
v 0.063948 0.000000 -0.269287
v 0.078385 0.000000 -0.259485
v 0.172816 0.000000 -0.252230
v 0.089895 0.000000 -0.248386
v 0.180764 0.000000 -0.236373
v 0.098786 0.000000 -0.236312
v 0.186752 0.000000 -0.218777
v 0.105368 0.000000 -0.223585
v 0.109949 0.000000 -0.210527
v 0.190529 0.000000 -0.199372
v 0.112839 0.000000 -0.197460
v 0.191844 0.000000 -0.178088
v 0.114347 0.000000 -0.184704
v 0.114780 0.000000 -0.172583
v 0.190528 0.000000 -0.154910
v 0.113830 0.000000 -0.155119
v 0.111000 0.000000 -0.138991
v 0.186514 0.000000 -0.132343
v 0.106323 0.000000 -0.124231
v 0.179703 0.000000 -0.110656
v 0.099830 0.000000 -0.110877
v 0.091552 0.000000 -0.098963
v 0.169996 0.000000 -0.090116
v 0.081523 0.000000 -0.088523
v 0.157295 0.000000 -0.070990
v 0.069774 0.000000 -0.079594
v 0.056337 0.000000 -0.072209
v 0.041242 0.000000 -0.066405
v 0.141500 0.000000 -0.053546
v 0.024524 0.000000 -0.062215
v 0.006212 0.000000 -0.059676
v -0.013660 0.000000 -0.058821
v 0.122514 0.000000 -0.038052
v 0.100237 0.000000 -0.024775
v 0.074571 0.000000 -0.013982
v 0.045417 0.000000 -0.005942
v 0.012675 0.000000 -0.000921
v -0.023752 -0.000000 0.000812
vt 0.370452 0.999920
vt 0.494508 0.143589
vt 0.636538 0.085286
vt 0.408879 0.005373
vt 0.356847 0.000080
vt 0.310200 0.000080
vt 0.268160 0.004800
vt 0.230379 0.013952
vt 0.196684 0.027321
vt 0.166985 0.044725
vt 0.141231 0.065994
vt 0.400242 0.125063
vt 0.369061 0.120912
vt 0.118771 0.091956
vt 0.409170 0.451117
vt 0.340731 0.120134
vt 0.315272 0.120845
vt 0.292415 0.124187
vt 0.099966 0.122088
vt 0.271933 0.130606
vt 0.254000 0.139705
vt 0.238591 0.151552
vt 0.085690 0.156267
vt 0.225511 0.166592
vt 0.214908 0.184324
vt 0.076599 0.193748
vt 0.206638 0.204933
vt 0.200770 0.228138
vt 0.072857 0.233754
vt 0.197117 0.253909
vt 0.074342 0.261753
vt 0.196334 0.276362
vt 0.079187 0.287641
vt 0.198179 0.297719
vt 0.087079 0.311301
vt 0.202411 0.317761
vt 0.097696 0.332666
vt 0.208761 0.336330
vt 0.110712 0.351724
vt 0.216932 0.353345
vt 0.227190 0.368910
vt 0.125515 0.369074
vt 0.238970 0.382895
vt 0.142169 0.384571
vt 0.252039 0.395357
vt 0.160496 0.398344
vt 0.266153 0.406413
vt 0.282320 0.416225
vt 0.180105 0.411518
vt 0.299541 0.424803
vt 0.326312 0.433554
vt 0.378005 0.533179
vt 0.203786 0.432651
vt 0.229287 0.452782
vt 0.257137 0.472486
vt 0.261035 0.483089
vt 0.265423 0.493120
vt 0.270376 0.502630
vt 0.275948 0.511647
vt 0.282176 0.520176
vt 0.289482 0.529941
vt 0.276385 0.534805
vt 0.255987 0.513349
vt 0.298235 0.870978
vt 0.264241 0.537944
vt 0.254734 0.541567
vt 0.231593 0.505727
vt 0.244504 0.544721
vt 0.235193 0.548999
vt 0.206581 0.498489
vt 0.224385 0.553746
vt 0.179754 0.495545
vt 0.212408 0.559677
vt 0.151317 0.497942
vt 0.199694 0.567166
vt 0.187288 0.576535
vt 0.121221 0.506249
vt 0.174907 0.587289
vt 0.090637 0.522435
vt 0.163034 0.599044
vt 0.152294 0.611582
vt 0.060566 0.547253
vt 0.137169 0.631064
vt 0.125076 0.651783
vt 0.034997 0.578454
vt 0.116451 0.673001
vt 0.015669 0.614688
vt 0.111519 0.694179
vt 0.110211 0.715595
vt 0.003763 0.654706
vt 0.112858 0.735743
vt 0.000080 0.697121
vt 0.119139 0.754124
vt 0.128772 0.771851
vt 0.141574 0.788878
vt 0.004103 0.739124
vt 0.157338 0.803665
vt 0.176055 0.817578
vt 0.205110 0.834529
vt 0.018095 0.775966
vt 0.038180 0.812068
vt 0.064624 0.847082
vt 0.097662 0.880660
vt 0.137475 0.912482
vt 0.219425 0.959601
vn 0.000000 1.000000 0.000000
usemtl None
s 1
f 1/1/1 2/2/1 3/3/1
f 2/2/1 4/4/1 3/3/1
f 2/2/1 5/5/1 4/4/1
f 2/2/1 6/6/1 5/5/1
f 2/2/1 7/7/1 6/6/1
f 2/2/1 8/8/1 7/7/1
f 2/2/1 9/9/1 8/8/1
f 2/2/1 10/10/1 9/9/1
f 2/2/1 11/11/1 10/10/1
f 2/2/1 12/12/1 11/11/1
f 12/12/1 13/13/1 11/11/1
f 13/13/1 14/14/1 11/11/1
f 1/1/1 15/15/1 2/2/1
f 16/16/1 14/14/1 13/13/1
f 17/17/1 14/14/1 16/16/1
f 18/18/1 14/14/1 17/17/1
f 18/18/1 19/19/1 14/14/1
f 20/20/1 19/19/1 18/18/1
f 21/21/1 19/19/1 20/20/1
f 22/22/1 19/19/1 21/21/1
f 22/22/1 23/23/1 19/19/1
f 24/24/1 23/23/1 22/22/1
f 25/25/1 23/23/1 24/24/1
f 25/25/1 26/26/1 23/23/1
f 27/27/1 26/26/1 25/25/1
f 28/28/1 26/26/1 27/27/1
f 28/28/1 29/29/1 26/26/1
f 30/30/1 29/29/1 28/28/1
f 30/30/1 31/31/1 29/29/1
f 32/32/1 31/31/1 30/30/1
f 32/32/1 33/33/1 31/31/1
f 34/34/1 33/33/1 32/32/1
f 34/34/1 35/35/1 33/33/1
f 36/36/1 35/35/1 34/34/1
f 36/36/1 37/37/1 35/35/1
f 38/38/1 37/37/1 36/36/1
f 38/38/1 39/39/1 37/37/1
f 40/40/1 39/39/1 38/38/1
f 41/41/1 39/39/1 40/40/1
f 41/41/1 42/42/1 39/39/1
f 43/43/1 42/42/1 41/41/1
f 43/43/1 44/44/1 42/42/1
f 45/45/1 44/44/1 43/43/1
f 45/45/1 46/46/1 44/44/1
f 47/47/1 46/46/1 45/45/1
f 48/48/1 46/46/1 47/47/1
f 48/48/1 49/49/1 46/46/1
f 50/50/1 49/49/1 48/48/1
f 51/51/1 49/49/1 50/50/1
f 1/1/1 52/52/1 15/15/1
f 52/52/1 51/51/1 15/15/1
f 52/52/1 49/49/1 51/51/1
f 52/52/1 53/53/1 49/49/1
f 52/52/1 54/54/1 53/53/1
f 52/52/1 55/55/1 54/54/1
f 52/52/1 56/56/1 55/55/1
f 52/52/1 57/57/1 56/56/1
f 52/52/1 58/58/1 57/57/1
f 52/52/1 59/59/1 58/58/1
f 52/52/1 60/60/1 59/59/1
f 52/52/1 61/61/1 60/60/1
f 61/61/1 62/62/1 60/60/1
f 62/62/1 63/63/1 60/60/1
f 1/1/1 64/64/1 52/52/1
f 65/65/1 63/63/1 62/62/1
f 66/66/1 63/63/1 65/65/1
f 66/66/1 67/67/1 63/63/1
f 68/68/1 67/67/1 66/66/1
f 69/69/1 67/67/1 68/68/1
f 69/69/1 70/70/1 67/67/1
f 71/71/1 70/70/1 69/69/1
f 71/71/1 72/72/1 70/70/1
f 73/73/1 72/72/1 71/71/1
f 73/73/1 74/74/1 72/72/1
f 75/75/1 74/74/1 73/73/1
f 76/76/1 74/74/1 75/75/1
f 76/76/1 77/77/1 74/74/1
f 78/78/1 77/77/1 76/76/1
f 78/78/1 79/79/1 77/77/1
f 80/80/1 79/79/1 78/78/1
f 81/81/1 79/79/1 80/80/1
f 81/81/1 82/82/1 79/79/1
f 83/83/1 82/82/1 81/81/1
f 84/84/1 82/82/1 83/83/1
f 84/84/1 85/85/1 82/82/1
f 86/86/1 85/85/1 84/84/1
f 86/86/1 87/87/1 85/85/1
f 88/88/1 87/87/1 86/86/1
f 89/89/1 87/87/1 88/88/1
f 89/89/1 90/90/1 87/87/1
f 91/91/1 90/90/1 89/89/1
f 91/91/1 92/92/1 90/90/1
f 93/93/1 92/92/1 91/91/1
f 94/94/1 92/92/1 93/93/1
f 95/95/1 92/92/1 94/94/1
f 95/95/1 96/96/1 92/92/1
f 97/97/1 96/96/1 95/95/1
f 98/98/1 96/96/1 97/97/1
f 99/99/1 96/96/1 98/98/1
f 1/1/1 99/99/1 64/64/1
f 1/1/1 96/96/1 99/99/1
f 1/1/1 100/100/1 96/96/1
f 1/1/1 101/101/1 100/100/1
f 1/1/1 102/102/1 101/101/1
f 1/1/1 103/103/1 102/102/1
f 1/1/1 104/104/1 103/103/1
f 1/1/1 105/105/1 104/104/1
