# Blender v2.76 (sub 0) OBJ File: ''
# www.blender.org
mtllib C.mtl
o Text_Text.010
v -0.004717 0.000000 -0.614275
v 0.055755 0.000000 -0.615142
v 0.028542 0.000000 -0.616620
v 0.080496 0.000000 -0.610763
v -0.035619 0.000000 -0.607267
v 0.102739 0.000000 -0.603561
v -0.064061 0.000000 -0.595634
v 0.122460 0.000000 -0.593616
v -0.089943 0.000000 -0.579413
v 0.139632 0.000000 -0.581008
v 0.154230 0.000000 -0.565817
v -0.113161 0.000000 -0.558643
v 0.023037 0.000000 -0.556987
v 0.040473 0.000000 -0.556028
v 0.166229 0.000000 -0.548122
v -0.133614 0.000000 -0.533363
v 0.001424 0.000000 -0.555139
v 0.056103 0.000000 -0.553143
v -0.018443 0.000000 -0.549622
v 0.069955 0.000000 -0.548314
v -0.036539 0.000000 -0.540473
v 0.082059 0.000000 -0.541526
v 0.175603 0.000000 -0.528003
v 0.092442 0.000000 -0.532763
v -0.052838 0.000000 -0.527731
v -0.151200 0.000000 -0.503610
v 0.101133 0.000000 -0.522009
v 0.182326 0.000000 -0.505539
v -0.067315 0.000000 -0.511434
v 0.108162 0.000000 -0.509249
v -0.079944 0.000000 -0.491620
v 0.113557 0.000000 -0.494465
v 0.186374 0.000000 -0.480810
v -0.165818 0.000000 -0.469423
v 0.117346 0.000000 -0.477643
v -0.090701 0.000000 -0.468327
v 0.187720 0.000000 -0.453896
v 0.119559 0.000000 -0.458766
v -0.177364 0.000000 -0.430840
v -0.099559 0.000000 -0.441594
v 0.120223 0.000000 -0.437819
v 0.186340 0.000000 -0.424877
v -0.106493 0.000000 -0.411459
v 0.119367 0.000000 -0.414785
v -0.185738 0.000000 -0.387899
v -0.111477 0.000000 -0.377960
v -0.190837 0.000000 -0.340638
v -0.114486 0.000000 -0.341135
v -0.115495 0.000000 -0.301023
v -0.192559 0.000000 -0.289097
v -0.114454 0.000000 -0.256376
v -0.190988 0.000000 -0.238885
v -0.111371 0.000000 -0.216781
v -0.186333 0.000000 -0.193675
v -0.106306 0.000000 -0.182015
v -0.178683 0.000000 -0.153346
v 0.136666 0.000000 -0.166438
v 0.206523 0.000000 -0.190014
v 0.140468 0.000000 -0.190014
v 0.201872 0.000000 -0.156978
v -0.099321 0.000000 -0.151856
v 0.131685 0.000000 -0.145213
v 0.194465 0.000000 -0.127098
v -0.168128 0.000000 -0.117775
v -0.090475 0.000000 -0.126080
v 0.125531 0.000000 -0.126281
v 0.184491 0.000000 -0.100321
v 0.118212 0.000000 -0.109586
v -0.079830 0.000000 -0.104464
v -0.154758 0.000000 -0.086842
v 0.109733 0.000000 -0.095070
v -0.067445 0.000000 -0.086785
v 0.172137 0.000000 -0.076592
v 0.100101 0.000000 -0.082675
v -0.138660 0.000000 -0.060427
v -0.053381 0.000000 -0.072821
v 0.089323 0.000000 -0.072344
v 0.157591 0.000000 -0.055858
v -0.037700 0.000000 -0.062348
v 0.077403 0.000000 -0.064020
v 0.064350 0.000000 -0.057646
v -0.020460 0.000000 -0.055143
v -0.119925 0.000000 -0.038408
v 0.050169 0.000000 -0.053164
v 0.141042 0.000000 -0.038065
v -0.001723 0.000000 -0.050984
v 0.034867 0.000000 -0.050517
v 0.018450 0.000000 -0.049647
v -0.098641 0.000000 -0.020663
v 0.122677 0.000000 -0.023157
v 0.102684 0.000000 -0.011081
v -0.074899 0.000000 -0.007073
v 0.081251 0.000000 -0.001783
v -0.048786 -0.000000 0.002485
v 0.058566 -0.000000 0.004791
v -0.020392 -0.000000 0.008131
v 0.034818 -0.000000 0.008696
v 0.010193 -0.000000 0.009986
vt 0.359402 0.005590
vt 0.263046 0.000987
vt 0.306507 0.000080
vt 0.223372 0.006649
vt 0.408291 0.018408
vt 0.187530 0.016945
vt 0.453011 0.038468
vt 0.155563 0.031748
vt 0.493407 0.065705
vt 0.127516 0.050933
vt 0.103436 0.074372
vt 0.529314 0.100053
vt 0.312114 0.095438
vt 0.284266 0.096038
vt 0.083364 0.101942
vt 0.560571 0.141441
vt 0.346471 0.099535
vt 0.259197 0.099845
vt 0.377845 0.109387
vt 0.236856 0.106800
vt 0.406205 0.124936
vt 0.217195 0.116972
vt 0.067341 0.133513
vt 0.200173 0.130385
vt 0.431508 0.146116
vt 0.587020 0.189806
vt 0.185741 0.147063
vt 0.055418 0.168965
vt 0.453717 0.172866
vt 0.173851 0.167028
vt 0.472793 0.205123
vt 0.164457 0.190308
vt 0.047638 0.208172
vt 0.608501 0.245082
vt 0.157514 0.216923
vt 0.488700 0.242827
vt 0.044049 0.251006
vt 0.152974 0.246898
vt 0.624851 0.307201
vt 0.501396 0.285914
vt 0.150792 0.280257
vt 0.044692 0.297343
vt 0.510844 0.334321
vt 0.150921 0.317024
vt 0.635912 0.376098
vt 0.517005 0.387986
vt 0.641523 0.451707
vt 0.519840 0.446848
vt 0.519312 0.510843
vt 0.641522 0.533959
vt 0.515274 0.581959
vt 0.636343 0.613918
vt 0.508250 0.644912
vt 0.626514 0.685738
vt 0.498324 0.700062
vt 0.612172 0.749618
vt 0.110183 0.711946
vt 0.000080 0.670642
vt 0.105378 0.674161
vt 0.005734 0.723552
vt 0.485583 0.747766
vt 0.116992 0.746047
vt 0.015950 0.771579
vt 0.593451 0.805759
vt 0.470109 0.788383
vt 0.125794 0.776554
vt 0.030422 0.814795
vt 0.136572 0.803558
vt 0.451988 0.822274
vt 0.570491 0.854356
vt 0.149315 0.827149
vt 0.431304 0.849796
vt 0.048852 0.853280
vt 0.164009 0.847421
vt 0.543422 0.895606
vt 0.408141 0.871306
vt 0.180639 0.864464
vt 0.070935 0.887107
vt 0.382587 0.887166
vt 0.199197 0.878368
vt 0.219666 0.889225
vt 0.354721 0.897733
vt 0.512384 0.929708
vt 0.242032 0.897125
vt 0.096368 0.916353
vt 0.324632 0.903364
vt 0.266284 0.902160
vt 0.292405 0.904421
vt 0.477510 0.956861
vt 0.124848 0.941095
vt 0.156075 0.961410
vt 0.438940 0.977260
vt 0.189746 0.977374
vt 0.396805 0.991105
vt 0.225557 0.989062
vt 0.351242 0.998592
vt 0.263205 0.996552
vt 0.302389 0.999920
vn 0.000000 1.000000 0.000000
usemtl None.025
s 1
f 1/1/1 2/2/1 3/3/1
f 1/1/1 4/4/1 2/2/1
f 5/5/1 4/4/1 1/1/1
f 5/5/1 6/6/1 4/4/1
f 7/7/1 6/6/1 5/5/1
f 7/7/1 8/8/1 6/6/1
f 9/9/1 8/8/1 7/7/1
f 9/9/1 10/10/1 8/8/1
f 9/9/1 11/11/1 10/10/1
f 12/12/1 11/11/1 9/9/1
f 12/12/1 13/13/1 11/11/1
f 13/13/1 14/14/1 11/11/1
f 14/14/1 15/15/1 11/11/1
f 16/16/1 17/17/1 12/12/1
f 17/17/1 13/13/1 12/12/1
f 18/18/1 15/15/1 14/14/1
f 16/16/1 19/19/1 17/17/1
f 20/20/1 15/15/1 18/18/1
f 16/16/1 21/21/1 19/19/1
f 22/22/1 15/15/1 20/20/1
f 22/22/1 23/23/1 15/15/1
f 24/24/1 23/23/1 22/22/1
f 16/16/1 25/25/1 21/21/1
f 26/26/1 25/25/1 16/16/1
f 27/27/1 23/23/1 24/24/1
f 27/27/1 28/28/1 23/23/1
f 26/26/1 29/29/1 25/25/1
f 30/30/1 28/28/1 27/27/1
f 26/26/1 31/31/1 29/29/1
f 32/32/1 28/28/1 30/30/1
f 32/32/1 33/33/1 28/28/1
f 34/34/1 31/31/1 26/26/1
f 35/35/1 33/33/1 32/32/1
f 34/34/1 36/36/1 31/31/1
f 35/35/1 37/37/1 33/33/1
f 38/38/1 37/37/1 35/35/1
f 39/39/1 36/36/1 34/34/1
f 39/39/1 40/40/1 36/36/1
f 41/41/1 37/37/1 38/38/1
f 41/41/1 42/42/1 37/37/1
f 39/39/1 43/43/1 40/40/1
f 44/44/1 42/42/1 41/41/1
f 45/45/1 43/43/1 39/39/1
f 45/45/1 46/46/1 43/43/1
f 47/47/1 46/46/1 45/45/1
f 47/47/1 48/48/1 46/46/1
f 47/47/1 49/49/1 48/48/1
f 50/50/1 49/49/1 47/47/1
f 50/50/1 51/51/1 49/49/1
f 52/52/1 51/51/1 50/50/1
f 52/52/1 53/53/1 51/51/1
f 54/54/1 53/53/1 52/52/1
f 54/54/1 55/55/1 53/53/1
f 56/56/1 55/55/1 54/54/1
f 57/57/1 58/58/1 59/59/1
f 57/57/1 60/60/1 58/58/1
f 56/56/1 61/61/1 55/55/1
f 62/62/1 60/60/1 57/57/1
f 62/62/1 63/63/1 60/60/1
f 64/64/1 61/61/1 56/56/1
f 64/64/1 65/65/1 61/61/1
f 66/66/1 63/63/1 62/62/1
f 66/66/1 67/67/1 63/63/1
f 68/68/1 67/67/1 66/66/1
f 64/64/1 69/69/1 65/65/1
f 70/70/1 69/69/1 64/64/1
f 71/71/1 67/67/1 68/68/1
f 70/70/1 72/72/1 69/69/1
f 71/71/1 73/73/1 67/67/1
f 74/74/1 73/73/1 71/71/1
f 75/75/1 72/72/1 70/70/1
f 75/75/1 76/76/1 72/72/1
f 77/77/1 73/73/1 74/74/1
f 77/77/1 78/78/1 73/73/1
f 75/75/1 79/79/1 76/76/1
f 80/80/1 78/78/1 77/77/1
f 81/81/1 78/78/1 80/80/1
f 75/75/1 82/82/1 79/79/1
f 83/83/1 82/82/1 75/75/1
f 84/84/1 78/78/1 81/81/1
f 84/84/1 85/85/1 78/78/1
f 83/83/1 86/86/1 82/82/1
f 87/87/1 85/85/1 84/84/1
f 83/83/1 88/88/1 86/86/1
f 88/88/1 85/85/1 87/87/1
f 83/83/1 85/85/1 88/88/1
f 89/89/1 85/85/1 83/83/1
f 89/89/1 90/90/1 85/85/1
f 89/89/1 91/91/1 90/90/1
f 92/92/1 91/91/1 89/89/1
f 92/92/1 93/93/1 91/91/1
f 94/94/1 93/93/1 92/92/1
f 94/94/1 95/95/1 93/93/1
f 96/96/1 95/95/1 94/94/1
f 96/96/1 97/97/1 95/95/1
f 98/98/1 97/97/1 96/96/1
