# Blender v2.76 (sub 0) OBJ File: ''
# www.blender.org
mtllib F.mtl
o Text_Text.004
v -0.111367 -0.000000 0.000812
v -0.037972 0.000000 -0.547812
v -0.111367 0.000000 -0.607445
v 0.178542 0.000000 -0.607445
v 0.173037 0.000000 -0.547812
v -0.037972 0.000000 -0.337721
v -0.037972 0.000000 -0.278088
v 0.133588 0.000000 -0.337721
v 0.133588 0.000000 -0.278088
v -0.037972 -0.000000 0.000812
vt 0.476626 0.999931
vt 0.355979 0.098095
vt 0.476627 0.000069
vt 0.000069 0.000069
vt 0.009118 0.098095
vt 0.355979 0.443448
vt 0.355979 0.541472
vt 0.073970 0.443448
vt 0.073970 0.541472
vt 0.355979 0.999931
vn 0.000000 1.000000 0.000000
usemtl None.004
s 1
f 1/1/1 2/2/1 3/3/1
f 2/2/1 4/4/1 3/3/1
f 2/2/1 5/5/1 4/4/1
f 1/1/1 6/6/1 2/2/1
f 1/1/1 7/7/1 6/6/1
f 7/7/1 8/8/1 6/6/1
f 7/7/1 9/9/1 8/8/1
f 1/1/1 10/10/1 7/7/1
