# Blender v2.76 (sub 0) OBJ File: ''
# www.blender.org
mtllib J.mtl
o Text_Text.008
v 0.003771 0.000000 -0.192766
v 0.078083 0.000000 -0.607445
v 0.003771 0.000000 -0.607445
v 0.078083 0.000000 -0.211115
v 0.077490 0.000000 -0.177471
v 0.003450 0.000000 -0.168558
v 0.075556 0.000000 -0.146317
v 0.002429 0.000000 -0.146806
v 0.000617 0.000000 -0.127442
v 0.072048 0.000000 -0.117738
v -0.002073 0.000000 -0.110402
v 0.066734 0.000000 -0.091815
v -0.005732 0.000000 -0.095616
v -0.010449 0.000000 -0.083019
v 0.059381 0.000000 -0.068632
v -0.016313 0.000000 -0.072543
v -0.023412 0.000000 -0.064122
v 0.049757 0.000000 -0.048271
v -0.031837 0.000000 -0.057689
v -0.138431 0.000000 -0.000106
v -0.132257 0.000000 -0.059797
v -0.138431 0.000000 -0.061574
v -0.126118 0.000000 -0.058142
v -0.120010 0.000000 -0.056614
v -0.041676 0.000000 -0.053177
v -0.113932 0.000000 -0.055220
v -0.107879 0.000000 -0.053966
v -0.101848 0.000000 -0.052858
v -0.053018 0.000000 -0.050518
v -0.095837 0.000000 -0.051904
v -0.089841 0.000000 -0.051108
v -0.083858 0.000000 -0.050479
v -0.065954 0.000000 -0.049647
v -0.077885 0.000000 -0.050021
v -0.071918 0.000000 -0.049742
v 0.037630 0.000000 -0.030815
v 0.022765 0.000000 -0.016348
v 0.004932 0.000000 -0.004951
v -0.016102 -0.000000 0.003292
v -0.131628 -0.000000 0.001634
v -0.124984 -0.000000 0.003190
v -0.118505 -0.000000 0.004567
v -0.040571 -0.000000 0.008299
v -0.112199 -0.000000 0.005772
v -0.106071 -0.000000 0.006812
v -0.100128 -0.000000 0.007692
v -0.094376 -0.000000 0.008420
v -0.068706 -0.000000 0.009986
v -0.088822 -0.000000 0.009000
v -0.083471 -0.000000 0.009441
v -0.078331 -0.000000 0.009748
v -0.073407 -0.000000 0.009927
vt 0.134736 0.639280
vt 0.199762 0.000056
vt 0.308726 0.031236
vt 0.033471 0.581195
vt 0.020224 0.630776
vt 0.125050 0.674911
vt 0.009988 0.677269
vt 0.117420 0.707235
vt 0.111952 0.736388
vt 0.003141 0.720646
vt 0.108747 0.762503
vt 0.000056 0.760887
vt 0.107908 0.785719
vt 0.109539 0.806169
vt 0.001111 0.797965
vt 0.113742 0.823990
vt 0.120618 0.839317
vt 0.006679 0.831859
vt 0.130273 0.852285
vt 0.287480 0.999631
vt 0.306061 0.900305
vt 0.316879 0.900388
vt 0.295358 0.900040
vt 0.284766 0.899586
vt 0.142806 0.863029
vt 0.274286 0.898930
vt 0.263913 0.898059
vt 0.253646 0.896964
vt 0.158320 0.871686
vt 0.243485 0.895629
vt 0.233423 0.894046
vt 0.223462 0.892200
vt 0.194158 0.884980
vt 0.213600 0.890083
vt 0.203832 0.887680
vt 0.017910 0.865843
vt 0.034991 0.896309
vt 0.058332 0.923240
vt 0.088350 0.946609
vt 0.275457 0.999944
vt 0.263782 0.999943
vt 0.252457 0.999646
vt 0.125222 0.966847
vt 0.241563 0.999014
vt 0.231044 0.998103
vt 0.220913 0.996936
vt 0.211173 0.995531
vt 0.169307 0.984442
vt 0.201938 0.993698
vt 0.193125 0.991650
vt 0.184740 0.989408
vt 0.180565 0.988283
vn -0.000000 1.000000 0.000000
usemtl None.008
s 1
f 1/1/1 2/2/1 3/3/1
f 1/1/1 4/4/1 2/2/1
f 1/1/1 5/5/1 4/4/1
f 6/6/1 5/5/1 1/1/1
f 6/6/1 7/7/1 5/5/1
f 8/8/1 7/7/1 6/6/1
f 9/9/1 7/7/1 8/8/1
f 9/9/1 10/10/1 7/7/1
f 11/11/1 10/10/1 9/9/1
f 11/11/1 12/12/1 10/10/1
f 13/13/1 12/12/1 11/11/1
f 14/14/1 12/12/1 13/13/1
f 14/14/1 15/15/1 12/12/1
f 16/16/1 15/15/1 14/14/1
f 17/17/1 15/15/1 16/16/1
f 17/17/1 18/18/1 15/15/1
f 19/19/1 18/18/1 17/17/1
f 20/20/1 21/21/1 22/22/1
f 20/20/1 23/23/1 21/21/1
f 20/20/1 24/24/1 23/23/1
f 25/25/1 18/18/1 19/19/1
f 20/20/1 26/26/1 24/24/1
f 20/20/1 27/27/1 26/26/1
f 20/20/1 28/28/1 27/27/1
f 29/29/1 18/18/1 25/25/1
f 20/20/1 30/30/1 28/28/1
f 20/20/1 31/31/1 30/30/1
f 20/20/1 32/32/1 31/31/1
f 33/33/1 18/18/1 29/29/1
f 20/20/1 34/34/1 32/32/1
f 20/20/1 35/35/1 34/34/1
f 20/20/1 33/33/1 35/35/1
f 20/20/1 18/18/1 33/33/1
f 20/20/1 36/36/1 18/18/1
f 20/20/1 37/37/1 36/36/1
f 20/20/1 38/38/1 37/37/1
f 20/20/1 39/39/1 38/38/1
f 40/40/1 39/39/1 20/20/1
f 41/41/1 39/39/1 40/40/1
f 42/42/1 39/39/1 41/41/1
f 42/42/1 43/43/1 39/39/1
f 44/44/1 43/43/1 42/42/1
f 45/45/1 43/43/1 44/44/1
f 46/46/1 43/43/1 45/45/1
f 47/47/1 43/43/1 46/46/1
f 47/47/1 48/48/1 43/43/1
f 49/49/1 48/48/1 47/47/1
f 50/50/1 48/48/1 49/49/1
f 51/51/1 48/48/1 50/50/1
f 52/52/1 48/48/1 51/51/1
