# Blender v2.76 (sub 0) OBJ File: ''
# www.blender.org
mtllib L.mtl
o Text
v -0.096789 0.000000 0.000000
v -0.023394 0.000000 -0.608257
v -0.096789 0.000000 -0.608257
v -0.023394 0.000000 -0.059633
v 0.164679 0.000000 -0.059633
v 0.159174 0.000000 0.000000
vt 0.999929 0.091357
vt 0.000071 0.119390
vt 0.011086 0.000071
vt 0.891969 0.201726
vt 0.863743 0.507476
vt 0.961515 0.507476
vn 0.000000 1.000000 0.000000
usemtl None.010
s 1
f 1/1/1 2/2/1 3/3/1
f 1/1/1 4/4/1 2/2/1
f 1/1/1 5/5/1 4/4/1
f 1/1/1 6/6/1 5/5/1
