# Blender v2.76 (sub 0) OBJ File: ''
# www.blender.org
mtllib M.mtl
o Text.003
v -0.237847 0.000000 -0.557762
v -0.138532 0.000000 -0.608257
v -0.233945 0.000000 -0.608257
v -0.183486 0.000000 -0.533945
v -0.003670 0.000000 -0.126606
v -0.000917 0.000000 -0.126606
v 0.171560 0.000000 -0.533945
v 0.134862 0.000000 -0.608257
v 0.227523 0.000000 -0.608257
v 0.231322 0.000000 -0.557797
v 0.234901 0.000000 -0.507327
v -0.241310 0.000000 -0.507199
v -0.184404 0.000000 -0.465138
v -0.033945 0.000000 0.000000
v 0.022018 0.000000 0.000000
v 0.173395 0.000000 -0.465138
v 0.238231 0.000000 -0.456838
v -0.244352 0.000000 -0.456580
v -0.184986 0.000000 -0.427988
v 0.174290 0.000000 -0.428198
v 0.241284 0.000000 -0.406320
v -0.246993 0.000000 -0.405912
v 0.175132 0.000000 -0.390800
v -0.185776 0.000000 -0.390418
v 0.244032 0.000000 -0.355764
v -0.249251 0.000000 -0.355207
v 0.175903 0.000000 -0.352982
v -0.186712 0.000000 -0.352466
v 0.246445 0.000000 -0.305161
v -0.251147 0.000000 -0.304473
v 0.176589 0.000000 -0.314781
v -0.187734 0.000000 -0.314169
v 0.177172 0.000000 -0.276236
v -0.188781 0.000000 -0.275567
v 0.248495 0.000000 -0.254500
v -0.252698 0.000000 -0.253719
v 0.177638 0.000000 -0.237385
v -0.189794 0.000000 -0.236697
v 0.250153 0.000000 -0.203772
v -0.253925 0.000000 -0.202956
v 0.177969 0.000000 -0.198267
v -0.190710 0.000000 -0.197598
v 0.251390 0.000000 -0.152967
v -0.254845 0.000000 -0.152193
v 0.178152 0.000000 -0.158919
v -0.191471 0.000000 -0.158308
v 0.178168 0.000000 -0.119381
v -0.192015 0.000000 -0.118865
v 0.252179 0.000000 -0.102077
v -0.255479 0.000000 -0.101440
v 0.178003 0.000000 -0.079689
v -0.192283 0.000000 -0.079307
v 0.252490 0.000000 -0.051091
v -0.255845 0.000000 -0.050706
v 0.177640 0.000000 -0.039883
v -0.192212 0.000000 -0.039673
v 0.252294 0.000000 0.000000
v -0.255963 0.000000 0.000000
v 0.177064 0.000000 0.000000
v -0.191743 0.000000 0.000000
vt 0.806078 0.083092
vt 0.642830 0.000091
vt 0.799664 0.000091
vt 0.716723 0.122241
vt 0.421151 0.791801
vt 0.416626 0.791801
vt 0.133117 0.122242
vt 0.193438 0.000093
vt 0.041128 0.000094
vt 0.034884 0.083036
vt 0.029001 0.165995
vt 0.811770 0.166204
vt 0.718232 0.235342
vt 0.470916 0.999908
vt 0.378927 0.999908
vt 0.130101 0.235343
vt 0.023528 0.248986
vt 0.816771 0.249409
vt 0.719188 0.296407
vt 0.128630 0.296062
vt 0.018510 0.332024
vt 0.821112 0.332694
vt 0.127246 0.357534
vt 0.720487 0.358162
vt 0.013993 0.415124
vt 0.824823 0.416040
vt 0.125979 0.419697
vt 0.722025 0.420545
vt 0.010027 0.498302
vt 0.827940 0.499434
vt 0.124851 0.482489
vt 0.723705 0.483496
vt 0.123893 0.545847
vt 0.725426 0.546948
vt 0.006657 0.581575
vt 0.830489 0.582860
vt 0.123127 0.609707
vt 0.727091 0.610840
vt 0.003932 0.664958
vt 0.832506 0.666301
vt 0.122583 0.674007
vt 0.728597 0.675108
vt 0.001899 0.748468
vt 0.834018 0.749743
vt 0.122283 0.738685
vt 0.729848 0.739691
vt 0.122257 0.803674
vt 0.730742 0.804525
vt 0.000602 0.832118
vt 0.835060 0.833167
vt 0.122528 0.868917
vt 0.731183 0.869548
vt 0.000091 0.915925
vt 0.835662 0.916561
vt 0.123125 0.934348
vt 0.731066 0.934696
vt 0.000414 0.999905
vt 0.835856 0.999909
vt 0.124072 0.999905
vt 0.730295 0.999909
vn 0.000000 1.000000 0.000000
usemtl None.003
s 1
f 1/1/1 2/2/1 3/3/1
f 1/1/1 4/4/1 2/2/1
f 4/4/1 5/5/1 2/2/1
f 6/6/1 7/7/1 8/8/1
f 7/7/1 9/9/1 8/8/1
f 7/7/1 10/10/1 9/9/1
f 7/7/1 11/11/1 10/10/1
f 12/12/1 4/4/1 1/1/1
f 12/12/1 13/13/1 4/4/1
f 14/14/1 5/5/1 4/4/1
f 6/6/1 15/15/1 7/7/1
f 16/16/1 11/11/1 7/7/1
f 16/16/1 17/17/1 11/11/1
f 18/18/1 13/13/1 12/12/1
f 18/18/1 19/19/1 13/13/1
f 20/20/1 17/17/1 16/16/1
f 20/20/1 21/21/1 17/17/1
f 22/22/1 19/19/1 18/18/1
f 23/23/1 21/21/1 20/20/1
f 22/22/1 24/24/1 19/19/1
f 23/23/1 25/25/1 21/21/1
f 26/26/1 24/24/1 22/22/1
f 27/27/1 25/25/1 23/23/1
f 26/26/1 28/28/1 24/24/1
f 27/27/1 29/29/1 25/25/1
f 30/30/1 28/28/1 26/26/1
f 31/31/1 29/29/1 27/27/1
f 30/30/1 32/32/1 28/28/1
f 33/33/1 29/29/1 31/31/1
f 30/30/1 34/34/1 32/32/1
f 33/33/1 35/35/1 29/29/1
f 36/36/1 34/34/1 30/30/1
f 37/37/1 35/35/1 33/33/1
f 36/36/1 38/38/1 34/34/1
f 37/37/1 39/39/1 35/35/1
f 40/40/1 38/38/1 36/36/1
f 41/41/1 39/39/1 37/37/1
f 40/40/1 42/42/1 38/38/1
f 41/41/1 43/43/1 39/39/1
f 44/44/1 42/42/1 40/40/1
f 45/45/1 43/43/1 41/41/1
f 44/44/1 46/46/1 42/42/1
f 47/47/1 43/43/1 45/45/1
f 44/44/1 48/48/1 46/46/1
f 47/47/1 49/49/1 43/43/1
f 50/50/1 48/48/1 44/44/1
f 14/14/1 6/6/1 5/5/1
f 14/14/1 15/15/1 6/6/1
f 51/51/1 49/49/1 47/47/1
f 50/50/1 52/52/1 48/48/1
f 51/51/1 53/53/1 49/49/1
f 54/54/1 52/52/1 50/50/1
f 55/55/1 53/53/1 51/51/1
f 54/54/1 56/56/1 52/52/1
f 55/55/1 57/57/1 53/53/1
f 58/58/1 56/56/1 54/54/1
f 59/59/1 57/57/1 55/55/1
f 58/58/1 60/60/1 56/56/1
