# Blender v2.76 (sub 0) OBJ File: ''
# www.blender.org
mtllib S.mtl
o Text.007
v -0.023827 0.000000 -0.616167
v 0.032266 0.000000 -0.616108
v 0.003211 0.000000 -0.617431
v -0.049333 0.000000 -0.612436
v 0.058053 0.000000 -0.612275
v -0.073151 0.000000 -0.606336
v 0.080705 0.000000 -0.606135
v -0.095124 0.000000 -0.597961
v 0.100357 0.000000 -0.597893
v -0.115097 0.000000 -0.587408
v 0.117141 0.000000 -0.587753
v 0.131193 0.000000 -0.575917
v -0.132913 0.000000 -0.574771
v 0.142645 0.000000 -0.562591
v -0.148416 0.000000 -0.560146
v -0.004128 0.000000 -0.557798
v 0.014642 0.000000 -0.556994
v 0.151631 0.000000 -0.547978
v -0.161451 0.000000 -0.543629
v -0.021658 0.000000 -0.556923
v 0.031129 0.000000 -0.554655
v -0.037564 0.000000 -0.554387
v 0.045456 0.000000 -0.550889
v -0.051864 0.000000 -0.550330
v 0.057747 0.000000 -0.545804
v -0.064577 0.000000 -0.544886
v 0.158286 0.000000 -0.532282
v 0.068127 0.000000 -0.539508
v -0.075723 0.000000 -0.538194
v -0.171861 0.000000 -0.525315
v 0.076720 0.000000 -0.532110
v -0.085321 0.000000 -0.530390
v 0.162742 0.000000 -0.515707
v 0.083650 0.000000 -0.523718
v -0.093390 0.000000 -0.521611
v -0.179489 0.000000 -0.505301
v 0.089042 0.000000 -0.514441
v -0.099949 0.000000 -0.511995
v 0.165134 0.000000 -0.498456
v 0.093019 0.000000 -0.504386
v -0.105017 0.000000 -0.501677
v -0.184181 0.000000 -0.483681
v 0.095706 0.000000 -0.493663
v -0.108614 0.000000 -0.490796
v 0.165596 0.000000 -0.480734
v 0.097227 0.000000 -0.482379
v -0.110758 0.000000 -0.479488
v -0.185780 0.000000 -0.460550
v 0.097706 0.000000 -0.470642
v -0.111468 0.000000 -0.467890
v -0.105565 0.000000 -0.432269
v -0.179913 0.000000 -0.412297
v -0.089246 0.000000 -0.404481
v -0.163694 0.000000 -0.374142
v -0.064593 0.000000 -0.382727
v -0.033690 0.000000 -0.365206
v -0.139192 0.000000 -0.344295
v 0.001379 0.000000 -0.350118
v 0.038532 0.000000 -0.335665
v -0.108478 0.000000 -0.320965
v 0.075685 0.000000 -0.320046
v -0.073623 0.000000 -0.302363
v 0.110754 0.000000 -0.301461
v -0.036697 0.000000 -0.286697
v 0.141657 0.000000 -0.278111
v 0.000228 0.000000 -0.272179
v 0.166310 0.000000 -0.248195
v 0.035083 0.000000 -0.257017
v 0.065797 0.000000 -0.239421
v 0.182629 0.000000 -0.209914
v 0.090299 0.000000 -0.217601
v 0.106519 0.000000 -0.189767
v 0.188532 0.000000 -0.161468
v 0.112385 0.000000 -0.154128
v 0.186874 0.000000 -0.137103
v 0.111406 0.000000 -0.138791
v -0.190367 0.000000 -0.142202
v -0.125738 0.000000 -0.138983
v -0.125229 0.000000 -0.151376
v -0.191473 0.000000 -0.120144
v -0.124864 0.000000 -0.126699
v 0.108529 0.000000 -0.124469
v 0.181995 0.000000 -0.114105
v -0.122448 0.000000 -0.114708
v 0.103842 0.000000 -0.111224
v -0.189734 0.000000 -0.099452
v -0.118332 0.000000 -0.103194
v 0.174040 0.000000 -0.092618
v 0.097435 0.000000 -0.099117
v -0.112355 0.000000 -0.092343
v -0.185135 0.000000 -0.080232
v 0.089396 0.000000 -0.088207
v 0.163150 0.000000 -0.072783
v -0.104358 0.000000 -0.082339
v 0.079817 0.000000 -0.078555
v -0.094182 0.000000 -0.073368
v -0.177659 0.000000 -0.062589
v 0.068784 0.000000 -0.070222
v -0.081668 0.000000 -0.065613
v 0.149470 0.000000 -0.054745
v 0.056388 0.000000 -0.063269
v -0.066657 0.000000 -0.059260
v 0.042718 0.000000 -0.057755
v -0.167290 0.000000 -0.046628
v -0.048989 0.000000 -0.054494
v 0.027863 0.000000 -0.053742
v 0.133142 0.000000 -0.038647
v -0.028505 0.000000 -0.051498
v 0.011912 0.000000 -0.051290
v -0.005046 0.000000 -0.050459
v -0.154014 0.000000 -0.032454
v 0.114311 0.000000 -0.024632
v -0.137813 0.000000 -0.020172
v 0.093119 0.000000 -0.012844
v -0.118671 0.000000 -0.009888
v 0.069710 0.000000 -0.003426
v -0.096574 0.000000 -0.001706
v 0.044228 -0.000000 0.003479
v -0.071504 -0.000000 0.004269
v 0.016815 -0.000000 0.007726
v -0.043447 -0.000000 0.007930
v -0.012385 -0.000000 0.009174
vt 0.401327 0.005177
vt 0.286829 0.000084
vt 0.346257 0.000084
vt 0.453042 0.015163
vt 0.233837 0.005511
vt 0.501090 0.029828
vt 0.187030 0.015939
vt 0.545163 0.048965
vt 0.146152 0.030935
vt 0.584949 0.072361
vt 0.110952 0.050072
vt 0.081169 0.072925
vt 0.620140 0.099812
vt 0.056554 0.099062
vt 0.650425 0.131105
vt 0.355706 0.122487
vt 0.317161 0.124052
vt 0.036669 0.127929
vt 0.672685 0.161417
vt 0.423800 0.129002
vt 0.283264 0.128825
vt 0.483992 0.140753
vt 0.253586 0.134781
vt 0.505680 0.147435
vt 0.227903 0.143672
vt 0.524894 0.156179
vt 0.021204 0.159142
vt 0.205973 0.155263
vt 0.541674 0.166773
vt 0.687944 0.189721
vt 0.187555 0.169318
vt 0.556054 0.179011
vt 0.010118 0.192414
vt 0.172409 0.185601
vt 0.568067 0.192685
vt 0.698898 0.220525
vt 0.160293 0.203874
vt 0.577747 0.207584
vt 0.003161 0.227313
vt 0.150970 0.223904
vt 0.585127 0.223504
vt 0.705318 0.253679
vt 0.144198 0.245453
vt 0.590243 0.240232
vt 0.000084 0.263406
vt 0.139736 0.268286
vt 0.593128 0.257562
vt 0.706965 0.289032
vt 0.137345 0.292168
vt 0.593814 0.275285
vt 0.583585 0.329442
vt 0.696359 0.362467
vt 0.557729 0.371288
vt 0.670300 0.420138
vt 0.519363 0.403641
vt 0.471603 0.429320
vt 0.631887 0.464846
vt 0.417569 0.451143
vt 0.360377 0.471926
vt 0.584217 0.499396
vt 0.303145 0.494488
vt 0.530389 0.526589
vt 0.248992 0.521648
vt 0.473502 0.549230
vt 0.201032 0.556222
vt 0.416656 0.570120
vt 0.162386 0.601030
vt 0.362948 0.592063
vt 0.315474 0.617863
vt 0.136170 0.658890
vt 0.277335 0.650322
vt 0.251629 0.692243
vt 0.125502 0.732619
vt 0.241456 0.746430
vt 0.127198 0.769859
vt 0.242424 0.769868
vt 0.703932 0.775257
vt 0.605192 0.777363
vt 0.604954 0.758434
vt 0.704661 0.808958
vt 0.603326 0.796066
vt 0.246324 0.791823
vt 0.133855 0.805122
vt 0.599119 0.814255
vt 0.253023 0.812196
vt 0.701110 0.840450
vt 0.592340 0.831642
vt 0.145259 0.838185
vt 0.262386 0.830892
vt 0.582750 0.847937
vt 0.693259 0.869573
vt 0.274280 0.847817
vt 0.161198 0.868828
vt 0.570116 0.862853
vt 0.288568 0.862874
vt 0.554201 0.876097
vt 0.681088 0.896165
vt 0.305119 0.875969
vt 0.534773 0.887385
vt 0.181457 0.896824
vt 0.323798 0.887005
vt 0.511596 0.896426
vt 0.344471 0.895888
vt 0.664576 0.920066
vt 0.484435 0.902930
vt 0.367002 0.902521
vt 0.205823 0.921950
vt 0.453050 0.906612
vt 0.391261 0.906810
vt 0.417114 0.908659
vt 0.643829 0.941242
vt 0.234081 0.943983
vt 0.618683 0.959431
vt 0.266017 0.962699
vt 0.589119 0.974469
vt 0.301419 0.977874
vt 0.555117 0.986198
vt 0.340068 0.989285
vt 0.516655 0.994457
vt 0.381757 0.996705
vt 0.473713 0.999082
vt 0.426268 0.999916
vn 0.000000 1.000000 0.000000
usemtl None.017
s 1
f 1/1/1 2/2/1 3/3/1
f 4/4/1 2/2/1 1/1/1
f 4/4/1 5/5/1 2/2/1
f 6/6/1 5/5/1 4/4/1
f 6/6/1 7/7/1 5/5/1
f 8/8/1 7/7/1 6/6/1
f 8/8/1 9/9/1 7/7/1
f 10/10/1 9/9/1 8/8/1
f 10/10/1 11/11/1 9/9/1
f 10/10/1 12/12/1 11/11/1
f 13/13/1 12/12/1 10/10/1
f 13/13/1 14/14/1 12/12/1
f 15/15/1 14/14/1 13/13/1
f 15/15/1 16/16/1 14/14/1
f 16/16/1 17/17/1 14/14/1
f 17/17/1 18/18/1 14/14/1
f 19/19/1 20/20/1 15/15/1
f 20/20/1 16/16/1 15/15/1
f 21/21/1 18/18/1 17/17/1
f 19/19/1 22/22/1 20/20/1
f 23/23/1 18/18/1 21/21/1
f 19/19/1 24/24/1 22/22/1
f 25/25/1 18/18/1 23/23/1
f 19/19/1 26/26/1 24/24/1
f 25/25/1 27/27/1 18/18/1
f 28/28/1 27/27/1 25/25/1
f 19/19/1 29/29/1 26/26/1
f 30/30/1 29/29/1 19/19/1
f 31/31/1 27/27/1 28/28/1
f 30/30/1 32/32/1 29/29/1
f 31/31/1 33/33/1 27/27/1
f 34/34/1 33/33/1 31/31/1
f 30/30/1 35/35/1 32/32/1
f 36/36/1 35/35/1 30/30/1
f 37/37/1 33/33/1 34/34/1
f 36/36/1 38/38/1 35/35/1
f 37/37/1 39/39/1 33/33/1
f 40/40/1 39/39/1 37/37/1
f 36/36/1 41/41/1 38/38/1
f 42/42/1 41/41/1 36/36/1
f 43/43/1 39/39/1 40/40/1
f 42/42/1 44/44/1 41/41/1
f 43/43/1 45/45/1 39/39/1
f 46/46/1 45/45/1 43/43/1
f 42/42/1 47/47/1 44/44/1
f 48/48/1 47/47/1 42/42/1
f 49/49/1 45/45/1 46/46/1
f 48/48/1 50/50/1 47/47/1
f 48/48/1 51/51/1 50/50/1
f 52/52/1 51/51/1 48/48/1
f 52/52/1 53/53/1 51/51/1
f 54/54/1 53/53/1 52/52/1
f 54/54/1 55/55/1 53/53/1
f 54/54/1 56/56/1 55/55/1
f 57/57/1 56/56/1 54/54/1
f 57/57/1 58/58/1 56/56/1
f 57/57/1 59/59/1 58/58/1
f 60/60/1 59/59/1 57/57/1
f 60/60/1 61/61/1 59/59/1
f 62/62/1 61/61/1 60/60/1
f 62/62/1 63/63/1 61/61/1
f 64/64/1 63/63/1 62/62/1
f 64/64/1 65/65/1 63/63/1
f 66/66/1 65/65/1 64/64/1
f 66/66/1 67/67/1 65/65/1
f 68/68/1 67/67/1 66/66/1
f 69/69/1 67/67/1 68/68/1
f 69/69/1 70/70/1 67/67/1
f 71/71/1 70/70/1 69/69/1
f 72/72/1 70/70/1 71/71/1
f 72/72/1 73/73/1 70/70/1
f 74/74/1 73/73/1 72/72/1
f 74/74/1 75/75/1 73/73/1
f 76/76/1 75/75/1 74/74/1
f 77/77/1 78/78/1 79/79/1
f 80/80/1 78/78/1 77/77/1
f 80/80/1 81/81/1 78/78/1
f 82/82/1 75/75/1 76/76/1
f 82/82/1 83/83/1 75/75/1
f 80/80/1 84/84/1 81/81/1
f 85/85/1 83/83/1 82/82/1
f 86/86/1 84/84/1 80/80/1
f 86/86/1 87/87/1 84/84/1
f 85/85/1 88/88/1 83/83/1
f 89/89/1 88/88/1 85/85/1
f 86/86/1 90/90/1 87/87/1
f 91/91/1 90/90/1 86/86/1
f 92/92/1 88/88/1 89/89/1
f 92/92/1 93/93/1 88/88/1
f 91/91/1 94/94/1 90/90/1
f 95/95/1 93/93/1 92/92/1
f 91/91/1 96/96/1 94/94/1
f 97/97/1 96/96/1 91/91/1
f 98/98/1 93/93/1 95/95/1
f 97/97/1 99/99/1 96/96/1
f 98/98/1 100/100/1 93/93/1
f 101/101/1 100/100/1 98/98/1
f 97/97/1 102/102/1 99/99/1
f 103/103/1 100/100/1 101/101/1
f 104/104/1 102/102/1 97/97/1
f 104/104/1 105/105/1 102/102/1
f 106/106/1 100/100/1 103/103/1
f 106/106/1 107/107/1 100/100/1
f 104/104/1 108/108/1 105/105/1
f 109/109/1 107/107/1 106/106/1
f 104/104/1 110/110/1 108/108/1
f 110/110/1 107/107/1 109/109/1
f 104/104/1 107/107/1 110/110/1
f 111/111/1 107/107/1 104/104/1
f 111/111/1 112/112/1 107/107/1
f 113/113/1 112/112/1 111/111/1
f 113/113/1 114/114/1 112/112/1
f 115/115/1 114/114/1 113/113/1
f 115/115/1 116/116/1 114/114/1
f 117/117/1 116/116/1 115/115/1
f 117/117/1 118/118/1 116/116/1
f 119/119/1 118/118/1 117/117/1
f 119/119/1 120/120/1 118/118/1
f 121/121/1 120/120/1 119/119/1
f 121/121/1 122/122/1 120/120/1
