# Blender v2.76 (sub 0) OBJ File: ''
# www.blender.org
mtllib T.mtl
o Text.008
v -0.168349 0.000000 -0.548624
v 0.171101 0.000000 -0.608257
v -0.168349 0.000000 -0.608257
v 0.166514 0.000000 -0.548624
v -0.037156 0.000000 -0.548624
v -0.037156 0.000000 0.000000
v 0.037156 0.000000 -0.548624
v 0.037156 0.000000 0.000000
vt 0.499785 0.087858
vt 0.000071 0.000071
vt 0.499785 0.000071
vt 0.006823 0.087858
vt 0.253304 0.090009
vt 0.253304 0.999929
vt 0.130054 0.090009
vt 0.130054 0.999929
vn 0.000000 1.000000 0.000000
vn 0.000000 0.000000 1.000000
usemtl None.018
s 1
f 1/1/1 2/2/1 3/3/1
f 1/1/1 4/4/1 2/2/1
f 5/5/2 4/4/2 1/1/2
f 6/6/1 7/7/1 5/5/1
f 7/7/2 4/4/2 5/5/2
f 6/6/1 8/8/1 7/7/1
