# Blender v2.76 (sub 0) OBJ File: ''
# www.blender.org
mtllib U.mtl
o Text.009
v -0.184404 0.000000 -0.203670
v -0.111927 0.000000 -0.608257
v -0.184404 0.000000 -0.608257
v -0.111927 0.000000 -0.210092
v 0.115596 0.000000 -0.213761
v 0.184404 0.000000 -0.608257
v 0.115596 0.000000 -0.608257
v 0.184404 0.000000 -0.218349
v 0.183471 0.000000 -0.181494
v 0.115092 0.000000 -0.187036
v -0.111335 0.000000 -0.180162
v -0.182862 0.000000 -0.161515
v 0.113477 0.000000 -0.162802
v 0.180539 0.000000 -0.147978
v -0.109489 0.000000 -0.153988
v 0.110593 0.000000 -0.141026
v -0.178343 0.000000 -0.125149
v -0.106279 0.000000 -0.131350
v 0.175401 0.000000 -0.117775
v 0.106286 0.000000 -0.121679
v -0.101597 0.000000 -0.112029
v -0.171001 0.000000 -0.094166
v 0.100399 0.000000 -0.104726
v 0.167856 0.000000 -0.090860
v -0.095335 0.000000 -0.095803
v 0.092775 0.000000 -0.090138
v -0.087385 0.000000 -0.082454
v -0.160992 0.000000 -0.068162
v 0.157698 0.000000 -0.067206
v 0.083260 0.000000 -0.077881
v -0.077639 0.000000 -0.071762
v 0.071696 0.000000 -0.067924
v -0.065987 0.000000 -0.063507
v -0.148474 0.000000 -0.046732
v 0.057927 0.000000 -0.060235
v 0.144725 0.000000 -0.046789
v -0.052322 0.000000 -0.057468
v 0.041798 0.000000 -0.054783
v -0.036536 0.000000 -0.053428
v 0.023153 0.000000 -0.051534
v -0.018520 0.000000 -0.051164
v 0.001835 0.000000 -0.050459
v 0.128731 0.000000 -0.029583
v -0.133601 0.000000 -0.029472
v 0.109514 0.000000 -0.015562
v -0.116530 0.000000 -0.015978
v -0.097418 0.000000 -0.005844
v 0.086869 0.000000 -0.004702
v -0.076419 -0.000000 0.001333
v 0.060593 -0.000000 0.003024
v -0.053691 -0.000000 0.005959
v 0.030481 -0.000000 0.007641
v -0.029389 -0.000000 0.008438
v -0.003670 -0.000000 0.009174
vt 0.597561 0.657069
vt 0.488849 0.000078
vt 0.606262 0.001637
vt 0.480286 0.645107
vt 0.105549 0.652073
vt 0.000078 0.047378
vt 0.105549 0.047378
vt 0.000078 0.645041
vt 0.001508 0.701533
vt 0.106321 0.693038
vt 0.478684 0.693581
vt 0.594157 0.725327
vt 0.108797 0.730185
vt 0.006002 0.752908
vt 0.475130 0.735943
vt 0.113218 0.763564
vt 0.586054 0.784143
vt 0.469443 0.772548
vt 0.013878 0.799204
vt 0.119820 0.793220
vt 0.461443 0.803747
vt 0.573493 0.834178
vt 0.128843 0.819206
vt 0.025443 0.840460
vt 0.450949 0.829899
vt 0.140530 0.841567
vt 0.437783 0.851353
vt 0.556720 0.876089
vt 0.041014 0.876717
vt 0.155115 0.860355
vt 0.421765 0.868465
vt 0.172840 0.875617
vt 0.402711 0.881587
vt 0.535979 0.910537
vt 0.193946 0.887403
vt 0.060899 0.908013
vt 0.380444 0.891077
vt 0.218669 0.895760
vt 0.354783 0.897282
vt 0.247250 0.900740
vt 0.325543 0.900563
vt 0.292453 0.903252
vt 0.086671 0.936025
vt 0.511737 0.938380
vt 0.117694 0.958903
vt 0.483965 0.960103
vt 0.452914 0.976365
vt 0.154297 0.976688
vt 0.418828 0.987820
vt 0.196809 0.989424
vt 0.381961 0.995128
vt 0.245560 0.997155
vt 0.342564 0.998943
vt 0.300884 0.999922
vn -0.000000 1.000000 0.000000
usemtl None.019
s 1
f 1/1/1 2/2/1 3/3/1
f 1/1/1 4/4/1 2/2/1
f 5/5/1 6/6/1 7/7/1
f 5/5/1 8/8/1 6/6/1
f 5/5/1 9/9/1 8/8/1
f 10/10/1 9/9/1 5/5/1
f 1/1/1 11/11/1 4/4/1
f 12/12/1 11/11/1 1/1/1
f 13/13/1 9/9/1 10/10/1
f 13/13/1 14/14/1 9/9/1
f 12/12/1 15/15/1 11/11/1
f 16/16/1 14/14/1 13/13/1
f 17/17/1 15/15/1 12/12/1
f 17/17/1 18/18/1 15/15/1
f 16/16/1 19/19/1 14/14/1
f 20/20/1 19/19/1 16/16/1
f 17/17/1 21/21/1 18/18/1
f 22/22/1 21/21/1 17/17/1
f 23/23/1 19/19/1 20/20/1
f 23/23/1 24/24/1 19/19/1
f 22/22/1 25/25/1 21/21/1
f 26/26/1 24/24/1 23/23/1
f 22/22/1 27/27/1 25/25/1
f 28/28/1 27/27/1 22/22/1
f 26/26/1 29/29/1 24/24/1
f 30/30/1 29/29/1 26/26/1
f 28/28/1 31/31/1 27/27/1
f 32/32/1 29/29/1 30/30/1
f 28/28/1 33/33/1 31/31/1
f 34/34/1 33/33/1 28/28/1
f 35/35/1 29/29/1 32/32/1
f 35/35/1 36/36/1 29/29/1
f 34/34/1 37/37/1 33/33/1
f 38/38/1 36/36/1 35/35/1
f 34/34/1 39/39/1 37/37/1
f 40/40/1 36/36/1 38/38/1
f 34/34/1 41/41/1 39/39/1
f 42/42/1 36/36/1 40/40/1
f 34/34/1 42/42/1 41/41/1
f 34/34/1 36/36/1 42/42/1
f 34/34/1 43/43/1 36/36/1
f 44/44/1 43/43/1 34/34/1
f 44/44/1 45/45/1 43/43/1
f 46/46/1 45/45/1 44/44/1
f 47/47/1 45/45/1 46/46/1
f 47/47/1 48/48/1 45/45/1
f 49/49/1 48/48/1 47/47/1
f 49/49/1 50/50/1 48/48/1
f 51/51/1 50/50/1 49/49/1
f 51/51/1 52/52/1 50/50/1
f 53/53/1 52/52/1 51/51/1
f 53/53/1 54/54/1 52/52/1
