# Blender v2.76 (sub 0) OBJ File: ''
# www.blender.org
mtllib V.mtl
o Text.010
v -0.194799 0.000000 -0.557779
v -0.131651 0.000000 -0.608257
v -0.206881 0.000000 -0.608257
v -0.122095 0.000000 -0.564890
v 0.127973 0.000000 -0.564908
v 0.206881 0.000000 -0.608257
v 0.138073 0.000000 -0.608257
v 0.194763 0.000000 -0.557569
v 0.117822 0.000000 -0.521555
v -0.112237 0.000000 -0.521492
v -0.182395 0.000000 -0.507263
v 0.182263 0.000000 -0.506881
v 0.107569 0.000000 -0.478197
v -0.102079 0.000000 -0.478068
v -0.169653 0.000000 -0.456709
v 0.169381 0.000000 -0.456193
v 0.097163 0.000000 -0.434828
v -0.091624 0.000000 -0.434625
v -0.156558 0.000000 -0.406116
v 0.156116 0.000000 -0.405505
v 0.086553 0.000000 -0.391447
v -0.080877 0.000000 -0.391169
v -0.143093 0.000000 -0.355485
v 0.142469 0.000000 -0.354817
v 0.075688 0.000000 -0.348050
v -0.069839 0.000000 -0.347706
v -0.129243 0.000000 -0.304817
v 0.128440 0.000000 -0.304128
v 0.064517 0.000000 -0.304634
v -0.058515 0.000000 -0.304244
v -0.114992 0.000000 -0.254109
v 0.052990 0.000000 -0.261196
v -0.046908 0.000000 -0.260788
v 0.114029 0.000000 -0.253440
v 0.041055 0.000000 -0.217732
v -0.035020 0.000000 -0.217345
v -0.100323 0.000000 -0.203364
v 0.099235 0.000000 -0.202752
v 0.028661 0.000000 -0.174240
v -0.022855 0.000000 -0.173921
v -0.085221 0.000000 -0.152580
v 0.084060 0.000000 -0.152064
v 0.015758 0.000000 -0.130715
v -0.010416 0.000000 -0.130523
v -0.069670 0.000000 -0.101758
v 0.068502 0.000000 -0.101376
v 0.002294 0.000000 -0.087156
v -0.053653 0.000000 -0.050898
v 0.052561 0.000000 -0.050688
v -0.037156 0.000000 0.000000
v 0.036239 0.000000 0.000000
vt 0.660352 0.083057
vt 0.556551 0.000082
vt 0.680212 0.000082
vt 0.540843 0.071368
vt 0.129789 0.071339
vt 0.000082 0.000083
vt 0.113187 0.000083
vt 0.020002 0.083402
vt 0.146475 0.142601
vt 0.524639 0.142704
vt 0.639963 0.166093
vt 0.040549 0.166721
vt 0.163328 0.213871
vt 0.507942 0.214083
vt 0.619018 0.249193
vt 0.061724 0.250041
vt 0.180434 0.285160
vt 0.490756 0.285494
vt 0.597493 0.332356
vt 0.083528 0.333360
vt 0.197874 0.356468
vt 0.473090 0.356925
vt 0.575359 0.415582
vt 0.105961 0.416680
vt 0.215734 0.427803
vt 0.454947 0.428369
vt 0.552593 0.498868
vt 0.129021 0.500001
vt 0.234096 0.499169
vt 0.436333 0.499810
vt 0.529168 0.582220
vt 0.253044 0.570571
vt 0.417253 0.571242
vt 0.152710 0.583320
vt 0.272662 0.642016
vt 0.397712 0.642652
vt 0.505055 0.665634
vt 0.177028 0.666640
vt 0.293035 0.713507
vt 0.377716 0.714031
vt 0.480231 0.749111
vt 0.201972 0.749959
vt 0.314245 0.785052
vt 0.357269 0.785368
vt 0.454669 0.832651
vt 0.227546 0.833279
vt 0.336377 0.856653
vt 0.428341 0.916253
vt 0.253749 0.916598
vt 0.401224 0.999918
vt 0.280579 0.999918
vn -0.000000 1.000000 0.000000
usemtl None.020
s 1
f 1/1/1 2/2/1 3/3/1
f 1/1/1 4/4/1 2/2/1
f 5/5/1 6/6/1 7/7/1
f 5/5/1 8/8/1 6/6/1
f 9/9/1 8/8/1 5/5/1
f 1/1/1 10/10/1 4/4/1
f 11/11/1 10/10/1 1/1/1
f 9/9/1 12/12/1 8/8/1
f 13/13/1 12/12/1 9/9/1
f 11/11/1 14/14/1 10/10/1
f 15/15/1 14/14/1 11/11/1
f 13/13/1 16/16/1 12/12/1
f 17/17/1 16/16/1 13/13/1
f 15/15/1 18/18/1 14/14/1
f 19/19/1 18/18/1 15/15/1
f 17/17/1 20/20/1 16/16/1
f 21/21/1 20/20/1 17/17/1
f 19/19/1 22/22/1 18/18/1
f 23/23/1 22/22/1 19/19/1
f 21/21/1 24/24/1 20/20/1
f 25/25/1 24/24/1 21/21/1
f 23/23/1 26/26/1 22/22/1
f 27/27/1 26/26/1 23/23/1
f 25/25/1 28/28/1 24/24/1
f 29/29/1 28/28/1 25/25/1
f 27/27/1 30/30/1 26/26/1
f 31/31/1 30/30/1 27/27/1
f 32/32/1 28/28/1 29/29/1
f 31/31/1 33/33/1 30/30/1
f 32/32/1 34/34/1 28/28/1
f 35/35/1 34/34/1 32/32/1
f 31/31/1 36/36/1 33/33/1
f 37/37/1 36/36/1 31/31/1
f 35/35/1 38/38/1 34/34/1
f 39/39/1 38/38/1 35/35/1
f 37/37/1 40/40/1 36/36/1
f 41/41/1 40/40/1 37/37/1
f 39/39/1 42/42/1 38/38/1
f 43/43/1 42/42/1 39/39/1
f 41/41/1 44/44/1 40/40/1
f 45/45/1 44/44/1 41/41/1
f 43/43/1 46/46/1 42/42/1
f 47/47/1 46/46/1 43/43/1
f 45/45/1 47/47/1 44/44/1
f 48/48/1 47/47/1 45/45/1
f 47/47/1 49/49/1 46/46/1
f 48/48/1 49/49/1 47/47/1
f 50/50/1 49/49/1 48/48/1
f 50/50/1 51/51/1 49/49/1
