# Blender v2.76 (sub 0) OBJ File: ''
# www.blender.org
mtllib W.mtl
o Text.002
v -0.292354 0.000000 -0.556956
v -0.230734 0.000000 -0.608257
v -0.302294 0.000000 -0.608257
v -0.223529 0.000000 -0.568346
v -0.132569 0.000000 -0.124771
v 0.033486 0.000000 -0.608257
v -0.025229 0.000000 -0.608257
v 0.000459 0.000000 -0.465138
v 0.143578 0.000000 -0.124771
v 0.232511 0.000000 -0.567032
v 0.304128 0.000000 -0.608257
v 0.239908 0.000000 -0.608257
v 0.294647 0.000000 -0.557376
v -0.216136 0.000000 -0.528419
v 0.225000 0.000000 -0.525934
v 0.285007 0.000000 -0.506562
v -0.282259 0.000000 -0.505798
v -0.208558 0.000000 -0.488460
v 0.217374 0.000000 -0.484977
v 0.275201 0.000000 -0.455806
v -0.272004 0.000000 -0.454773
v -0.200798 0.000000 -0.448454
v 0.209633 0.000000 -0.444173
v -0.103211 0.000000 0.000000
v 0.108716 0.000000 0.000000
v 0.265223 0.000000 -0.405097
v -0.261587 0.000000 -0.403874
v -0.192861 0.000000 -0.408384
v 0.201778 0.000000 -0.403534
v -0.184748 0.000000 -0.368234
v 0.255066 0.000000 -0.354426
v -0.251004 0.000000 -0.353088
v 0.193807 0.000000 -0.363073
v -0.176463 0.000000 -0.327989
v 0.185722 0.000000 -0.322804
v 0.244725 0.000000 -0.303784
v -0.240252 0.000000 -0.302408
v -0.168009 0.000000 -0.287632
v 0.177523 0.000000 -0.282739
v 0.234192 0.000000 -0.253162
v -0.229329 0.000000 -0.251824
v -0.159389 0.000000 -0.247147
v 0.169209 0.000000 -0.242890
v 0.223462 0.000000 -0.202548
v -0.218230 0.000000 -0.201325
v -0.150607 0.000000 -0.206520
v 0.160780 0.000000 -0.203270
v -0.141666 0.000000 -0.165733
v 0.152236 0.000000 -0.163893
v 0.212529 0.000000 -0.151935
v -0.206952 0.000000 -0.150903
v 0.201385 0.000000 -0.101312
v -0.195494 0.000000 -0.100548
v 0.190024 0.000000 -0.050671
v -0.183850 0.000000 -0.050250
v 0.178440 0.000000 0.000000
v -0.172018 0.000000 0.000000
vt 0.980523 0.084424
vt 0.879238 0.000100
vt 0.996862 0.000100
vt 0.867395 0.065702
vt 0.717882 0.794812
vt 0.444938 0.000111
vt 0.541447 0.000111
vt 0.499223 0.235348
vt 0.263985 0.794789
vt 0.117812 0.067870
vt 0.000100 0.000110
vt 0.105655 0.000111
vt 0.015683 0.083740
vt 0.855243 0.131331
vt 0.130158 0.135420
vt 0.031528 0.167261
vt 0.963930 0.168513
vt 0.842787 0.197012
vt 0.142692 0.202739
vt 0.047645 0.250685
vt 0.947074 0.252384
vt 0.830032 0.262770
vt 0.155415 0.269806
vt 0.669625 0.999900
vt 0.321285 0.999869
vt 0.064045 0.334033
vt 0.929951 0.336047
vt 0.816985 0.328634
vt 0.168326 0.336602
vt 0.803650 0.394629
vt 0.080739 0.417318
vt 0.912556 0.419525
vt 0.181427 0.403106
vt 0.790031 0.460780
vt 0.194716 0.469294
vt 0.097736 0.500555
vt 0.894882 0.502828
vt 0.776135 0.527115
vt 0.208192 0.535146
vt 0.115048 0.583760
vt 0.876928 0.585974
vt 0.761967 0.593661
vt 0.221857 0.600644
vt 0.132684 0.666951
vt 0.858684 0.668980
vt 0.747531 0.660440
vt 0.235711 0.665765
vt 0.732835 0.727482
vt 0.249755 0.730487
vt 0.150654 0.750141
vt 0.840146 0.751859
vt 0.168971 0.833347
vt 0.821312 0.834628
vt 0.187644 0.916583
vt 0.802173 0.917304
vt 0.206684 0.999869
vt 0.782724 0.999900
vn 0.000000 1.000000 0.000000
usemtl None.002
s 1
f 1/1/1 2/2/1 3/3/1
f 1/1/1 4/4/1 2/2/1
f 5/5/1 6/6/1 7/7/1
f 5/5/1 8/8/1 6/6/1
f 8/8/1 9/9/1 6/6/1
f 10/10/1 11/11/1 12/12/1
f 10/10/1 13/13/1 11/11/1
f 1/1/1 14/14/1 4/4/1
f 15/15/1 13/13/1 10/10/1
f 15/15/1 16/16/1 13/13/1
f 17/17/1 14/14/1 1/1/1
f 17/17/1 18/18/1 14/14/1
f 19/19/1 16/16/1 15/15/1
f 19/19/1 20/20/1 16/16/1
f 21/21/1 18/18/1 17/17/1
f 21/21/1 22/22/1 18/18/1
f 23/23/1 20/20/1 19/19/1
f 5/5/1 24/24/1 8/8/1
f 25/25/1 9/9/1 8/8/1
f 23/23/1 26/26/1 20/20/1
f 27/27/1 22/22/1 21/21/1
f 27/27/1 28/28/1 22/22/1
f 29/29/1 26/26/1 23/23/1
f 27/27/1 30/30/1 28/28/1
f 29/29/1 31/31/1 26/26/1
f 32/32/1 30/30/1 27/27/1
f 33/33/1 31/31/1 29/29/1
f 32/32/1 34/34/1 30/30/1
f 35/35/1 31/31/1 33/33/1
f 35/35/1 36/36/1 31/31/1
f 37/37/1 34/34/1 32/32/1
f 37/37/1 38/38/1 34/34/1
f 39/39/1 36/36/1 35/35/1
f 39/39/1 40/40/1 36/36/1
f 41/41/1 38/38/1 37/37/1
f 41/41/1 42/42/1 38/38/1
f 43/43/1 40/40/1 39/39/1
f 43/43/1 44/44/1 40/40/1
f 45/45/1 42/42/1 41/41/1
f 45/45/1 46/46/1 42/42/1
f 47/47/1 44/44/1 43/43/1
f 45/45/1 48/48/1 46/46/1
f 49/49/1 44/44/1 47/47/1
f 49/49/1 50/50/1 44/44/1
f 51/51/1 48/48/1 45/45/1
f 51/51/1 5/5/1 48/48/1
f 9/9/1 50/50/1 49/49/1
f 9/9/1 52/52/1 50/50/1
f 53/53/1 5/5/1 51/51/1
f 53/53/1 24/24/1 5/5/1
f 25/25/1 52/52/1 9/9/1
f 25/25/1 54/54/1 52/52/1
f 55/55/1 24/24/1 53/53/1
f 25/25/1 56/56/1 54/54/1
f 57/57/1 24/24/1 55/55/1
