# Blender v2.76 (sub 0) OBJ File: ''
# www.blender.org
mtllib X.mtl
o Text.012
v -0.181193 0.000000 -0.608257
v 0.005046 0.000000 -0.384404
v -0.105963 0.000000 -0.617431
v -0.037156 0.000000 -0.318349
v 0.103505 0.000000 -0.590344
v 0.182110 0.000000 -0.608257
v 0.111468 0.000000 -0.608257
v 0.170533 0.000000 -0.584738
v 0.095239 0.000000 -0.571989
v 0.158758 0.000000 -0.561009
v 0.086712 0.000000 -0.553283
v 0.146818 0.000000 -0.537127
v 0.077965 0.000000 -0.534319
v 0.134743 0.000000 -0.513150
v 0.069039 0.000000 -0.515189
v 0.059977 0.000000 -0.495986
v 0.122567 0.000000 -0.489134
v 0.050819 0.000000 -0.476802
v 0.110321 0.000000 -0.465138
v 0.041607 0.000000 -0.457730
v 0.098037 0.000000 -0.441217
v 0.032382 0.000000 -0.438862
v 0.085746 0.000000 -0.417431
v 0.023186 0.000000 -0.420290
v 0.014060 0.000000 -0.402106
v 0.073481 0.000000 -0.393836
v 0.061273 0.000000 -0.370489
v 0.049154 0.000000 -0.347448
v 0.037156 0.000000 -0.324771
v 0.199541 0.000000 0.000000
v -0.050916 0.000000 -0.292532
v -0.005046 0.000000 -0.257798
v -0.064666 0.000000 -0.266480
v -0.078397 0.000000 -0.240224
v -0.014578 0.000000 -0.238815
v 0.122477 -0.000000 0.009174
v -0.092100 0.000000 -0.213795
v -0.024346 0.000000 -0.219079
v -0.034318 0.000000 -0.198681
v -0.105764 0.000000 -0.187227
v -0.044461 0.000000 -0.177710
v -0.119381 0.000000 -0.160550
v -0.054745 0.000000 -0.156254
v -0.132940 0.000000 -0.133797
v -0.065138 0.000000 -0.134404
v -0.075606 0.000000 -0.112247
v -0.146432 0.000000 -0.107000
v -0.086120 0.000000 -0.089874
v -0.159848 0.000000 -0.080189
v -0.096646 0.000000 -0.067374
v -0.173178 0.000000 -0.053398
v -0.107153 0.000000 -0.044835
v -0.186412 0.000000 -0.026657
v -0.117609 0.000000 -0.022348
v -0.199541 0.000000 0.000000
v -0.127982 0.000000 0.000000
vt 0.643388 0.018527
vt 0.332291 0.370308
vt 0.522567 0.000080
vt 0.397106 0.478838
vt 0.183598 0.033555
vt 0.057762 0.000856
vt 0.171633 0.004292
vt 0.075279 0.039331
vt 0.196029 0.063544
vt 0.093106 0.078154
vt 0.208864 0.094112
vt 0.111191 0.117231
vt 0.222042 0.125106
vt 0.129489 0.156468
vt 0.235499 0.156377
vt 0.249173 0.187772
vt 0.147948 0.195773
vt 0.263002 0.219141
vt 0.166520 0.235049
vt 0.276924 0.250332
vt 0.185158 0.274206
vt 0.290876 0.281195
vt 0.203814 0.313145
vt 0.304796 0.311580
vt 0.318622 0.341335
vt 0.222436 0.351776
vt 0.240980 0.390004
vt 0.259394 0.427734
vt 0.277631 0.464872
vt 0.000080 0.980486
vt 0.418032 0.521125
vt 0.342399 0.574886
vt 0.438930 0.563790
vt 0.459787 0.606783
vt 0.356841 0.605950
vt 0.123856 0.999022
vt 0.480591 0.650053
vt 0.371627 0.638240
vt 0.386710 0.671607
vt 0.501325 0.693546
vt 0.402041 0.705906
vt 0.521978 0.737212
vt 0.417575 0.740993
vt 0.542534 0.780998
vt 0.433266 0.776721
vt 0.449063 0.812948
vt 0.562980 0.824851
vt 0.464923 0.849525
vt 0.583303 0.868723
vt 0.480797 0.886307
vt 0.603488 0.912559
vt 0.496638 0.923151
vt 0.623520 0.956310
vt 0.512399 0.959909
vt 0.643388 0.999920
vt 0.528034 0.996439
vn 0.000000 1.000000 0.000000
usemtl None.022
s 1
f 1/1/1 2/2/1 3/3/1
f 4/4/1 2/2/1 1/1/1
f 5/5/1 6/6/1 7/7/1
f 5/5/1 8/8/1 6/6/1
f 9/9/1 8/8/1 5/5/1
f 9/9/1 10/10/1 8/8/1
f 11/11/1 10/10/1 9/9/1
f 11/11/1 12/12/1 10/10/1
f 13/13/1 12/12/1 11/11/1
f 13/13/1 14/14/1 12/12/1
f 15/15/1 14/14/1 13/13/1
f 16/16/1 14/14/1 15/15/1
f 16/16/1 17/17/1 14/14/1
f 18/18/1 17/17/1 16/16/1
f 18/18/1 19/19/1 17/17/1
f 20/20/1 19/19/1 18/18/1
f 20/20/1 21/21/1 19/19/1
f 22/22/1 21/21/1 20/20/1
f 22/22/1 23/23/1 21/21/1
f 24/24/1 23/23/1 22/22/1
f 25/25/1 23/23/1 24/24/1
f 25/25/1 26/26/1 23/23/1
f 2/2/1 26/26/1 25/25/1
f 2/2/1 27/27/1 26/26/1
f 4/4/1 27/27/1 2/2/1
f 4/4/1 28/28/1 27/27/1
f 4/4/1 29/29/1 28/28/1
f 4/4/1 30/30/1 29/29/1
f 31/31/1 32/32/1 4/4/1
f 32/32/1 30/30/1 4/4/1
f 33/33/1 32/32/1 31/31/1
f 34/34/1 32/32/1 33/33/1
f 34/34/1 35/35/1 32/32/1
f 36/36/1 30/30/1 32/32/1
f 37/37/1 35/35/1 34/34/1
f 37/37/1 38/38/1 35/35/1
f 37/37/1 39/39/1 38/38/1
f 40/40/1 39/39/1 37/37/1
f 40/40/1 41/41/1 39/39/1
f 42/42/1 41/41/1 40/40/1
f 42/42/1 43/43/1 41/41/1
f 44/44/1 43/43/1 42/42/1
f 44/44/1 45/45/1 43/43/1
f 44/44/1 46/46/1 45/45/1
f 47/47/1 46/46/1 44/44/1
f 47/47/1 48/48/1 46/46/1
f 49/49/1 48/48/1 47/47/1
f 49/49/1 50/50/1 48/48/1
f 51/51/1 50/50/1 49/49/1
f 51/51/1 52/52/1 50/50/1
f 53/53/1 52/52/1 51/51/1
f 53/53/1 54/54/1 52/52/1
f 55/55/1 54/54/1 53/53/1
f 55/55/1 56/56/1 54/54/1
