# Blender v2.76 (sub 0) OBJ File: ''
# www.blender.org
mtllib Y.mtl
o Text.013
v -0.187904 0.000000 -0.578672
v -0.122936 0.000000 -0.608257
v -0.200000 0.000000 -0.608257
v -0.113611 0.000000 -0.584351
v 0.121004 0.000000 -0.584702
v 0.200000 0.000000 -0.608257
v 0.130275 0.000000 -0.608257
v 0.188132 0.000000 -0.578882
v 0.111536 0.000000 -0.560869
v -0.103997 0.000000 -0.560359
v 0.175926 0.000000 -0.549482
v -0.175480 0.000000 -0.549100
v 0.101864 0.000000 -0.536826
v -0.094108 0.000000 -0.536310
v 0.163389 0.000000 -0.520069
v -0.162744 0.000000 -0.519553
v 0.091981 0.000000 -0.512640
v -0.083962 0.000000 -0.512232
v 0.150527 0.000000 -0.490656
v -0.149711 0.000000 -0.490044
v 0.081882 0.000000 -0.488378
v -0.073573 0.000000 -0.488155
v 0.137346 0.000000 -0.461255
v -0.136398 0.000000 -0.460587
v 0.071560 0.000000 -0.464106
v -0.062959 0.000000 -0.464105
v 0.061008 0.000000 -0.439891
v -0.052134 0.000000 -0.440114
v 0.123853 0.000000 -0.431881
v -0.122821 0.000000 -0.431193
v -0.041115 0.000000 -0.416208
v 0.050221 0.000000 -0.415800
v 0.110055 0.000000 -0.402544
v -0.108995 0.000000 -0.401875
v -0.029917 0.000000 -0.392417
v 0.039192 0.000000 -0.391901
v 0.095957 0.000000 -0.373259
v -0.094937 0.000000 -0.372647
v -0.018557 0.000000 -0.368769
v 0.027914 0.000000 -0.368259
v 0.081565 0.000000 -0.344037
v -0.080662 0.000000 -0.343521
v -0.007050 0.000000 -0.345293
v 0.016381 0.000000 -0.344943
v 0.004587 0.000000 -0.322018
v 0.066888 0.000000 -0.314891
v -0.066187 0.000000 -0.314509
v 0.051929 0.000000 -0.285835
v -0.051526 0.000000 -0.285625
v 0.036697 0.000000 -0.256881
v -0.036697 0.000000 -0.256881
v -0.036697 0.000000 0.000000
v 0.036697 0.000000 0.000000
vt 0.637709 0.048712
vt 0.530917 0.000083
vt 0.657591 0.000081
vt 0.515589 0.039379
vt 0.129934 0.038800
vt 0.000081 0.000083
vt 0.114694 0.000081
vt 0.019590 0.048369
vt 0.145498 0.077976
vt 0.499787 0.078816
vt 0.039655 0.096696
vt 0.617288 0.097321
vt 0.161397 0.117498
vt 0.483532 0.118347
vt 0.060264 0.145044
vt 0.596353 0.145890
vt 0.177643 0.157254
vt 0.466855 0.157926
vt 0.081407 0.193392
vt 0.574931 0.194396
vt 0.194245 0.197135
vt 0.449778 0.197503
vt 0.103074 0.241721
vt 0.553048 0.242816
vt 0.211212 0.237033
vt 0.432332 0.237035
vt 0.228558 0.276837
vt 0.414539 0.276471
vt 0.125255 0.290005
vt 0.530731 0.291133
vt 0.396426 0.315767
vt 0.246290 0.316437
vt 0.147936 0.338229
vt 0.508005 0.339326
vt 0.378020 0.354874
vt 0.264420 0.355722
vt 0.171111 0.386367
vt 0.484898 0.387370
vt 0.359347 0.393746
vt 0.282959 0.394584
vt 0.194769 0.434401
vt 0.461434 0.435246
vt 0.340433 0.432335
vt 0.301918 0.432910
vt 0.321305 0.470594
vt 0.218896 0.482310
vt 0.437641 0.482935
vt 0.243486 0.530072
vt 0.413542 0.530414
vt 0.268524 0.577665
vt 0.389167 0.577663
vt 0.389174 0.999917
vt 0.268530 0.999919
vn 0.000000 1.000000 0.000000
usemtl None.023
s 1
f 1/1/1 2/2/1 3/3/1
f 1/1/1 4/4/1 2/2/1
f 5/5/1 6/6/1 7/7/1
f 5/5/1 8/8/1 6/6/1
f 9/9/1 8/8/1 5/5/1
f 1/1/1 10/10/1 4/4/1
f 9/9/1 11/11/1 8/8/1
f 12/12/1 10/10/1 1/1/1
f 13/13/1 11/11/1 9/9/1
f 12/12/1 14/14/1 10/10/1
f 13/13/1 15/15/1 11/11/1
f 16/16/1 14/14/1 12/12/1
f 17/17/1 15/15/1 13/13/1
f 16/16/1 18/18/1 14/14/1
f 17/17/1 19/19/1 15/15/1
f 20/20/1 18/18/1 16/16/1
f 21/21/1 19/19/1 17/17/1
f 20/20/1 22/22/1 18/18/1
f 21/21/1 23/23/1 19/19/1
f 24/24/1 22/22/1 20/20/1
f 25/25/1 23/23/1 21/21/1
f 24/24/1 26/26/1 22/22/1
f 27/27/1 23/23/1 25/25/1
f 24/24/1 28/28/1 26/26/1
f 27/27/1 29/29/1 23/23/1
f 30/30/1 28/28/1 24/24/1
f 30/30/1 31/31/1 28/28/1
f 32/32/1 29/29/1 27/27/1
f 32/32/1 33/33/1 29/29/1
f 34/34/1 31/31/1 30/30/1
f 34/34/1 35/35/1 31/31/1
f 36/36/1 33/33/1 32/32/1
f 36/36/1 37/37/1 33/33/1
f 38/38/1 35/35/1 34/34/1
f 38/38/1 39/39/1 35/35/1
f 40/40/1 37/37/1 36/36/1
f 40/40/1 41/41/1 37/37/1
f 42/42/1 39/39/1 38/38/1
f 42/42/1 43/43/1 39/39/1
f 44/44/1 41/41/1 40/40/1
f 42/42/1 45/45/1 43/43/1
f 45/45/1 41/41/1 44/44/1
f 45/45/1 46/46/1 41/41/1
f 47/47/1 45/45/1 42/42/1
f 47/47/1 46/46/1 45/45/1
f 47/47/1 48/48/1 46/46/1
f 49/49/1 48/48/1 47/47/1
f 49/49/1 50/50/1 48/48/1
f 51/51/1 50/50/1 49/49/1
f 52/52/1 50/50/1 51/51/1
f 52/52/1 53/53/1 50/50/1
