# Blender v2.76 (sub 0) OBJ File: ''
# www.blender.org
mtllib Z.mtl
o Text.014
v -0.167431 0.000000 -0.548624
v 0.168349 0.000000 -0.608257
v -0.162844 0.000000 -0.608257
v 0.168349 0.000000 -0.557798
v 0.087615 0.000000 -0.548624
v -0.091284 0.000000 -0.060550
v -0.172018 0.000000 -0.051376
v 0.181193 0.000000 -0.060550
v 0.176606 0.000000 0.000000
v -0.172018 0.000000 0.000000
vt 0.098111 0.007553
vt 0.000076 0.559562
vt 0.000076 0.015094
vt 0.083029 0.559562
vt 0.098109 0.426853
vt 0.900397 0.132785
vt 0.915478 0.000076
vt 0.900397 0.580644
vt 0.999922 0.573105
vt 0.999924 0.000076
vn -0.000000 1.000000 0.000000
usemtl None.024
s 1
f 1/1/1 2/2/1 3/3/1
f 1/1/1 4/4/1 2/2/1
f 1/1/1 5/5/1 4/4/1
f 5/5/1 6/6/1 4/4/1
f 7/7/1 6/6/1 5/5/1
f 7/7/1 8/8/1 6/6/1
f 7/7/1 9/9/1 8/8/1
f 10/10/1 9/9/1 7/7/1
