# Blender v2.74 (sub 0) OBJ File: ''
# www.blender.org
mtllib 35.mtl
o Text.002
v -0.098624 0.000000 -0.442202
v -0.005963 0.000000 -0.608257
v -0.072936 0.000000 -0.608257
v -0.031651 0.000000 -0.442202
v 0.074771 0.000000 -0.442202
v 0.167431 0.000000 -0.608257
v 0.100459 0.000000 -0.608257
v 0.141743 0.000000 -0.442202
v -0.186697 0.000000 -0.382569
v -0.186697 0.000000 -0.442202
v 0.218807 0.000000 -0.442202
v 0.218807 0.000000 -0.382569
v -0.107798 0.000000 -0.382569
v -0.129817 0.000000 -0.241284
v -0.040826 0.000000 -0.382569
v -0.062844 0.000000 -0.241284
v 0.065596 0.000000 -0.382569
v 0.043578 0.000000 -0.241284
v 0.132569 0.000000 -0.382569
v 0.110550 0.000000 -0.241284
v -0.218807 0.000000 -0.180734
v -0.218807 0.000000 -0.241284
v 0.188532 0.000000 -0.241284
v 0.188532 0.000000 -0.180734
v -0.138991 0.000000 -0.180734
v -0.166514 0.000000 0.000000
v -0.072018 0.000000 -0.180734
v -0.099541 0.000000 0.000000
v 0.033486 0.000000 -0.180734
v 0.005963 0.000000 0.000000
v 0.101376 0.000000 -0.180734
v 0.073853 0.000000 0.000000
vt 0.522805 0.267987
vt 0.334406 0.014527
vt 0.444691 0.000082
vt 0.412520 0.282431
vt 0.237273 0.305384
vt 0.048879 0.051928
vt 0.159161 0.037484
vt 0.126991 0.319827
vt 0.680697 0.347191
vt 0.667836 0.248993
vt 0.000083 0.336448
vt 0.012944 0.434648
vt 0.347585 0.396747
vt 0.386830 0.576800
vt 0.248083 0.410143
vt 0.299151 0.579917
vt 0.132806 0.424231
vt 0.171844 0.585166
vt 0.068867 0.430832
vt 0.095406 0.588235
vt 0.500458 0.648778
vt 0.497977 0.573153
vt 0.000082 0.591424
vt 0.002558 0.665435
vt 0.251655 0.661452
vt 0.314065 0.995752
vt 0.127142 0.665618
vt 0.189552 0.999918
vt 0.064849 0.666614
vt 0.077358 0.749573
vt 0.033693 0.666568
vt 0.046203 0.749527
vn 0.000000 1.000000 0.000000
vn 0.000000 0.000000 1.000000
vn 0.000000 0.000000 -1.000000
usemtl None.002
s 1
f 1/1/1 2/2/1 3/3/1
f 1/1/1 4/4/1 2/2/1
f 5/5/1 6/6/1 7/7/1
f 5/5/1 8/8/1 6/6/1
f 9/9/1 1/1/1 10/10/1
f 9/9/1 4/4/1 1/1/1
f 9/9/1 5/5/1 4/4/1
f 9/9/1 8/8/1 5/5/1
f 9/9/1 11/11/1 8/8/1
f 9/9/1 12/12/1 11/11/1
f 13/13/2 12/12/2 9/9/2
f 14/14/1 15/15/1 13/13/1
f 15/15/3 12/12/2 13/13/2
f 14/14/1 16/16/1 15/15/1
f 17/17/2 12/12/2 15/15/3
f 18/18/1 19/19/1 17/17/1
f 19/19/3 12/12/2 17/17/2
f 18/18/1 20/20/1 19/19/1
f 21/21/1 14/14/1 22/22/1
f 21/21/1 16/16/1 14/14/1
f 21/21/1 18/18/1 16/16/1
f 21/21/1 20/20/1 18/18/1
f 21/21/1 23/23/1 20/20/1
f 21/21/1 24/24/1 23/23/1
f 25/25/3 24/24/3 21/21/3
f 26/26/1 27/27/1 25/25/1
f 27/27/2 24/24/3 25/25/3
f 26/26/1 28/28/1 27/27/1
f 29/29/2 24/24/3 27/27/2
f 30/30/1 31/31/1 29/29/1
f 31/31/3 24/24/3 29/29/2
f 30/30/1 32/32/1 31/31/1
