# Blender v2.74 (sub 0) OBJ File: ''
# www.blender.org
mtllib 36.mtl
o Text.003
v -0.029358 0.000000 -0.614679
v 0.020183 0.000000 -0.699083
v -0.029358 0.000000 -0.699083
v 0.020183 0.000000 -0.615596
v 0.045601 0.000000 -0.612908
v -0.052909 0.000000 -0.611402
v 0.068251 0.000000 -0.608159
v -0.074881 0.000000 -0.606197
v 0.088231 0.000000 -0.601505
v -0.095183 0.000000 -0.599126
v 0.105641 0.000000 -0.593102
v -0.113727 0.000000 -0.590248
v 0.120578 0.000000 -0.583107
v -0.130424 0.000000 -0.579625
v 0.133142 0.000000 -0.571674
v -0.145183 0.000000 -0.567317
v 0.143432 0.000000 -0.558961
v -0.157917 0.000000 -0.553384
v -0.007339 0.000000 -0.556881
v 0.011467 0.000000 -0.556113
v 0.151546 0.000000 -0.545124
v -0.024905 0.000000 -0.556041
v 0.028054 0.000000 -0.553874
v -0.040911 0.000000 -0.553606
v 0.042532 0.000000 -0.550258
v -0.055361 0.000000 -0.549699
v -0.168536 0.000000 -0.537887
v 0.055012 0.000000 -0.545362
v -0.068264 0.000000 -0.544444
v 0.065606 0.000000 -0.539281
v 0.157583 0.000000 -0.530318
v -0.079624 0.000000 -0.537967
v 0.074427 0.000000 -0.532110
v -0.089450 0.000000 -0.530390
v -0.176950 0.000000 -0.520886
v 0.081584 0.000000 -0.523946
v -0.097746 0.000000 -0.521838
v 0.161642 0.000000 -0.514700
v 0.087190 0.000000 -0.514883
v -0.104519 0.000000 -0.512436
v -0.183070 0.000000 -0.502442
v 0.091356 0.000000 -0.505017
v 0.163821 0.000000 -0.498426
v -0.109776 0.000000 -0.502308
v 0.094194 0.000000 -0.494444
v -0.186808 0.000000 -0.482616
v -0.113524 0.000000 -0.491577
v 0.164220 0.000000 -0.481651
v 0.095815 0.000000 -0.483260
v -0.115767 0.000000 -0.480369
v 0.096330 0.000000 -0.471560
v -0.188073 0.000000 -0.461468
v -0.116514 0.000000 -0.468807
v -0.110539 0.000000 -0.433521
v -0.182189 0.000000 -0.413197
v -0.094020 0.000000 -0.405861
v -0.165919 0.000000 -0.374996
v -0.069065 0.000000 -0.384088
v -0.037785 0.000000 -0.366463
v -0.141342 0.000000 -0.345083
v -0.002286 0.000000 -0.351246
v 0.035321 0.000000 -0.336697
v -0.110533 0.000000 -0.321679
v 0.072928 0.000000 -0.321079
v -0.075571 0.000000 -0.303001
v 0.108427 0.000000 -0.302650
v -0.038532 0.000000 -0.287271
v 0.139708 0.000000 -0.279673
v -0.001493 0.000000 -0.272706
v 0.164662 0.000000 -0.250408
v 0.033469 0.000000 -0.257526
v 0.064278 0.000000 -0.239951
v 0.181181 0.000000 -0.213115
v 0.088855 0.000000 -0.218200
v 0.105125 0.000000 -0.190492
v 0.187156 0.000000 -0.166055
v 0.111009 0.000000 -0.155046
v 0.185815 0.000000 -0.143267
v 0.110030 0.000000 -0.139726
v -0.191743 0.000000 -0.143119
v -0.127114 0.000000 -0.139919
v -0.126606 0.000000 -0.152294
v 0.181860 0.000000 -0.121747
v -0.192946 0.000000 -0.121955
v -0.126240 0.000000 -0.127684
v 0.107153 0.000000 -0.125454
v -0.123825 0.000000 -0.115768
v 0.102466 0.000000 -0.112285
v -0.191501 0.000000 -0.102094
v 0.175387 0.000000 -0.101577
v -0.119708 0.000000 -0.104349
v 0.096058 0.000000 -0.100272
v -0.113731 0.000000 -0.093606
v -0.187400 0.000000 -0.083615
v 0.166497 0.000000 -0.082841
v 0.088020 0.000000 -0.089469
v -0.105734 0.000000 -0.083716
v 0.078440 0.000000 -0.079931
v -0.095558 0.000000 -0.074858
v -0.180632 0.000000 -0.066599
v 0.155287 0.000000 -0.065621
v 0.067408 0.000000 -0.071712
v -0.083044 0.000000 -0.067210
v 0.055012 0.000000 -0.064866
v -0.068033 0.000000 -0.060952
v -0.171189 0.000000 -0.051124
v 0.141858 0.000000 -0.050000
v 0.041342 0.000000 -0.059447
v -0.050365 0.000000 -0.056261
v 0.026487 0.000000 -0.055509
v -0.029881 0.000000 -0.053315
v 0.010536 0.000000 -0.053106
v -0.006422 0.000000 -0.052294
v -0.159060 0.000000 -0.037271
v 0.126307 0.000000 -0.036061
v -0.144236 0.000000 -0.025118
v 0.108733 0.000000 -0.023887
v -0.126707 0.000000 -0.014747
v 0.089235 0.000000 -0.013561
v -0.106465 0.000000 -0.006236
v 0.067911 0.000000 -0.005165
v -0.083499 -0.000000 0.000336
v 0.044861 -0.000000 0.001218
v -0.057800 -0.000000 0.004887
v 0.020183 -0.000000 0.005505
v -0.029358 -0.000000 0.007339
v 0.020183 -0.000000 0.096330
v -0.029358 -0.000000 0.096330
vt 0.443857 0.175508
vt 0.500959 0.000084
vt 0.562909 0.069962
vt 0.383199 0.104483
vt 0.347625 0.071994
vt 0.468682 0.212821
vt 0.312606 0.045987
vt 0.488816 0.250321
vt 0.278235 0.026126
vt 0.504228 0.287797
vt 0.244614 0.012078
vt 0.514894 0.325052
vt 0.211839 0.003508
vt 0.520790 0.361887
vt 0.180003 0.000084
vt 0.521886 0.398092
vt 0.149206 0.001467
vt 0.518157 0.433476
vt 0.334801 0.216721
vt 0.308361 0.192705
vt 0.119489 0.007038
vt 0.446504 0.355540
vt 0.283031 0.173516
vt 0.453912 0.366084
vt 0.260138 0.157163
vt 0.459616 0.376542
vt 0.515089 0.448106
vt 0.237855 0.145244
vt 0.463693 0.386851
vt 0.216178 0.137479
vt 0.090865 0.016479
vt 0.466220 0.396946
vt 0.195105 0.133592
vt 0.467269 0.406763
vt 0.509944 0.462297
vt 0.174642 0.133305
vt 0.466917 0.416238
vt 0.063496 0.029750
vt 0.154785 0.136343
vt 0.465238 0.425304
vt 0.502708 0.475963
vt 0.135537 0.142428
vt 0.037483 0.046521
vt 0.462307 0.433899
vt 0.116898 0.151283
vt 0.493366 0.489019
vt 0.458200 0.441957
vt 0.012928 0.066458
vt 0.098871 0.162632
vt 0.452990 0.449413
vt 0.081455 0.176198
vt 0.481904 0.501381
vt 0.446754 0.456203
vt 0.423181 0.472181
vt 0.450915 0.524555
vt 0.398190 0.477902
vt 0.420002 0.536218
vt 0.371944 0.475533
vt 0.344602 0.467247
vt 0.389283 0.538545
vt 0.316323 0.455210
vt 0.287269 0.441593
vt 0.358878 0.533709
vt 0.257600 0.428565
vt 0.328905 0.523885
vt 0.227475 0.418295
vt 0.299484 0.511244
vt 0.197056 0.412952
vt 0.270733 0.497963
vt 0.166502 0.414706
vt 0.242771 0.486214
vt 0.215717 0.478171
vt 0.135974 0.425726
vt 0.189692 0.476008
vt 0.164811 0.481898
vt 0.105632 0.448182
vt 0.141195 0.498016
vt 0.093268 0.461490
vt 0.132926 0.507007
vt 0.698390 0.878705
vt 0.574390 0.742173
vt 0.600722 0.718661
vt 0.083072 0.475603
vt 0.653961 0.919652
vt 0.545866 0.762389
vt 0.126304 0.516513
vt 0.515255 0.778634
vt 0.121312 0.526453
vt 0.607610 0.952411
vt 0.075037 0.490421
vt 0.482658 0.790232
vt 0.117931 0.536746
vt 0.448185 0.796510
vt 0.559495 0.976819
vt 0.069157 0.505840
vt 0.116142 0.547311
vt 0.411934 0.796797
vt 0.115929 0.558066
vt 0.374013 0.790418
vt 0.509776 0.992707
vt 0.065424 0.521758
vt 0.117273 0.568930
vt 0.334526 0.776700
vt 0.120157 0.579823
vt 0.293580 0.754968
vt 0.458610 0.999916
vt 0.063831 0.538073
vt 0.124562 0.590663
vt 0.251278 0.724549
vt 0.130471 0.601369
vt 0.207722 0.684772
vt 0.137864 0.611860
vt 0.159706 0.637619
vt 0.422878 0.999364
vt 0.062733 0.578587
vt 0.386280 0.992688
vt 0.066786 0.619881
vt 0.348920 0.979772
vt 0.075991 0.661703
vt 0.310905 0.960505
vt 0.090344 0.703804
vt 0.272339 0.934772
vt 0.109844 0.745929
vt 0.233334 0.902458
vt 0.134491 0.787833
vt 0.193990 0.863449
vt 0.000084 0.901890
vt 0.062297 0.975203
vn -0.000000 1.000000 0.000000
usemtl None.003
s 1
f 1/1/1 2/2/1 3/3/1
f 1/1/1 4/4/1 2/2/1
f 1/1/1 5/5/1 4/4/1
f 6/6/1 5/5/1 1/1/1
f 6/6/1 7/7/1 5/5/1
f 8/8/1 7/7/1 6/6/1
f 8/8/1 9/9/1 7/7/1
f 10/10/1 9/9/1 8/8/1
f 10/10/1 11/11/1 9/9/1
f 12/12/1 11/11/1 10/10/1
f 12/12/1 13/13/1 11/11/1
f 14/14/1 13/13/1 12/12/1
f 14/14/1 15/15/1 13/13/1
f 16/16/1 15/15/1 14/14/1
f 16/16/1 17/17/1 15/15/1
f 18/18/1 19/19/1 16/16/1
f 19/19/1 17/17/1 16/16/1
f 19/19/1 20/20/1 17/17/1
f 20/20/1 21/21/1 17/17/1
f 18/18/1 22/22/1 19/19/1
f 23/23/1 21/21/1 20/20/1
f 18/18/1 24/24/1 22/22/1
f 25/25/1 21/21/1 23/23/1
f 18/18/1 26/26/1 24/24/1
f 27/27/1 26/26/1 18/18/1
f 28/28/1 21/21/1 25/25/1
f 27/27/1 29/29/1 26/26/1
f 30/30/1 21/21/1 28/28/1
f 30/30/1 31/31/1 21/21/1
f 27/27/1 32/32/1 29/29/1
f 33/33/1 31/31/1 30/30/1
f 27/27/1 34/34/1 32/32/1
f 35/35/1 34/34/1 27/27/1
f 36/36/1 31/31/1 33/33/1
f 35/35/1 37/37/1 34/34/1
f 36/36/1 38/38/1 31/31/1
f 39/39/1 38/38/1 36/36/1
f 35/35/1 40/40/1 37/37/1
f 41/41/1 40/40/1 35/35/1
f 42/42/1 38/38/1 39/39/1
f 42/42/1 43/43/1 38/38/1
f 41/41/1 44/44/1 40/40/1
f 45/45/1 43/43/1 42/42/1
f 46/46/1 44/44/1 41/41/1
f 46/46/1 47/47/1 44/44/1
f 45/45/1 48/48/1 43/43/1
f 49/49/1 48/48/1 45/45/1
f 46/46/1 50/50/1 47/47/1
f 51/51/1 48/48/1 49/49/1
f 52/52/1 50/50/1 46/46/1
f 52/52/1 53/53/1 50/50/1
f 52/52/1 54/54/1 53/53/1
f 55/55/1 54/54/1 52/52/1
f 55/55/1 56/56/1 54/54/1
f 57/57/1 56/56/1 55/55/1
f 57/57/1 58/58/1 56/56/1
f 57/57/1 59/59/1 58/58/1
f 60/60/1 59/59/1 57/57/1
f 60/60/1 61/61/1 59/59/1
f 60/60/1 62/62/1 61/61/1
f 63/63/1 62/62/1 60/60/1
f 63/63/1 64/64/1 62/62/1
f 65/65/1 64/64/1 63/63/1
f 65/65/1 66/66/1 64/64/1
f 67/67/1 66/66/1 65/65/1
f 67/67/1 68/68/1 66/66/1
f 69/69/1 68/68/1 67/67/1
f 69/69/1 70/70/1 68/68/1
f 71/71/1 70/70/1 69/69/1
f 72/72/1 70/70/1 71/71/1
f 72/72/1 73/73/1 70/70/1
f 74/74/1 73/73/1 72/72/1
f 75/75/1 73/73/1 74/74/1
f 75/75/1 76/76/1 73/73/1
f 77/77/1 76/76/1 75/75/1
f 77/77/1 78/78/1 76/76/1
f 79/79/1 78/78/1 77/77/1
f 80/80/1 81/81/1 82/82/1
f 79/79/1 83/83/1 78/78/1
f 84/84/1 81/81/1 80/80/1
f 84/84/1 85/85/1 81/81/1
f 86/86/1 83/83/1 79/79/1
f 84/84/1 87/87/1 85/85/1
f 88/88/1 83/83/1 86/86/1
f 89/89/1 87/87/1 84/84/1
f 88/88/1 90/90/1 83/83/1
f 89/89/1 91/91/1 87/87/1
f 92/92/1 90/90/1 88/88/1
f 89/89/1 93/93/1 91/91/1
f 94/94/1 93/93/1 89/89/1
f 92/92/1 95/95/1 90/90/1
f 96/96/1 95/95/1 92/92/1
f 94/94/1 97/97/1 93/93/1
f 98/98/1 95/95/1 96/96/1
f 94/94/1 99/99/1 97/97/1
f 100/100/1 99/99/1 94/94/1
f 98/98/1 101/101/1 95/95/1
f 102/102/1 101/101/1 98/98/1
f 100/100/1 103/103/1 99/99/1
f 104/104/1 101/101/1 102/102/1
f 100/100/1 105/105/1 103/103/1
f 106/106/1 105/105/1 100/100/1
f 104/104/1 107/107/1 101/101/1
f 108/108/1 107/107/1 104/104/1
f 106/106/1 109/109/1 105/105/1
f 110/110/1 107/107/1 108/108/1
f 106/106/1 111/111/1 109/109/1
f 112/112/1 107/107/1 110/110/1
f 106/106/1 113/113/1 111/111/1
f 113/113/1 107/107/1 112/112/1
f 106/106/1 107/107/1 113/113/1
f 114/114/1 107/107/1 106/106/1
f 114/114/1 115/115/1 107/107/1
f 116/116/1 115/115/1 114/114/1
f 116/116/1 117/117/1 115/115/1
f 118/118/1 117/117/1 116/116/1
f 118/118/1 119/119/1 117/117/1
f 120/120/1 119/119/1 118/118/1
f 120/120/1 121/121/1 119/119/1
f 122/122/1 121/121/1 120/120/1
f 122/122/1 123/123/1 121/121/1
f 124/124/1 123/123/1 122/122/1
f 124/124/1 125/125/1 123/123/1
f 126/126/1 125/125/1 124/124/1
f 126/126/1 127/127/1 125/125/1
f 128/128/1 127/127/1 126/126/1
