# Blender v2.74 (sub 0) OBJ File: ''
# www.blender.org
mtllib 38.mtl
o Text.005
v -0.067997 0.000000 -0.616279
v -0.024230 0.000000 -0.616273
v -0.046330 0.000000 -0.617431
v -0.088014 0.000000 -0.612878
v -0.004235 0.000000 -0.612908
v 0.013690 0.000000 -0.607497
v -0.106336 0.000000 -0.607311
v 0.029579 0.000000 -0.600204
v -0.122919 0.000000 -0.599660
v 0.043467 0.000000 -0.591190
v -0.137718 0.000000 -0.590009
v 0.055390 0.000000 -0.580619
v -0.150688 0.000000 -0.578440
v 0.065382 0.000000 -0.568653
v -0.161785 0.000000 -0.565037
v -0.050000 0.000000 -0.560550
v 0.073479 0.000000 -0.555454
v -0.170965 0.000000 -0.549881
v -0.060147 0.000000 -0.559821
v -0.038522 0.000000 -0.559789
v -0.069478 0.000000 -0.557692
v -0.028360 0.000000 -0.557594
v -0.077982 0.000000 -0.554258
v -0.019452 0.000000 -0.554100
v 0.079716 0.000000 -0.541184
v -0.085644 0.000000 -0.549609
v -0.011740 0.000000 -0.549439
v -0.178182 0.000000 -0.533056
v -0.092452 0.000000 -0.543840
v -0.005161 0.000000 -0.543747
v -0.098394 0.000000 -0.537041
v 0.000344 0.000000 -0.537156
v 0.084128 0.000000 -0.526007
v 0.004836 0.000000 -0.529801
v -0.103457 0.000000 -0.529306
v -0.183393 0.000000 -0.514645
v 0.008376 0.000000 -0.521814
v -0.107628 0.000000 -0.520727
v 0.086749 0.000000 -0.510084
v 0.011023 0.000000 -0.513331
v -0.110894 0.000000 -0.511396
v -0.186552 0.000000 -0.494730
v 0.012840 0.000000 -0.504485
v -0.113243 0.000000 -0.501406
v 0.087615 0.000000 -0.493578
v 0.013885 0.000000 -0.495410
v -0.114662 0.000000 -0.490849
v 0.014220 0.000000 -0.486239
v -0.187615 0.000000 -0.473395
v 0.086334 0.000000 -0.474714
v -0.115138 0.000000 -0.479817
v 0.013472 0.000000 -0.474763
v -0.114760 0.000000 -0.472252
v 0.011294 0.000000 -0.463702
v 0.082645 0.000000 -0.457038
v -0.187086 0.000000 -0.463442
v -0.113643 0.000000 -0.464254
v -0.111812 0.000000 -0.455849
v 0.007784 0.000000 -0.453010
v -0.185529 0.000000 -0.452875
v 0.076778 0.000000 -0.440439
v -0.109293 0.000000 -0.447061
v 0.003041 0.000000 -0.442644
v -0.182985 0.000000 -0.441729
v -0.106112 0.000000 -0.437916
v -0.002836 0.000000 -0.432557
v -0.179494 0.000000 -0.430037
v 0.068960 0.000000 -0.424805
v -0.102294 0.000000 -0.428440
v -0.009748 0.000000 -0.422706
v -0.175098 0.000000 -0.417836
v -0.097864 0.000000 -0.418659
v 0.059423 0.000000 -0.410024
v -0.017596 0.000000 -0.413047
v -0.092847 0.000000 -0.408597
v -0.169839 0.000000 -0.405161
v -0.026283 0.000000 -0.403534
v 0.048394 0.000000 -0.395986
v -0.087271 0.000000 -0.398280
v -0.163759 0.000000 -0.392045
v -0.035708 0.000000 -0.394123
v -0.081159 0.000000 -0.387734
v 0.036105 0.000000 -0.382579
v -0.045774 0.000000 -0.384769
v -0.156898 0.000000 -0.378525
v -0.074537 0.000000 -0.376984
v -0.056381 0.000000 -0.375428
v 0.022783 0.000000 -0.369691
v -0.149298 0.000000 -0.364636
v -0.067431 0.000000 -0.366055
v 0.008658 0.000000 -0.357210
v -0.141000 0.000000 -0.350412
v -0.006040 0.000000 -0.345026
v -0.132046 0.000000 -0.335889
v -0.021082 0.000000 -0.333027
v 0.127678 0.000000 -0.319496
v 0.192202 0.000000 -0.336697
v 0.126147 0.000000 -0.336697
v 0.193391 0.000000 -0.315197
v -0.122477 0.000000 -0.321101
v -0.036239 0.000000 -0.321101
v -0.135201 0.000000 -0.310120
v -0.025485 0.000000 -0.307308
v 0.128610 0.000000 -0.302761
v 0.193761 0.000000 -0.294279
v -0.147588 0.000000 -0.298700
v -0.014356 0.000000 -0.293480
v 0.128956 0.000000 -0.286497
v -0.159490 0.000000 -0.286783
v 0.193334 0.000000 -0.273954
v -0.002896 0.000000 -0.279659
v -0.170761 0.000000 -0.274312
v 0.128729 0.000000 -0.270710
v -0.088532 0.000000 -0.276147
v 0.008852 0.000000 -0.265885
v -0.096607 0.000000 -0.267791
v -0.076823 0.000000 -0.260961
v -0.181255 0.000000 -0.261229
v 0.192134 0.000000 -0.254230
v 0.127941 0.000000 -0.255408
v -0.104281 0.000000 -0.259221
v 0.020841 0.000000 -0.252201
v -0.190826 0.000000 -0.247477
v -0.064662 0.000000 -0.245719
v -0.111497 0.000000 -0.250416
v 0.126605 0.000000 -0.240596
v 0.190182 0.000000 -0.235119
v 0.033028 0.000000 -0.238647
v -0.118196 0.000000 -0.241352
v -0.199326 0.000000 -0.232999
v -0.052093 0.000000 -0.230476
v -0.124321 0.000000 -0.232009
v 0.124735 0.000000 -0.226282
v 0.045367 0.000000 -0.225265
v 0.187500 0.000000 -0.216628
v -0.206609 0.000000 -0.217737
v -0.129817 0.000000 -0.222362
v -0.039161 0.000000 -0.215291
v 0.122341 0.000000 -0.212470
v 0.057815 0.000000 -0.212096
v -0.134623 0.000000 -0.212391
v -0.212529 0.000000 -0.201634
v 0.184111 0.000000 -0.198769
v -0.025910 0.000000 -0.200220
v 0.119438 0.000000 -0.199169
v -0.138685 0.000000 -0.202073
v 0.070327 0.000000 -0.199183
v -0.141944 0.000000 -0.191385
v -0.216939 0.000000 -0.184633
v -0.012385 0.000000 -0.185321
v 0.082858 0.000000 -0.186566
v 0.116038 0.000000 -0.186383
v 0.180037 0.000000 -0.181549
v -0.144342 0.000000 -0.180305
v 0.095363 0.000000 -0.174286
v 0.112154 0.000000 -0.174120
v 0.001369 0.000000 -0.170652
v -0.219692 0.000000 -0.166676
v 0.175301 0.000000 -0.164980
v -0.145824 0.000000 -0.168811
v 0.107798 0.000000 -0.162385
v 0.015308 0.000000 -0.156269
v -0.146330 0.000000 -0.156881
v -0.220642 0.000000 -0.147706
v 0.169924 0.000000 -0.149070
v -0.145479 0.000000 -0.141507
v 0.029386 0.000000 -0.142231
v 0.163930 0.000000 -0.133829
v -0.219436 0.000000 -0.126504
v 0.043561 0.000000 -0.128593
v -0.142962 0.000000 -0.127085
v 0.157339 0.000000 -0.119266
v 0.057786 0.000000 -0.115415
v -0.138833 0.000000 -0.113690
v -0.215809 0.000000 -0.106142
v 0.168225 0.000000 -0.110348
v 0.072018 0.000000 -0.102752
v -0.133146 0.000000 -0.101393
v 0.178831 0.000000 -0.101975
v -0.209748 0.000000 -0.086812
v 0.064263 0.000000 -0.094418
v 0.189105 0.000000 -0.094194
v -0.125956 0.000000 -0.090269
v 0.056154 0.000000 -0.086842
v 0.198998 0.000000 -0.087054
v -0.117316 0.000000 -0.080390
v 0.208457 0.000000 -0.080602
v 0.047721 0.000000 -0.080017
v -0.201240 0.000000 -0.068705
v 0.217431 0.000000 -0.074885
v -0.107282 0.000000 -0.071830
v 0.038991 0.000000 -0.073938
v 0.225871 0.000000 -0.069953
v 0.029993 0.000000 -0.068598
v -0.095906 0.000000 -0.064662
v 0.233724 0.000000 -0.065851
v -0.190274 0.000000 -0.052013
v 0.020757 0.000000 -0.063991
v 0.240940 0.000000 -0.062629
v -0.083243 0.000000 -0.058959
v 0.011310 0.000000 -0.060110
v 0.119725 0.000000 -0.062385
v 0.247469 0.000000 -0.060334
v 0.108873 0.000000 -0.050956
v 0.134488 0.000000 -0.051084
v 0.253258 0.000000 -0.059013
v 0.001682 0.000000 -0.056949
v 0.258257 0.000000 -0.058716
v -0.069347 0.000000 -0.054795
v 0.258275 0.000000 -0.058716
v 0.258325 0.000000 -0.058716
v 0.258400 0.000000 -0.058716
v 0.258495 0.000000 -0.058716
v 0.258602 0.000000 -0.058716
v 0.258716 0.000000 -0.058716
v 0.258829 0.000000 -0.058716
v 0.258936 0.000000 -0.058716
v 0.259031 0.000000 -0.058716
v 0.259106 0.000000 -0.058716
v 0.259156 0.000000 -0.058716
v 0.259174 0.000000 -0.058716
v 0.259174 0.000000 0.000000
v -0.008099 0.000000 -0.054501
v -0.054272 0.000000 -0.052243
v -0.018005 0.000000 -0.052761
v -0.028006 0.000000 -0.051721
v -0.038073 0.000000 -0.051376
v -0.176835 0.000000 -0.036927
v 0.148913 0.000000 -0.040626
v 0.097435 0.000000 -0.040520
v 0.162930 0.000000 -0.031092
v 0.085436 0.000000 -0.031078
v -0.160911 0.000000 -0.023637
v 0.176470 0.000000 -0.022562
v 0.072902 0.000000 -0.022630
v -0.142491 0.000000 -0.012334
v 0.059858 0.000000 -0.015176
v 0.189461 0.000000 -0.015115
v 0.046330 0.000000 -0.008716
v 0.201835 0.000000 -0.008830
v -0.121560 0.000000 -0.003211
v 0.213520 0.000000 -0.003788
v 0.032344 0.000000 -0.003249
v 0.224448 0.000000 -0.000068
v 0.017924 -0.000000 0.001223
v -0.098106 -0.000000 0.003542
v 0.234547 -0.000000 0.002251
v 0.251980 -0.000000 0.002364
v 0.003096 -0.000000 0.004702
v 0.243748 -0.000000 0.003088
v -0.072116 -0.000000 0.007734
v -0.012113 -0.000000 0.007187
v -0.027680 -0.000000 0.008677
v -0.043578 -0.000000 0.009174
vt 0.141849 0.003717
vt 0.088238 0.022966
vt 0.113975 0.010297
vt 0.168351 0.000274
vt 0.065839 0.036781
vt 0.046915 0.052060
vt 0.193529 0.000064
vt 0.031345 0.068635
vt 0.217367 0.003136
vt 0.019022 0.086344
vt 0.239782 0.009412
vt 0.009825 0.105009
vt 0.260687 0.018807
vt 0.003638 0.124445
vt 0.279992 0.031226
vt 0.146766 0.083912
vt 0.000467 0.144899
vt 0.297503 0.046578
vt 0.162622 0.079420
vt 0.134001 0.090764
vt 0.176535 0.078054
vt 0.123006 0.097612
vt 0.187527 0.078859
vt 0.114061 0.105461
vt 0.000064 0.165942
vt 0.198020 0.081410
vt 0.107070 0.114309
vt 0.313286 0.064489
vt 0.208081 0.085667
vt 0.101909 0.123889
vt 0.217534 0.091474
vt 0.098474 0.134079
vt 0.002570 0.187198
vt 0.096633 0.144818
vt 0.226329 0.098735
vt 0.327079 0.085271
vt 0.096251 0.155865
vt 0.234495 0.107390
vt 0.007895 0.208277
vt 0.097202 0.167118
vt 0.241881 0.117281
vt 0.338582 0.108761
vt 0.099338 0.178387
vt 0.248493 0.128333
vt 0.015869 0.228873
vt 0.102515 0.189574
vt 0.254203 0.140382
vt 0.106597 0.200490
vt 0.347612 0.134699
vt 0.027780 0.250770
vt 0.259013 0.153346
vt 0.113017 0.213564
vt 0.261427 0.162544
vt 0.120907 0.225382
vt 0.042030 0.269569
vt 0.350248 0.147523
vt 0.263149 0.172498
vt 0.264183 0.183160
vt 0.130085 0.236074
vt 0.351664 0.161347
vt 0.058243 0.285535
vt 0.264578 0.194455
vt 0.140410 0.245758
vt 0.351897 0.176049
vt 0.264371 0.206317
vt 0.151822 0.254504
vt 0.350991 0.191505
vt 0.076047 0.298979
vt 0.263608 0.218677
vt 0.164104 0.262470
vt 0.348996 0.207578
vt 0.262340 0.231473
vt 0.095165 0.310154
vt 0.177109 0.269792
vt 0.260535 0.244685
vt 0.346038 0.224188
vt 0.190865 0.276501
vt 0.115252 0.319467
vt 0.258313 0.258215
vt 0.342127 0.241163
vt 0.205088 0.282801
vt 0.255742 0.272015
vt 0.136090 0.327064
vt 0.219635 0.288863
vt 0.337336 0.258338
vt 0.252908 0.286069
vt 0.234667 0.294625
vt 0.157398 0.333422
vt 0.331760 0.275532
vt 0.249887 0.300406
vt 0.178980 0.338559
vt 0.326379 0.294285
vt 0.200724 0.344758
vt 0.319863 0.312997
vt 0.222644 0.350099
vt 0.157164 0.426056
vt 0.114870 0.444576
vt 0.150575 0.416098
vt 0.123496 0.456711
vt 0.311976 0.331179
vt 0.244532 0.354499
vt 0.319011 0.339044
vt 0.245633 0.365728
vt 0.163875 0.435504
vt 0.132315 0.468177
vt 0.325423 0.346464
vt 0.246099 0.375766
vt 0.170700 0.444444
vt 0.331242 0.353652
vt 0.141308 0.478980
vt 0.246135 0.384956
vt 0.336487 0.360753
vt 0.177629 0.452880
vt 0.322779 0.365815
vt 0.243940 0.399078
vt 0.324933 0.371317
vt 0.313280 0.377613
vt 0.344941 0.361820
vt 0.150460 0.489124
vt 0.184652 0.460812
vt 0.327678 0.375132
vt 0.242442 0.413088
vt 0.353487 0.363887
vt 0.306799 0.390160
vt 0.331044 0.378481
vt 0.191760 0.468242
vt 0.159755 0.498613
vt 0.241301 0.426765
vt 0.334520 0.381629
vt 0.362106 0.366644
vt 0.301958 0.402774
vt 0.338280 0.384763
vt 0.198942 0.475173
vt 0.240350 0.440109
vt 0.169177 0.507452
vt 0.370510 0.370623
vt 0.342275 0.387998
vt 0.298226 0.415406
vt 0.206191 0.481607
vt 0.239480 0.453154
vt 0.346234 0.391449
vt 0.378613 0.375676
vt 0.178708 0.515644
vt 0.295256 0.428066
vt 0.213494 0.487545
vt 0.350187 0.395185
vt 0.238625 0.465934
vt 0.354037 0.399259
vt 0.386226 0.381954
vt 0.292860 0.440719
vt 0.237736 0.478498
vt 0.220845 0.492991
vt 0.188334 0.523196
vt 0.357829 0.403714
vt 0.236754 0.490531
vt 0.228231 0.497945
vt 0.291104 0.453415
vt 0.393105 0.389533
vt 0.198038 0.530110
vt 0.361436 0.408603
vt 0.235645 0.502410
vt 0.289620 0.466317
vt 0.364816 0.413935
vt 0.399107 0.398295
vt 0.207804 0.536392
vt 0.368685 0.421152
vt 0.288073 0.479141
vt 0.217992 0.542240
vt 0.404268 0.408725
vt 0.286592 0.492164
vt 0.371672 0.428341
vt 0.228228 0.547443
vt 0.284832 0.505143
vt 0.373765 0.435463
vt 0.407680 0.419435
vt 0.226340 0.557349
vt 0.282803 0.518081
vt 0.375047 0.442417
vt 0.224343 0.566910
vt 0.409283 0.430098
vt 0.290739 0.518861
vt 0.222281 0.575990
vt 0.375587 0.449163
vt 0.298481 0.518965
vt 0.220151 0.584543
vt 0.375302 0.455753
vt 0.217951 0.592519
vt 0.306032 0.518465
vt 0.409283 0.440572
vt 0.215681 0.599872
vt 0.374388 0.462097
vt 0.313387 0.517369
vt 0.213342 0.606551
vt 0.320520 0.515717
vt 0.372676 0.468291
vt 0.210934 0.612506
vt 0.407844 0.450819
vt 0.327441 0.513551
vt 0.208722 0.617981
vt 0.370416 0.474229
vt 0.331605 0.511287
vt 0.322886 0.521446
vt 0.204414 0.625354
vt 0.324110 0.522489
vt 0.318027 0.543857
vt 0.200239 0.631502
vt 0.335700 0.508911
vt 0.196935 0.637288
vt 0.367376 0.480062
vt 0.197915 0.639922
vt 0.198947 0.642554
vt 0.199757 0.645416
vt 0.200894 0.648045
vt 0.169468 0.679660
vt 0.129636 0.720831
vt 0.131279 0.725526
vt 0.133017 0.730229
vt 0.135274 0.734498
vt 0.137619 0.738750
vt 0.089588 0.797460
vt 0.028880 0.873755
vt 0.191956 0.999936
vt 0.339713 0.506531
vt 0.363528 0.485821
vt 0.343706 0.504010
vt 0.348547 0.500644
vt 0.359053 0.491831
vt 0.405548 0.461306
vt 0.316074 0.606395
vt 0.329749 0.523630
vt 0.312430 0.665814
vt 0.335379 0.524362
vt 0.404981 0.469352
vt 0.307024 0.721751
vt 0.340992 0.524672
vt 0.403219 0.477531
vt 0.346574 0.524556
vt 0.299790 0.773834
vt 0.352117 0.524039
vt 0.290654 0.821708
vt 0.400238 0.485841
vt 0.279546 0.864996
vt 0.357605 0.523097
vt 0.266394 0.903342
vt 0.363036 0.521764
vt 0.396004 0.494298
vt 0.251132 0.936375
vt 0.213982 0.985036
vt 0.368389 0.520012
vt 0.233684 0.963728
vt 0.390455 0.502902
vt 0.373647 0.517836
vt 0.378849 0.515337
vt 0.384055 0.512645
vn 0.000000 1.000000 0.000000
usemtl None.005
s 1
f 1/1/1 2/2/1 3/3/1
f 4/4/1 2/2/1 1/1/1
f 4/4/1 5/5/1 2/2/1
f 4/4/1 6/6/1 5/5/1
f 7/7/1 6/6/1 4/4/1
f 7/7/1 8/8/1 6/6/1
f 9/9/1 8/8/1 7/7/1
f 9/9/1 10/10/1 8/8/1
f 11/11/1 10/10/1 9/9/1
f 11/11/1 12/12/1 10/10/1
f 13/13/1 12/12/1 11/11/1
f 13/13/1 14/14/1 12/12/1
f 15/15/1 14/14/1 13/13/1
f 15/15/1 16/16/1 14/14/1
f 16/16/1 17/17/1 14/14/1
f 18/18/1 19/19/1 15/15/1
f 19/19/1 16/16/1 15/15/1
f 20/20/1 17/17/1 16/16/1
f 18/18/1 21/21/1 19/19/1
f 22/22/1 17/17/1 20/20/1
f 18/18/1 23/23/1 21/21/1
f 24/24/1 17/17/1 22/22/1
f 24/24/1 25/25/1 17/17/1
f 18/18/1 26/26/1 23/23/1
f 27/27/1 25/25/1 24/24/1
f 28/28/1 26/26/1 18/18/1
f 28/28/1 29/29/1 26/26/1
f 30/30/1 25/25/1 27/27/1
f 28/28/1 31/31/1 29/29/1
f 32/32/1 25/25/1 30/30/1
f 32/32/1 33/33/1 25/25/1
f 34/34/1 33/33/1 32/32/1
f 28/28/1 35/35/1 31/31/1
f 36/36/1 35/35/1 28/28/1
f 37/37/1 33/33/1 34/34/1
f 36/36/1 38/38/1 35/35/1
f 37/37/1 39/39/1 33/33/1
f 40/40/1 39/39/1 37/37/1
f 36/36/1 41/41/1 38/38/1
f 42/42/1 41/41/1 36/36/1
f 43/43/1 39/39/1 40/40/1
f 42/42/1 44/44/1 41/41/1
f 43/43/1 45/45/1 39/39/1
f 46/46/1 45/45/1 43/43/1
f 42/42/1 47/47/1 44/44/1
f 48/48/1 45/45/1 46/46/1
f 49/49/1 47/47/1 42/42/1
f 48/48/1 50/50/1 45/45/1
f 49/49/1 51/51/1 47/47/1
f 52/52/1 50/50/1 48/48/1
f 49/49/1 53/53/1 51/51/1
f 54/54/1 50/50/1 52/52/1
f 54/54/1 55/55/1 50/50/1
f 56/56/1 53/53/1 49/49/1
f 56/56/1 57/57/1 53/53/1
f 56/56/1 58/58/1 57/57/1
f 59/59/1 55/55/1 54/54/1
f 60/60/1 58/58/1 56/56/1
f 59/59/1 61/61/1 55/55/1
f 60/60/1 62/62/1 58/58/1
f 63/63/1 61/61/1 59/59/1
f 64/64/1 62/62/1 60/60/1
f 64/64/1 65/65/1 62/62/1
f 66/66/1 61/61/1 63/63/1
f 67/67/1 65/65/1 64/64/1
f 66/66/1 68/68/1 61/61/1
f 67/67/1 69/69/1 65/65/1
f 70/70/1 68/68/1 66/66/1
f 71/71/1 69/69/1 67/67/1
f 71/71/1 72/72/1 69/69/1
f 70/70/1 73/73/1 68/68/1
f 74/74/1 73/73/1 70/70/1
f 71/71/1 75/75/1 72/72/1
f 76/76/1 75/75/1 71/71/1
f 77/77/1 73/73/1 74/74/1
f 77/77/1 78/78/1 73/73/1
f 76/76/1 79/79/1 75/75/1
f 80/80/1 79/79/1 76/76/1
f 81/81/1 78/78/1 77/77/1
f 80/80/1 82/82/1 79/79/1
f 81/81/1 83/83/1 78/78/1
f 84/84/1 83/83/1 81/81/1
f 85/85/1 82/82/1 80/80/1
f 85/85/1 86/86/1 82/82/1
f 87/87/1 83/83/1 84/84/1
f 87/87/1 88/88/1 83/83/1
f 89/89/1 86/86/1 85/85/1
f 89/89/1 90/90/1 86/86/1
f 90/90/1 88/88/1 87/87/1
f 90/90/1 91/91/1 88/88/1
f 89/89/1 91/91/1 90/90/1
f 92/92/1 91/91/1 89/89/1
f 92/92/1 93/93/1 91/91/1
f 94/94/1 93/93/1 92/92/1
f 94/94/1 95/95/1 93/93/1
f 96/96/1 97/97/1 98/98/1
f 96/96/1 99/99/1 97/97/1
f 100/100/1 95/95/1 94/94/1
f 100/100/1 101/101/1 95/95/1
f 102/102/1 101/101/1 100/100/1
f 102/102/1 103/103/1 101/101/1
f 104/104/1 99/99/1 96/96/1
f 104/104/1 105/105/1 99/99/1
f 106/106/1 103/103/1 102/102/1
f 106/106/1 107/107/1 103/103/1
f 108/108/1 105/105/1 104/104/1
f 109/109/1 107/107/1 106/106/1
f 108/108/1 110/110/1 105/105/1
f 109/109/1 111/111/1 107/107/1
f 112/112/1 111/111/1 109/109/1
f 113/113/1 110/110/1 108/108/1
f 112/112/1 114/114/1 111/111/1
f 114/114/1 115/115/1 111/111/1
f 112/112/1 116/116/1 114/114/1
f 117/117/1 115/115/1 114/114/1
f 118/118/1 116/116/1 112/112/1
f 113/113/1 119/119/1 110/110/1
f 120/120/1 119/119/1 113/113/1
f 118/118/1 121/121/1 116/116/1
f 117/117/1 122/122/1 115/115/1
f 123/123/1 121/121/1 118/118/1
f 124/124/1 122/122/1 117/117/1
f 123/123/1 125/125/1 121/121/1
f 126/126/1 119/119/1 120/120/1
f 126/126/1 127/127/1 119/119/1
f 124/124/1 128/128/1 122/122/1
f 123/123/1 129/129/1 125/125/1
f 130/130/1 129/129/1 123/123/1
f 131/131/1 128/128/1 124/124/1
f 130/130/1 132/132/1 129/129/1
f 133/133/1 127/127/1 126/126/1
f 131/131/1 134/134/1 128/128/1
f 133/133/1 135/135/1 127/127/1
f 136/136/1 132/132/1 130/130/1
f 136/136/1 137/137/1 132/132/1
f 138/138/1 134/134/1 131/131/1
f 139/139/1 135/135/1 133/133/1
f 138/138/1 140/140/1 134/134/1
f 136/136/1 141/141/1 137/137/1
f 142/142/1 141/141/1 136/136/1
f 139/139/1 143/143/1 135/135/1
f 144/144/1 140/140/1 138/138/1
f 145/145/1 143/143/1 139/139/1
f 142/142/1 146/146/1 141/141/1
f 144/144/1 147/147/1 140/140/1
f 142/142/1 148/148/1 146/146/1
f 149/149/1 148/148/1 142/142/1
f 150/150/1 147/147/1 144/144/1
f 150/150/1 151/151/1 147/147/1
f 152/152/1 143/143/1 145/145/1
f 152/152/1 153/153/1 143/143/1
f 149/149/1 154/154/1 148/148/1
f 150/150/1 155/155/1 151/151/1
f 156/156/1 153/153/1 152/152/1
f 157/157/1 155/155/1 150/150/1
f 158/158/1 154/154/1 149/149/1
f 156/156/1 159/159/1 153/153/1
f 158/158/1 160/160/1 154/154/1
f 157/157/1 161/161/1 155/155/1
f 161/161/1 159/159/1 156/156/1
f 162/162/1 161/161/1 157/157/1
f 158/158/1 163/163/1 160/160/1
f 164/164/1 163/163/1 158/158/1
f 161/161/1 165/165/1 159/159/1
f 162/162/1 165/165/1 161/161/1
f 164/164/1 166/166/1 163/163/1
f 167/167/1 165/165/1 162/162/1
f 167/167/1 168/168/1 165/165/1
f 169/169/1 166/166/1 164/164/1
f 170/170/1 168/168/1 167/167/1
f 169/169/1 171/171/1 166/166/1
f 170/170/1 172/172/1 168/168/1
f 173/173/1 172/172/1 170/170/1
f 169/169/1 174/174/1 171/171/1
f 175/175/1 174/174/1 169/169/1
f 173/173/1 176/176/1 172/172/1
f 177/177/1 176/176/1 173/173/1
f 175/175/1 178/178/1 174/174/1
f 177/177/1 179/179/1 176/176/1
f 180/180/1 178/178/1 175/175/1
f 181/181/1 179/179/1 177/177/1
f 181/181/1 182/182/1 179/179/1
f 180/180/1 183/183/1 178/178/1
f 184/184/1 182/182/1 181/181/1
f 184/184/1 185/185/1 182/182/1
f 180/180/1 186/186/1 183/183/1
f 184/184/1 187/187/1 185/185/1
f 188/188/1 187/187/1 184/184/1
f 189/189/1 186/186/1 180/180/1
f 188/188/1 190/190/1 187/187/1
f 189/189/1 191/191/1 186/186/1
f 192/192/1 190/190/1 188/188/1
f 192/192/1 193/193/1 190/190/1
f 194/194/1 193/193/1 192/192/1
f 189/189/1 195/195/1 191/191/1
f 194/194/1 196/196/1 193/193/1
f 197/197/1 195/195/1 189/189/1
f 198/198/1 196/196/1 194/194/1
f 198/198/1 199/199/1 196/196/1
f 197/197/1 200/200/1 195/195/1
f 201/201/1 202/202/1 198/198/1
f 202/202/1 199/199/1 198/198/1
f 202/202/1 203/203/1 199/199/1
f 201/201/1 204/204/1 202/202/1
f 205/205/1 203/203/1 202/202/1
f 205/205/1 206/206/1 203/203/1
f 207/207/1 204/204/1 201/201/1
f 205/205/1 208/208/1 206/206/1
f 197/197/1 209/209/1 200/200/1
f 205/205/1 210/210/1 208/208/1
f 205/205/1 211/211/1 210/210/1
f 205/205/1 212/212/1 211/211/1
f 205/205/1 213/213/1 212/212/1
f 205/205/1 214/214/1 213/213/1
f 205/205/1 215/215/1 214/214/1
f 205/205/1 216/216/1 215/215/1
f 205/205/1 217/217/1 216/216/1
f 205/205/1 218/218/1 217/217/1
f 205/205/1 219/219/1 218/218/1
f 205/205/1 220/220/1 219/219/1
f 205/205/1 221/221/1 220/220/1
f 205/205/1 222/222/1 221/221/1
f 223/223/1 204/204/1 207/207/1
f 197/197/1 224/224/1 209/209/1
f 225/225/1 204/204/1 223/223/1
f 226/226/1 204/204/1 225/225/1
f 197/197/1 227/227/1 224/224/1
f 228/228/1 227/227/1 197/197/1
f 227/227/1 204/204/1 226/226/1
f 228/228/1 204/204/1 227/227/1
f 229/229/1 222/222/1 205/205/1
f 228/228/1 230/230/1 204/204/1
f 231/231/1 222/222/1 229/229/1
f 228/228/1 232/232/1 230/230/1
f 233/233/1 232/232/1 228/228/1
f 234/234/1 222/222/1 231/231/1
f 233/233/1 235/235/1 232/232/1
f 236/236/1 235/235/1 233/233/1
f 236/236/1 237/237/1 235/235/1
f 238/238/1 222/222/1 234/234/1
f 236/236/1 239/239/1 237/237/1
f 240/240/1 222/222/1 238/238/1
f 241/241/1 239/239/1 236/236/1
f 242/242/1 222/222/1 240/240/1
f 241/241/1 243/243/1 239/239/1
f 244/244/1 222/222/1 242/242/1
f 241/241/1 245/245/1 243/243/1
f 246/246/1 245/245/1 241/241/1
f 247/247/1 222/222/1 244/244/1
f 247/247/1 248/248/1 222/222/1
f 246/246/1 249/249/1 245/245/1
f 250/250/1 248/248/1 247/247/1
f 251/251/1 249/249/1 246/246/1
f 251/251/1 252/252/1 249/249/1
f 251/251/1 253/253/1 252/252/1
f 254/254/1 253/253/1 251/251/1
