# Blender v2.74 (sub 0) OBJ File: ''
# www.blender.org
mtllib 40.mtl
o Text.007
v 0.024851 0.000000 -0.613789
v 0.088991 0.000000 -0.622936
v 0.044037 0.000000 -0.644037
v 0.073990 0.000000 -0.593649
v 0.007216 0.000000 -0.582709
v 0.060194 0.000000 -0.563256
v -0.008845 0.000000 -0.550846
v 0.047620 0.000000 -0.531952
v -0.023310 0.000000 -0.518247
v 0.036290 0.000000 -0.499932
v -0.036156 0.000000 -0.484960
v 0.026220 0.000000 -0.467389
v -0.047362 0.000000 -0.451032
v 0.017431 0.000000 -0.434518
v -0.056906 0.000000 -0.416512
v 0.009942 0.000000 -0.401514
v -0.064764 0.000000 -0.381447
v 0.003772 0.000000 -0.368569
v -0.070915 0.000000 -0.345886
v -0.001061 0.000000 -0.335880
v -0.075336 0.000000 -0.309875
v -0.004536 0.000000 -0.303640
v -0.078004 0.000000 -0.273463
v -0.006635 0.000000 -0.272043
v -0.078899 0.000000 -0.236697
v -0.007339 0.000000 -0.241284
v -0.006600 0.000000 -0.208334
v -0.077935 0.000000 -0.200285
v -0.004409 0.000000 -0.175157
v -0.075085 0.000000 -0.164055
v -0.000803 0.000000 -0.141872
v -0.070413 0.000000 -0.128111
v 0.004179 0.000000 -0.108597
v -0.063982 0.000000 -0.092559
v 0.010500 0.000000 -0.075449
v -0.055857 0.000000 -0.057504
v 0.018119 0.000000 -0.042546
v -0.046101 0.000000 -0.023050
v 0.027001 0.000000 -0.010006
v -0.034777 -0.000000 0.010695
v 0.037105 -0.000000 0.022052
v -0.021950 -0.000000 0.043629
v 0.048395 -0.000000 0.053512
v -0.007683 -0.000000 0.075645
v 0.060831 -0.000000 0.084255
v 0.007960 -0.000000 0.106639
v 0.074376 -0.000000 0.114163
v 0.024915 -0.000000 0.136505
v 0.088991 -0.000000 0.143119
v 0.043119 -0.000000 0.165138
vt 0.079304 0.037423
vt 0.000046 0.026120
vt 0.055596 0.000046
vt 0.018583 0.062311
vt 0.101096 0.075829
vt 0.035631 0.099868
vt 0.120943 0.115203
vt 0.051168 0.138550
vt 0.138818 0.155486
vt 0.065169 0.178118
vt 0.154691 0.196619
vt 0.077613 0.218332
vt 0.168539 0.238544
vt 0.088473 0.258951
vt 0.180333 0.281201
vt 0.097728 0.299734
vt 0.190043 0.324531
vt 0.105352 0.340445
vt 0.197644 0.368475
vt 0.111324 0.380839
vt 0.203107 0.412974
vt 0.115618 0.420679
vt 0.206404 0.457969
vt 0.118212 0.459724
vt 0.207510 0.503401
vt 0.119082 0.497733
vt 0.118169 0.538450
vt 0.206318 0.548396
vt 0.115461 0.579447
vt 0.202797 0.593166
vt 0.111005 0.620578
vt 0.197023 0.637582
vt 0.104849 0.661696
vt 0.189077 0.681514
vt 0.097038 0.702657
vt 0.179036 0.724832
vt 0.087623 0.743316
vt 0.166981 0.767408
vt 0.076648 0.783526
vt 0.152988 0.809107
vt 0.064162 0.823141
vt 0.137137 0.849804
vt 0.050211 0.862016
vt 0.119507 0.889367
vt 0.034843 0.900006
vt 0.100177 0.927666
vt 0.018106 0.936964
vt 0.079225 0.964572
vt 0.000046 0.972745
vt 0.056730 0.999954
vn 0.000000 1.000000 0.000000
usemtl None.007
s 1
f 1/1/1 2/2/1 3/3/1
f 1/1/1 4/4/1 2/2/1
f 5/5/1 4/4/1 1/1/1
f 5/5/1 6/6/1 4/4/1
f 7/7/1 6/6/1 5/5/1
f 7/7/1 8/8/1 6/6/1
f 9/9/1 8/8/1 7/7/1
f 9/9/1 10/10/1 8/8/1
f 11/11/1 10/10/1 9/9/1
f 11/11/1 12/12/1 10/10/1
f 13/13/1 12/12/1 11/11/1
f 13/13/1 14/14/1 12/12/1
f 15/15/1 14/14/1 13/13/1
f 15/15/1 16/16/1 14/14/1
f 17/17/1 16/16/1 15/15/1
f 17/17/1 18/18/1 16/16/1
f 19/19/1 18/18/1 17/17/1
f 19/19/1 20/20/1 18/18/1
f 21/21/1 20/20/1 19/19/1
f 21/21/1 22/22/1 20/20/1
f 23/23/1 22/22/1 21/21/1
f 23/23/1 24/24/1 22/22/1
f 25/25/1 24/24/1 23/23/1
f 25/25/1 26/26/1 24/24/1
f 25/25/1 27/27/1 26/26/1
f 28/28/1 27/27/1 25/25/1
f 28/28/1 29/29/1 27/27/1
f 30/30/1 29/29/1 28/28/1
f 30/30/1 31/31/1 29/29/1
f 32/32/1 31/31/1 30/30/1
f 32/32/1 33/33/1 31/31/1
f 34/34/1 33/33/1 32/32/1
f 34/34/1 35/35/1 33/33/1
f 36/36/1 35/35/1 34/34/1
f 36/36/1 37/37/1 35/35/1
f 38/38/1 37/37/1 36/36/1
f 38/38/1 39/39/1 37/37/1
f 40/40/1 39/39/1 38/38/1
f 40/40/1 41/41/1 39/39/1
f 42/42/1 41/41/1 40/40/1
f 42/42/1 43/43/1 41/41/1
f 44/44/1 43/43/1 42/42/1
f 44/44/1 45/45/1 43/43/1
f 46/46/1 45/45/1 44/44/1
f 46/46/1 47/47/1 45/45/1
f 48/48/1 47/47/1 46/46/1
f 48/48/1 49/49/1 47/47/1
f 50/50/1 49/49/1 48/48/1
