# Blender v2.74 (sub 0) OBJ File: ''
# www.blender.org
mtllib 41.mtl
o Text.008
v -0.088991 0.000000 -0.622018
v -0.024915 0.000000 -0.615404
v -0.043119 0.000000 -0.644037
v -0.074376 0.000000 -0.593062
v -0.007960 0.000000 -0.585538
v -0.060831 0.000000 -0.563154
v 0.007683 0.000000 -0.554544
v -0.048395 0.000000 -0.532411
v 0.021950 0.000000 -0.522528
v -0.037105 0.000000 -0.500951
v 0.034777 0.000000 -0.489594
v -0.027001 0.000000 -0.468893
v 0.046101 0.000000 -0.455849
v -0.018119 0.000000 -0.436353
v 0.055857 0.000000 -0.421396
v -0.010500 0.000000 -0.403450
v 0.063982 0.000000 -0.386340
v -0.004179 0.000000 -0.370302
v 0.070413 0.000000 -0.350788
v 0.000803 0.000000 -0.337027
v 0.075085 0.000000 -0.314845
v 0.004409 0.000000 -0.303742
v 0.077935 0.000000 -0.278614
v 0.006600 0.000000 -0.270565
v 0.078899 0.000000 -0.242202
v 0.007339 0.000000 -0.237615
v 0.078004 0.000000 -0.205436
v 0.006635 0.000000 -0.206856
v 0.004536 0.000000 -0.175259
v 0.075336 0.000000 -0.169024
v 0.001061 0.000000 -0.143019
v 0.070915 0.000000 -0.133013
v -0.003772 0.000000 -0.110330
v 0.064764 0.000000 -0.097452
v -0.009942 0.000000 -0.077385
v 0.056906 0.000000 -0.062387
v -0.017431 0.000000 -0.044381
v 0.047362 0.000000 -0.027867
v -0.026220 0.000000 -0.011510
v 0.036156 -0.000000 0.006060
v -0.036290 -0.000000 0.021033
v 0.023310 -0.000000 0.039348
v -0.047620 -0.000000 0.053053
v 0.008845 -0.000000 0.071947
v -0.060194 -0.000000 0.084357
v -0.007216 -0.000000 0.103810
v -0.073990 -0.000000 0.114750
v -0.024851 -0.000000 0.134889
v -0.088991 -0.000000 0.144037
v -0.044037 -0.000000 0.165138
vt 0.207510 0.027255
vt 0.128330 0.035428
vt 0.150825 0.000046
vt 0.189450 0.063036
vt 0.107378 0.072333
vt 0.172712 0.099994
vt 0.088048 0.110633
vt 0.157345 0.137983
vt 0.070418 0.150196
vt 0.143393 0.176859
vt 0.054568 0.190893
vt 0.130908 0.216473
vt 0.040575 0.232592
vt 0.119932 0.256683
vt 0.028519 0.275166
vt 0.110517 0.297342
vt 0.018479 0.318485
vt 0.102706 0.338304
vt 0.010532 0.362417
vt 0.096550 0.379422
vt 0.004759 0.406833
vt 0.092094 0.420553
vt 0.001237 0.451604
vt 0.089386 0.461550
vt 0.000046 0.496599
vt 0.088473 0.502267
vt 0.001151 0.542031
vt 0.089343 0.540276
vt 0.091937 0.579321
vt 0.004448 0.587026
vt 0.096231 0.619160
vt 0.009911 0.631525
vt 0.102203 0.659555
vt 0.017512 0.675468
vt 0.109828 0.700265
vt 0.027223 0.718798
vt 0.119082 0.741049
vt 0.039016 0.761455
vt 0.129943 0.781668
vt 0.052864 0.803379
vt 0.142386 0.821882
vt 0.068738 0.844514
vt 0.156387 0.861449
vt 0.086612 0.884797
vt 0.171925 0.900132
vt 0.106459 0.924170
vt 0.188973 0.937689
vt 0.128251 0.962575
vt 0.207510 0.973880
vt 0.151959 0.999954
vn -0.000000 1.000000 0.000000
usemtl None.008
s 1
f 1/1/1 2/2/1 3/3/1
f 4/4/1 2/2/1 1/1/1
f 4/4/1 5/5/1 2/2/1
f 6/6/1 5/5/1 4/4/1
f 6/6/1 7/7/1 5/5/1
f 8/8/1 7/7/1 6/6/1
f 8/8/1 9/9/1 7/7/1
f 10/10/1 9/9/1 8/8/1
f 10/10/1 11/11/1 9/9/1
f 12/12/1 11/11/1 10/10/1
f 12/12/1 13/13/1 11/11/1
f 14/14/1 13/13/1 12/12/1
f 14/14/1 15/15/1 13/13/1
f 16/16/1 15/15/1 14/14/1
f 16/16/1 17/17/1 15/15/1
f 18/18/1 17/17/1 16/16/1
f 18/18/1 19/19/1 17/17/1
f 20/20/1 19/19/1 18/18/1
f 20/20/1 21/21/1 19/19/1
f 22/22/1 21/21/1 20/20/1
f 22/22/1 23/23/1 21/21/1
f 24/24/1 23/23/1 22/22/1
f 24/24/1 25/25/1 23/23/1
f 26/26/1 25/25/1 24/24/1
f 26/26/1 27/27/1 25/25/1
f 28/28/1 27/27/1 26/26/1
f 29/29/1 27/27/1 28/28/1
f 29/29/1 30/30/1 27/27/1
f 31/31/1 30/30/1 29/29/1
f 31/31/1 32/32/1 30/30/1
f 33/33/1 32/32/1 31/31/1
f 33/33/1 34/34/1 32/32/1
f 35/35/1 34/34/1 33/33/1
f 35/35/1 36/36/1 34/34/1
f 37/37/1 36/36/1 35/35/1
f 37/37/1 38/38/1 36/36/1
f 39/39/1 38/38/1 37/37/1
f 39/39/1 40/40/1 38/38/1
f 41/41/1 40/40/1 39/39/1
f 41/41/1 42/42/1 40/40/1
f 43/43/1 42/42/1 41/41/1
f 43/43/1 44/44/1 42/42/1
f 45/45/1 44/44/1 43/43/1
f 45/45/1 46/46/1 44/44/1
f 47/47/1 46/46/1 45/45/1
f 47/47/1 48/48/1 46/46/1
f 49/49/1 48/48/1 47/47/1
f 49/49/1 50/50/1 48/48/1
