# Blender v2.74 (sub 0) OBJ File: ''
# www.blender.org
mtllib 44.mtl
o Text.011
v -0.043119 0.000000 0.000000
v 0.043119 0.000000 -0.093578
v -0.043119 0.000000 -0.093578
v 0.043119 0.000000 -0.002752
v -0.008257 0.000000 0.000000
v -0.020183 -0.000000 0.132110
v -0.056881 -0.000000 0.117431
vt 0.329338 0.519699
vt 0.165322 0.000071
vt 0.499596 0.156974
vt 0.000071 0.352129
vt 0.194209 0.456271
vt 0.000071 0.990059
vt 0.169028 0.999929
vn 0.000000 1.000000 0.000000
usemtl None.011
s 1
f 1/1/1 2/2/1 3/3/1
f 1/1/1 4/4/1 2/2/1
f 1/1/1 5/5/1 4/4/1
f 5/5/1 6/6/1 4/4/1
f 7/7/1 6/6/1 5/5/1
