# Blender v2.74 (sub 0) OBJ File: ''
# www.blender.org
mtllib 58.mtl
o Text.015
v -0.038532 0.000000 0.000000
v 0.047706 0.000000 -0.093578
v -0.038532 0.000000 -0.093578
v 0.047706 0.000000 0.000000
v -0.038532 0.000000 -0.368807
v 0.047706 0.000000 -0.462385
v -0.038532 0.000000 -0.462385
v 0.047706 0.000000 -0.368807
vt 0.542435 0.000104
vt 0.000104 0.499896
vt 0.000104 0.000104
vt 0.542435 0.499896
vt 0.542435 0.500104
vt 0.000104 0.999896
vt 0.000104 0.500104
vt 0.542435 0.999896
vn 0.000000 1.000000 0.000000
usemtl None.015
s 1
f 1/1/1 2/2/1 3/3/1
f 1/1/1 4/4/1 2/2/1
f 5/5/1 6/6/1 7/7/1
f 5/5/1 8/8/1 6/6/1
