# Blender v2.74 (sub 0) OBJ File: ''
# www.blender.org
mtllib 91.mtl
o Text.022
v -0.061927 -0.000000 0.155963
v 0.005963 0.000000 -0.590826
v -0.061927 0.000000 -0.638532
v 0.082110 0.000000 -0.638532
v 0.082110 0.000000 -0.590826
v 0.005963 -0.000000 0.108257
v 0.082110 -0.000000 0.108257
v 0.082110 -0.000000 0.155963
vt 0.181321 0.999958
vt 0.095878 0.060083
vt 0.181321 0.000043
vt 0.000044 0.000043
vt 0.000044 0.060083
vt 0.095878 0.939917
vt 0.000043 0.939917
vt 0.000043 0.999958
vn 0.000000 1.000000 0.000000
usemtl None.022
s 1
f 1/1/1 2/2/1 3/3/1
f 2/2/1 4/4/1 3/3/1
f 2/2/1 5/5/1 4/4/1
f 1/1/1 6/6/1 2/2/1
f 1/1/1 7/7/1 6/6/1
f 1/1/1 8/8/1 7/7/1
