# Blender v2.76 (sub 0) OBJ File: ''
# www.blender.org
mtllib A.mtl
o Text
v -0.002808 0.000000 -0.471142
v 0.027346 0.000000 -0.470827
v 0.011009 0.000000 -0.471560
v -0.016726 0.000000 -0.469899
v 0.043616 0.000000 -0.468523
v -0.030734 0.000000 -0.467847
v 0.059561 0.000000 -0.464493
v -0.044818 0.000000 -0.465002
v -0.058966 0.000000 -0.461379
v 0.074924 0.000000 -0.458580
v -0.073165 0.000000 -0.456995
v 0.089445 0.000000 -0.450628
v -0.087402 0.000000 -0.451866
v -0.101665 0.000000 -0.446008
v 0.102867 0.000000 -0.440482
v -0.115940 0.000000 -0.439435
v 0.114932 0.000000 -0.427984
v -0.130216 0.000000 -0.432165
v -0.144478 0.000000 -0.424214
v 0.125382 0.000000 -0.412980
v -0.158716 0.000000 -0.415596
v 0.000917 0.000000 -0.415596
v -0.137615 0.000000 -0.366972
v -0.126041 0.000000 -0.373904
v -0.114292 0.000000 -0.380449
v -0.102423 0.000000 -0.386568
v -0.090486 0.000000 -0.392219
v -0.078536 0.000000 -0.397360
v -0.066628 0.000000 -0.401950
v -0.054816 0.000000 -0.405947
v -0.043153 0.000000 -0.409310
v -0.031694 0.000000 -0.411998
v -0.020494 0.000000 -0.413970
v -0.009605 0.000000 -0.415183
v 0.013208 0.000000 -0.414890
v 0.024397 0.000000 -0.412772
v 0.133959 0.000000 -0.395313
v 0.034490 0.000000 -0.409246
v 0.043493 0.000000 -0.404315
v 0.051413 0.000000 -0.397983
v 0.058257 0.000000 -0.390252
v 0.140405 0.000000 -0.374826
v 0.064030 0.000000 -0.381126
v 0.068739 0.000000 -0.370608
v 0.144462 0.000000 -0.351364
v 0.072391 0.000000 -0.358701
v 0.074992 0.000000 -0.345409
v 0.145872 0.000000 -0.324771
v 0.076547 0.000000 -0.330733
v 0.077064 0.000000 -0.314679
v 0.145872 0.000000 -0.148624
v 0.077064 0.000000 -0.272477
v 0.017505 0.000000 -0.271319
v 0.057798 0.000000 -0.272477
v 0.077064 0.000000 -0.218349
v -0.018599 0.000000 -0.267877
v -0.050645 0.000000 -0.262199
v -0.078763 0.000000 -0.254332
v -0.103084 0.000000 -0.244325
v -0.123739 0.000000 -0.232225
v -0.140857 0.000000 -0.218079
v 0.050459 0.000000 -0.218349
v 0.019830 0.000000 -0.217682
v 0.077064 0.000000 -0.116514
v -0.154570 0.000000 -0.201937
v -0.006647 0.000000 -0.215694
v -0.029257 0.000000 -0.212400
v -0.048284 0.000000 -0.207815
v -0.064010 0.000000 -0.201956
v -0.076720 0.000000 -0.194839
v -0.165009 0.000000 -0.183845
v -0.086697 0.000000 -0.186480
v -0.094224 0.000000 -0.176894
v -0.172303 0.000000 -0.163851
v -0.099584 0.000000 -0.166098
v -0.103062 0.000000 -0.154107
v -0.176584 0.000000 -0.142003
v -0.104941 0.000000 -0.140938
v 0.145927 0.000000 -0.131193
v -0.177982 0.000000 -0.118349
v -0.105505 0.000000 -0.126606
v 0.146084 0.000000 -0.115061
v -0.105009 0.000000 -0.114646
v -0.177049 0.000000 -0.099843
v 0.066907 0.000000 -0.105524
v 0.146330 0.000000 -0.100115
v -0.103530 0.000000 -0.103559
v 0.057042 0.000000 -0.095489
v -0.101075 0.000000 -0.093377
v 0.146653 0.000000 -0.086239
v -0.174269 0.000000 -0.082463
v 0.047420 0.000000 -0.086411
v -0.097655 0.000000 -0.084132
v 0.037988 0.000000 -0.078287
v 0.147040 0.000000 -0.073318
v -0.093280 0.000000 -0.075855
v -0.169667 0.000000 -0.066299
v 0.028697 0.000000 -0.071120
v -0.087959 0.000000 -0.068578
v 0.147477 0.000000 -0.061239
v 0.019495 0.000000 -0.064908
v -0.081701 0.000000 -0.062333
v -0.163269 0.000000 -0.051444
v 0.010332 0.000000 -0.059652
v -0.074516 0.000000 -0.057153
v 0.086239 0.000000 -0.055963
v 0.147953 0.000000 -0.049885
v 0.001155 0.000000 -0.055352
v -0.066413 0.000000 -0.053068
v 0.074561 0.000000 -0.045045
v 0.090826 0.000000 0.000000
v -0.008085 0.000000 -0.052007
v -0.057403 0.000000 -0.050110
v -0.017440 0.000000 -0.049618
v -0.155099 0.000000 -0.037991
v -0.047495 0.000000 -0.048313
v 0.148454 0.000000 -0.039144
v -0.026960 0.000000 -0.048184
v -0.036697 0.000000 -0.047706
v 0.063307 0.000000 -0.035211
v 0.148968 0.000000 -0.028899
v -0.145183 0.000000 -0.026032
v 0.052365 0.000000 -0.026433
v 0.149482 0.000000 -0.019037
v 0.041624 0.000000 -0.018688
v -0.133548 0.000000 -0.015659
v 0.149983 0.000000 -0.009442
v 0.030972 0.000000 -0.011950
v -0.120217 0.000000 -0.006966
v 0.020298 0.000000 -0.006193
v 0.150459 0.000000 0.000000
v -0.105218 0.000000 -0.000043
v 0.009490 0.000000 -0.001391
v -0.001563 -0.000000 0.002480
v -0.088575 -0.000000 0.005016
v -0.012973 -0.000000 0.005447
v -0.070313 -0.000000 0.008119
v -0.024851 -0.000000 0.007535
v -0.037309 -0.000000 0.008769
v -0.050459 -0.000000 0.009174
vt 0.717988 0.044841
vt 0.647316 0.015239
vt 0.689094 0.027511
vt 0.746770 0.063531
vt 0.605487 0.005761
vt 0.775061 0.083872
vt 0.563045 0.000489
vt 0.802700 0.105929
vt 0.829653 0.129705
vt 0.520308 0.000074
vt 0.855887 0.155131
vt 0.477624 0.005238
vt 0.881387 0.182147
vt 0.906162 0.210737
vt 0.435400 0.016549
vt 0.930178 0.240810
vt 0.394074 0.034660
vt 0.953427 0.272299
vt 0.975925 0.305200
vt 0.354056 0.060119
vt 0.999926 0.339132
vt 0.634457 0.179909
vt 0.945965 0.393204
vt 0.934102 0.377799
vt 0.921800 0.362821
vt 0.909112 0.348351
vt 0.896086 0.334472
vt 0.882773 0.321271
vt 0.869226 0.308830
vt 0.855495 0.297236
vt 0.841628 0.286570
vt 0.827679 0.276918
vt 0.812880 0.267840
vt 0.783650 0.251996
vt 0.600515 0.173433
vt 0.569167 0.167341
vt 0.319322 0.089968
vt 0.538839 0.165737
vt 0.509195 0.167826
vt 0.480096 0.173151
vt 0.451461 0.181089
vt 0.290619 0.121156
vt 0.423637 0.192051
vt 0.396045 0.204320
vt 0.266027 0.153595
vt 0.368893 0.218367
vt 0.341944 0.231976
vt 0.245240 0.184617
vt 0.314898 0.245706
vt 0.288464 0.256946
vt 0.098519 0.303936
vt 0.243590 0.289417
vt 0.256150 0.336812
vt 0.248212 0.304597
vt 0.199792 0.317353
vt 0.256923 0.358131
vt 0.256572 0.375008
vt 0.254942 0.389181
vt 0.251939 0.401273
vt 0.247564 0.411577
vt 0.241884 0.417400
vt 0.211307 0.343240
vt 0.223997 0.381640
vt 0.115741 0.376030
vt 0.244176 0.430040
vt 0.224994 0.393564
vt 0.227162 0.405611
vt 0.227343 0.413105
vt 0.226879 0.419281
vt 0.225713 0.424612
vt 0.248508 0.441270
vt 0.224530 0.429920
vt 0.222423 0.435109
vt 0.250935 0.454347
vt 0.219824 0.440723
vt 0.216182 0.446734
vt 0.250287 0.469464
vt 0.211699 0.453394
vt 0.084999 0.316019
vt 0.245776 0.485970
vt 0.206264 0.460775
vt 0.073125 0.327228
vt 0.201026 0.466852
vt 0.239714 0.499418
vt 0.114521 0.387775
vt 0.062871 0.337364
vt 0.195553 0.472306
vt 0.113363 0.398571
vt 0.189754 0.476992
vt 0.053765 0.346571
vt 0.231465 0.511744
vt 0.112829 0.408449
vt 0.183783 0.480746
vt 0.112689 0.417634
vt 0.045565 0.354851
vt 0.177549 0.483553
vt 0.221285 0.522415
vt 0.113122 0.426074
vt 0.171283 0.485250
vt 0.038053 0.362519
vt 0.113917 0.433927
vt 0.164857 0.485911
vt 0.209569 0.531051
vt 0.115276 0.441201
vt 0.158597 0.485321
vt 0.069442 0.401790
vt 0.031054 0.368636
vt 0.117225 0.447543
vt 0.152299 0.483640
vt 0.069725 0.415983
vt 0.033686 0.430615
vt 0.119533 0.453226
vt 0.146013 0.480874
vt 0.122364 0.458449
vt 0.196847 0.537363
vt 0.140042 0.476885
vt 0.024406 0.374394
vt 0.125728 0.463276
vt 0.134050 0.471925
vt 0.069182 0.427900
vt 0.018043 0.379864
vt 0.183876 0.541143
vt 0.069063 0.439248
vt 0.011908 0.385118
vt 0.069417 0.450053
vt 0.170504 0.543081
vt 0.005939 0.390229
vt 0.070322 0.460391
vt 0.156767 0.543081
vt 0.071845 0.470305
vt 0.000074 0.395269
vt 0.142707 0.541098
vt 0.074057 0.479842
vt 0.076964 0.489085
vt 0.128246 0.537200
vt 0.080675 0.498074
vt 0.113360 0.531335
vt 0.085252 0.506864
vt 0.090575 0.515660
vt 0.096405 0.524811
vn 0.000000 1.000000 0.000000
usemtl None
s 1
f 1/1/1 2/2/1 3/3/1
f 4/4/1 2/2/1 1/1/1
f 4/4/1 5/5/1 2/2/1
f 6/6/1 5/5/1 4/4/1
f 6/6/1 7/7/1 5/5/1
f 8/8/1 7/7/1 6/6/1
f 9/9/1 7/7/1 8/8/1
f 9/9/1 10/10/1 7/7/1
f 11/11/1 10/10/1 9/9/1
f 11/11/1 12/12/1 10/10/1
f 13/13/1 12/12/1 11/11/1
f 14/14/1 12/12/1 13/13/1
f 14/14/1 15/15/1 12/12/1
f 16/16/1 15/15/1 14/14/1
f 16/16/1 17/17/1 15/15/1
f 18/18/1 17/17/1 16/16/1
f 19/19/1 17/17/1 18/18/1
f 19/19/1 20/20/1 17/17/1
f 21/21/1 22/22/1 19/19/1
f 22/22/1 20/20/1 19/19/1
f 23/23/1 24/24/1 21/21/1
f 24/24/1 25/25/1 21/21/1
f 25/25/1 26/26/1 21/21/1
f 26/26/1 27/27/1 21/21/1
f 27/27/1 28/28/1 21/21/1
f 28/28/1 29/29/1 21/21/1
f 29/29/1 30/30/1 21/21/1
f 30/30/1 31/31/1 21/21/1
f 31/31/1 32/32/1 21/21/1
f 32/32/1 33/33/1 21/21/1
f 33/33/1 34/34/1 21/21/1
f 34/34/1 22/22/1 21/21/1
f 35/35/1 20/20/1 22/22/1
f 36/36/1 20/20/1 35/35/1
f 36/36/1 37/37/1 20/20/1
f 38/38/1 37/37/1 36/36/1
f 39/39/1 37/37/1 38/38/1
f 40/40/1 37/37/1 39/39/1
f 41/41/1 37/37/1 40/40/1
f 41/41/1 42/42/1 37/37/1
f 43/43/1 42/42/1 41/41/1
f 44/44/1 42/42/1 43/43/1
f 44/44/1 45/45/1 42/42/1
f 46/46/1 45/45/1 44/44/1
f 47/47/1 45/45/1 46/46/1
f 47/47/1 48/48/1 45/45/1
f 49/49/1 48/48/1 47/47/1
f 50/50/1 48/48/1 49/49/1
f 50/50/1 51/51/1 48/48/1
f 52/52/1 51/51/1 50/50/1
f 53/53/1 52/52/1 54/54/1
f 53/53/1 55/55/1 52/52/1
f 55/55/1 51/51/1 52/52/1
f 56/56/1 55/55/1 53/53/1
f 57/57/1 55/55/1 56/56/1
f 58/58/1 55/55/1 57/57/1
f 59/59/1 55/55/1 58/58/1
f 60/60/1 55/55/1 59/59/1
f 61/61/1 62/62/1 60/60/1
f 62/62/1 55/55/1 60/60/1
f 61/61/1 63/63/1 62/62/1
f 64/64/1 51/51/1 55/55/1
f 65/65/1 66/66/1 61/61/1
f 66/66/1 63/63/1 61/61/1
f 65/65/1 67/67/1 66/66/1
f 65/65/1 68/68/1 67/67/1
f 65/65/1 69/69/1 68/68/1
f 65/65/1 70/70/1 69/69/1
f 71/71/1 70/70/1 65/65/1
f 71/71/1 72/72/1 70/70/1
f 71/71/1 73/73/1 72/72/1
f 74/74/1 73/73/1 71/71/1
f 74/74/1 75/75/1 73/73/1
f 74/74/1 76/76/1 75/75/1
f 77/77/1 76/76/1 74/74/1
f 77/77/1 78/78/1 76/76/1
f 64/64/1 79/79/1 51/51/1
f 80/80/1 78/78/1 77/77/1
f 80/80/1 81/81/1 78/78/1
f 64/64/1 82/82/1 79/79/1
f 80/80/1 83/83/1 81/81/1
f 84/84/1 83/83/1 80/80/1
f 85/85/1 82/82/1 64/64/1
f 85/85/1 86/86/1 82/82/1
f 84/84/1 87/87/1 83/83/1
f 88/88/1 86/86/1 85/85/1
f 84/84/1 89/89/1 87/87/1
f 88/88/1 90/90/1 86/86/1
f 91/91/1 89/89/1 84/84/1
f 92/92/1 90/90/1 88/88/1
f 91/91/1 93/93/1 89/89/1
f 94/94/1 90/90/1 92/92/1
f 94/94/1 95/95/1 90/90/1
f 91/91/1 96/96/1 93/93/1
f 97/97/1 96/96/1 91/91/1
f 98/98/1 95/95/1 94/94/1
f 97/97/1 99/99/1 96/96/1
f 98/98/1 100/100/1 95/95/1
f 101/101/1 100/100/1 98/98/1
f 97/97/1 102/102/1 99/99/1
f 103/103/1 102/102/1 97/97/1
f 104/104/1 100/100/1 101/101/1
f 103/103/1 105/105/1 102/102/1
f 104/104/1 106/106/1 100/100/1
f 106/106/1 107/107/1 100/100/1
f 108/108/1 106/106/1 104/104/1
f 103/103/1 109/109/1 105/105/1
f 108/108/1 110/110/1 106/106/1
f 111/111/1 107/107/1 106/106/1
f 112/112/1 110/110/1 108/108/1
f 103/103/1 113/113/1 109/109/1
f 114/114/1 110/110/1 112/112/1
f 115/115/1 113/113/1 103/103/1
f 115/115/1 116/116/1 113/113/1
f 111/111/1 117/117/1 107/107/1
f 118/118/1 110/110/1 114/114/1
f 115/115/1 119/119/1 116/116/1
f 119/119/1 110/110/1 118/118/1
f 115/115/1 110/110/1 119/119/1
f 115/115/1 120/120/1 110/110/1
f 111/111/1 121/121/1 117/117/1
f 122/122/1 120/120/1 115/115/1
f 122/122/1 123/123/1 120/120/1
f 111/111/1 124/124/1 121/121/1
f 122/122/1 125/125/1 123/123/1
f 126/126/1 125/125/1 122/122/1
f 111/111/1 127/127/1 124/124/1
f 126/126/1 128/128/1 125/125/1
f 129/129/1 128/128/1 126/126/1
f 129/129/1 130/130/1 128/128/1
f 111/111/1 131/131/1 127/127/1
f 132/132/1 130/130/1 129/129/1
f 132/132/1 133/133/1 130/130/1
f 132/132/1 134/134/1 133/133/1
f 135/135/1 134/134/1 132/132/1
f 135/135/1 136/136/1 134/134/1
f 137/137/1 136/136/1 135/135/1
f 137/137/1 138/138/1 136/136/1
f 137/137/1 139/139/1 138/138/1
f 140/140/1 139/139/1 137/137/1
