# Blender v2.76 (sub 0) OBJ File: ''
# www.blender.org
mtllib B.mtl
o Text.001
v -0.157798 0.000000 -0.015596
v -0.088991 0.000000 -0.638532
v -0.157798 0.000000 -0.638532
v -0.088991 0.000000 -0.411009
v 0.021977 0.000000 -0.471034
v 0.058611 0.000000 -0.469729
v 0.033945 0.000000 -0.471560
v 0.010376 0.000000 -0.469495
v 0.080815 0.000000 -0.464331
v -0.000874 0.000000 -0.467001
v -0.011791 0.000000 -0.463609
v 0.100616 0.000000 -0.455505
v -0.022388 0.000000 -0.459375
v -0.032683 0.000000 -0.454358
v 0.118077 0.000000 -0.443391
v -0.042692 0.000000 -0.448614
v -0.052429 0.000000 -0.442202
v 0.133256 0.000000 -0.428130
v -0.061912 0.000000 -0.435178
v -0.071156 0.000000 -0.427599
v 0.146216 0.000000 -0.409862
v -0.080177 0.000000 -0.419524
v 0.019266 0.000000 -0.413761
v 0.010180 0.000000 -0.413250
v 0.034279 0.000000 -0.412276
v 0.001244 0.000000 -0.411731
v 0.047702 0.000000 -0.407917
v -0.007583 0.000000 -0.409232
v -0.088991 0.000000 -0.346789
v -0.079274 0.000000 -0.356972
v -0.069822 0.000000 -0.366403
v -0.060593 0.000000 -0.375057
v -0.051546 0.000000 -0.382909
v -0.042639 0.000000 -0.389932
v -0.033830 0.000000 -0.396101
v -0.025079 0.000000 -0.401391
v -0.016344 0.000000 -0.405776
v 0.157015 0.000000 -0.388727
v 0.059590 0.000000 -0.400831
v 0.069997 0.000000 -0.391165
v 0.078976 0.000000 -0.379066
v 0.165715 0.000000 -0.364866
v 0.086583 0.000000 -0.364679
v 0.172377 0.000000 -0.338417
v 0.092870 0.000000 -0.348151
v 0.097893 0.000000 -0.329630
v -0.088991 0.000000 -0.066972
v 0.177060 0.000000 -0.309523
v 0.101706 0.000000 -0.309260
v 0.179826 0.000000 -0.278321
v 0.104362 0.000000 -0.287190
v 0.105916 0.000000 -0.263565
v 0.180734 0.000000 -0.244954
v 0.106422 0.000000 -0.238532
v 0.179641 0.000000 -0.209907
v 0.105795 0.000000 -0.210898
v 0.103852 0.000000 -0.184964
v 0.176270 0.000000 -0.176504
v 0.100502 0.000000 -0.160866
v 0.170485 0.000000 -0.145011
v 0.095651 0.000000 -0.138736
v 0.162147 0.000000 -0.115698
v 0.089207 0.000000 -0.118709
v 0.081078 0.000000 -0.100917
v 0.151122 0.000000 -0.088832
v 0.071172 0.000000 -0.085496
v 0.137271 0.000000 -0.064679
v 0.059395 0.000000 -0.072579
v 0.045657 0.000000 -0.062299
v -0.083565 0.000000 -0.064299
v 0.120457 0.000000 -0.043508
v -0.077850 0.000000 -0.061791
v 0.029863 0.000000 -0.054791
v -0.071861 0.000000 -0.059461
v -0.065613 0.000000 -0.057322
v -0.059124 0.000000 -0.055388
v -0.052408 0.000000 -0.053670
v 0.011923 0.000000 -0.050188
v -0.045482 0.000000 -0.052181
v -0.038362 0.000000 -0.050934
v -0.031064 0.000000 -0.049943
v -0.008257 0.000000 -0.048624
v -0.023603 0.000000 -0.049218
v -0.015995 0.000000 -0.048775
v 0.100544 0.000000 -0.025586
v 0.077394 0.000000 -0.011181
v -0.147255 0.000000 -0.012429
v -0.136294 0.000000 -0.009370
v 0.050871 0.000000 -0.000561
v -0.124957 0.000000 -0.006451
v -0.113286 0.000000 -0.003704
v -0.101321 0.000000 -0.001161
v -0.089106 -0.000000 0.001147
v 0.020837 -0.000000 0.006008
v -0.076679 -0.000000 0.003187
v -0.064084 -0.000000 0.004927
v -0.051362 -0.000000 0.006336
v -0.012844 -0.000000 0.008257
v -0.038553 -0.000000 0.007382
v -0.025700 -0.000000 0.008033
vt 0.602075 0.890976
vt 0.210815 0.033855
vt 0.308942 0.000078
vt 0.318395 0.360858
vt 0.168023 0.312251
vt 0.121662 0.322368
vt 0.152657 0.314343
vt 0.183156 0.311534
vt 0.094625 0.334368
vt 0.198061 0.312114
vt 0.212750 0.313915
vt 0.071440 0.350181
vt 0.227225 0.316862
vt 0.241496 0.320877
vt 0.051995 0.369641
vt 0.255572 0.325884
vt 0.269455 0.331804
vt 0.036182 0.392583
vt 0.283154 0.338562
vt 0.296678 0.346082
vt 0.023890 0.418844
vt 0.310032 0.354286
vt 0.211535 0.380597
vt 0.246958 0.376792
vt 0.189646 0.387597
vt 0.250167 0.379289
vt 0.170362 0.397657
vt 0.256537 0.382239
vt 0.352750 0.446297
vt 0.336618 0.434655
vt 0.321765 0.424289
vt 0.308443 0.415327
vt 0.296860 0.407704
vt 0.286897 0.401035
vt 0.278189 0.395216
vt 0.270401 0.390181
vt 0.263258 0.385861
vt 0.011870 0.453038
vt 0.153802 0.411419
vt 0.140005 0.428727
vt 0.129009 0.449129
vt 0.004002 0.490629
vt 0.120747 0.472263
vt 0.000078 0.531789
vt 0.115158 0.498018
vt 0.112196 0.526324
vt 0.478939 0.847000
vt 0.000213 0.576291
vt 0.111779 0.556995
vt 0.004333 0.623909
vt 0.113826 0.589929
vt 0.118311 0.624914
vt 0.012465 0.674379
vt 0.125143 0.661769
vt 0.024677 0.726894
vt 0.134915 0.702178
vt 0.146505 0.739886
vt 0.040384 0.776412
vt 0.159879 0.774563
vt 0.059565 0.822401
vt 0.175050 0.805903
vt 0.082297 0.864343
vt 0.192039 0.833595
vt 0.210881 0.857371
vt 0.108685 0.901678
vt 0.231585 0.876888
vt 0.138775 0.933869
vt 0.254164 0.891839
vt 0.278660 0.902055
vt 0.471822 0.852586
vt 0.172528 0.960294
vt 0.464183 0.858071
vt 0.305063 0.907149
vt 0.456043 0.863423
vt 0.447423 0.868612
vt 0.438349 0.873604
vt 0.428840 0.878373
vt 0.333470 0.907029
vt 0.418921 0.882889
vt 0.408614 0.887123
vt 0.397941 0.891045
vt 0.363947 0.901474
vt 0.386922 0.894632
vt 0.375581 0.898053
vt 0.209536 0.980079
vt 0.250097 0.993299
vt 0.588072 0.902016
vt 0.573236 0.912678
vt 0.294244 0.999923
vt 0.557713 0.923094
vt 0.541480 0.933062
vt 0.524605 0.942538
vt 0.507163 0.951482
vt 0.342224 0.999923
vt 0.489252 0.960022
vt 0.470895 0.967983
vt 0.452168 0.975339
vt 0.394363 0.993055
vt 0.433119 0.981913
vt 0.414851 0.987550
vn -0.000000 1.000000 0.000000
usemtl None.001
s 1
f 1/1/1 2/2/1 3/3/1
f 1/1/1 4/4/1 2/2/1
f 5/5/1 6/6/1 7/7/1
f 8/8/1 6/6/1 5/5/1
f 8/8/1 9/9/1 6/6/1
f 10/10/1 9/9/1 8/8/1
f 11/11/1 9/9/1 10/10/1
f 11/11/1 12/12/1 9/9/1
f 13/13/1 12/12/1 11/11/1
f 14/14/1 12/12/1 13/13/1
f 14/14/1 15/15/1 12/12/1
f 16/16/1 15/15/1 14/14/1
f 17/17/1 15/15/1 16/16/1
f 17/17/1 18/18/1 15/15/1
f 19/19/1 18/18/1 17/17/1
f 20/20/1 18/18/1 19/19/1
f 20/20/1 21/21/1 18/18/1
f 22/22/1 21/21/1 20/20/1
f 4/4/1 23/23/1 22/22/1
f 23/23/1 21/21/1 22/22/1
f 4/4/1 24/24/1 23/23/1
f 25/25/1 21/21/1 23/23/1
f 4/4/1 26/26/1 24/24/1
f 27/27/1 21/21/1 25/25/1
f 4/4/1 28/28/1 26/26/1
f 1/1/1 29/29/1 4/4/1
f 29/29/1 30/30/1 4/4/1
f 30/30/1 31/31/1 4/4/1
f 31/31/1 32/32/1 4/4/1
f 32/32/1 33/33/1 4/4/1
f 33/33/1 34/34/1 4/4/1
f 34/34/1 35/35/1 4/4/1
f 35/35/1 36/36/1 4/4/1
f 36/36/1 37/37/1 4/4/1
f 37/37/1 28/28/1 4/4/1
f 27/27/1 38/38/1 21/21/1
f 39/39/1 38/38/1 27/27/1
f 40/40/1 38/38/1 39/39/1
f 41/41/1 38/38/1 40/40/1
f 41/41/1 42/42/1 38/38/1
f 43/43/1 42/42/1 41/41/1
f 43/43/1 44/44/1 42/42/1
f 45/45/1 44/44/1 43/43/1
f 46/46/1 44/44/1 45/45/1
f 1/1/1 47/47/1 29/29/1
f 46/46/1 48/48/1 44/44/1
f 49/49/1 48/48/1 46/46/1
f 49/49/1 50/50/1 48/48/1
f 51/51/1 50/50/1 49/49/1
f 52/52/1 50/50/1 51/51/1
f 52/52/1 53/53/1 50/50/1
f 54/54/1 53/53/1 52/52/1
f 54/54/1 55/55/1 53/53/1
f 56/56/1 55/55/1 54/54/1
f 57/57/1 55/55/1 56/56/1
f 57/57/1 58/58/1 55/55/1
f 59/59/1 58/58/1 57/57/1
f 59/59/1 60/60/1 58/58/1
f 61/61/1 60/60/1 59/59/1
f 61/61/1 62/62/1 60/60/1
f 63/63/1 62/62/1 61/61/1
f 64/64/1 62/62/1 63/63/1
f 64/64/1 65/65/1 62/62/1
f 66/66/1 65/65/1 64/64/1
f 66/66/1 67/67/1 65/65/1
f 68/68/1 67/67/1 66/66/1
f 69/69/1 67/67/1 68/68/1
f 1/1/1 70/70/1 47/47/1
f 69/69/1 71/71/1 67/67/1
f 1/1/1 72/72/1 70/70/1
f 73/73/1 71/71/1 69/69/1
f 1/1/1 74/74/1 72/72/1
f 1/1/1 75/75/1 74/74/1
f 1/1/1 76/76/1 75/75/1
f 1/1/1 77/77/1 76/76/1
f 78/78/1 71/71/1 73/73/1
f 1/1/1 79/79/1 77/77/1
f 1/1/1 80/80/1 79/79/1
f 1/1/1 81/81/1 80/80/1
f 82/82/1 71/71/1 78/78/1
f 1/1/1 83/83/1 81/81/1
f 1/1/1 84/84/1 83/83/1
f 1/1/1 82/82/1 84/84/1
f 1/1/1 71/71/1 82/82/1
f 1/1/1 85/85/1 71/71/1
f 1/1/1 86/86/1 85/85/1
f 87/87/1 86/86/1 1/1/1
f 88/88/1 86/86/1 87/87/1
f 88/88/1 89/89/1 86/86/1
f 90/90/1 89/89/1 88/88/1
f 91/91/1 89/89/1 90/90/1
f 92/92/1 89/89/1 91/91/1
f 93/93/1 89/89/1 92/92/1
f 93/93/1 94/94/1 89/89/1
f 95/95/1 94/94/1 93/93/1
f 96/96/1 94/94/1 95/95/1
f 97/97/1 94/94/1 96/96/1
f 97/97/1 98/98/1 94/94/1
f 99/99/1 98/98/1 97/97/1
f 100/100/1 98/98/1 99/99/1
