# Blender v2.76 (sub 0) OBJ File: ''
# www.blender.org
mtllib D.mtl
o Text.004
v 0.088991 0.000000 -0.462385
v 0.157798 0.000000 -0.638532
v 0.088991 0.000000 -0.638532
v 0.157798 0.000000 0.000000
v -0.020837 0.000000 -0.468393
v 0.018337 0.000000 -0.470585
v 0.012844 0.000000 -0.470642
v 0.024218 0.000000 -0.470413
v 0.030419 0.000000 -0.470126
v 0.036867 0.000000 -0.469725
v 0.043494 0.000000 -0.469209
v 0.050229 0.000000 -0.468578
v 0.057003 0.000000 -0.467833
v -0.050871 0.000000 -0.461825
v 0.063744 0.000000 -0.466973
v 0.070384 0.000000 -0.465998
v 0.076852 0.000000 -0.464908
v 0.083077 0.000000 -0.463704
v 0.083565 0.000000 -0.398087
v 0.088991 0.000000 -0.395413
v -0.077394 0.000000 -0.451204
v 0.065613 0.000000 -0.405063
v 0.071861 0.000000 -0.402924
v 0.077850 0.000000 -0.400595
v -0.100544 0.000000 -0.436799
v 0.045482 0.000000 -0.410204
v 0.052408 0.000000 -0.408716
v 0.059124 0.000000 -0.406998
v -0.120457 0.000000 -0.418877
v 0.015995 0.000000 -0.413611
v 0.023603 0.000000 -0.413167
v 0.031064 0.000000 -0.412443
v 0.038362 0.000000 -0.411451
v -0.137271 0.000000 -0.397706
v -0.011923 0.000000 -0.412197
v 0.008257 0.000000 -0.413761
v -0.029863 0.000000 -0.407594
v -0.045657 0.000000 -0.400086
v -0.059395 0.000000 -0.389806
v -0.151122 0.000000 -0.373554
v 0.088991 0.000000 -0.115596
v -0.071172 0.000000 -0.376889
v -0.081078 0.000000 -0.361468
v -0.162147 0.000000 -0.346687
v -0.089207 0.000000 -0.343677
v -0.170485 0.000000 -0.317374
v -0.095651 0.000000 -0.323649
v -0.100502 0.000000 -0.301519
v -0.176270 0.000000 -0.285882
v -0.103852 0.000000 -0.277421
v -0.179641 0.000000 -0.252478
v -0.105795 0.000000 -0.251488
v -0.180734 0.000000 -0.217431
v -0.106422 0.000000 -0.223853
v -0.105916 0.000000 -0.198820
v -0.179826 0.000000 -0.184064
v -0.104362 0.000000 -0.175195
v -0.177060 0.000000 -0.152863
v -0.101706 0.000000 -0.153125
v -0.097893 0.000000 -0.132756
v -0.172377 0.000000 -0.123968
v -0.092870 0.000000 -0.114234
v -0.165715 0.000000 -0.097520
v 0.079274 0.000000 -0.105413
v -0.086583 0.000000 -0.097706
v 0.069822 0.000000 -0.095982
v -0.078976 0.000000 -0.083320
v -0.157015 0.000000 -0.073658
v 0.060593 0.000000 -0.087328
v 0.051546 0.000000 -0.079477
v 0.096330 0.000000 -0.054128
v -0.069997 0.000000 -0.071220
v 0.042639 0.000000 -0.072454
v -0.146216 0.000000 -0.052523
v 0.033830 0.000000 -0.066284
v -0.059590 0.000000 -0.061554
v 0.025079 0.000000 -0.060994
v -0.047702 0.000000 -0.054468
v 0.016344 0.000000 -0.056609
v 0.007583 0.000000 -0.053154
v -0.034279 0.000000 -0.050109
v 0.085252 0.000000 -0.044018
v 0.100917 0.000000 0.000000
v -0.001244 0.000000 -0.050654
v -0.133256 0.000000 -0.034255
v -0.010180 0.000000 -0.049136
v -0.019266 0.000000 -0.048624
v 0.074448 0.000000 -0.034786
v 0.063847 0.000000 -0.026433
v -0.118077 0.000000 -0.018994
v 0.053381 0.000000 -0.018960
v -0.100616 0.000000 -0.006881
v 0.042978 0.000000 -0.012366
v 0.032569 0.000000 -0.006651
v -0.080815 -0.000000 0.001945
v 0.022083 0.000000 -0.001816
v 0.011451 -0.000000 0.002141
v -0.058611 -0.000000 0.007344
v 0.000602 -0.000000 0.005218
v -0.010533 -0.000000 0.007416
v -0.033945 -0.000000 0.009174
v -0.022026 -0.000000 0.008735
vt 0.310011 0.281297
vt 0.296910 0.000074
vt 0.394641 0.025698
vt 0.000074 0.870627
vt 0.361327 0.334366
vt 0.347132 0.312281
vt 0.349446 0.315153
vt 0.344569 0.309269
vt 0.341779 0.306168
vt 0.338777 0.303020
vt 0.335582 0.299866
vt 0.332224 0.296754
vt 0.328735 0.293731
vt 0.370340 0.352859
vt 0.325070 0.290850
vt 0.321329 0.288129
vt 0.317547 0.285606
vt 0.313762 0.283319
vt 0.290086 0.339899
vt 0.281210 0.350911
vt 0.371911 0.363257
vt 0.337858 0.351172
vt 0.329474 0.348541
vt 0.318335 0.345559
vt 0.379906 0.372495
vt 0.358713 0.362741
vt 0.356044 0.360343
vt 0.352058 0.357543
vt 0.392285 0.380436
vt 0.370633 0.376359
vt 0.370210 0.373627
vt 0.369423 0.370824
vt 0.367291 0.367488
vt 0.418289 0.389968
vt 0.378141 0.387534
vt 0.374377 0.381236
vt 0.383590 0.393824
vt 0.387517 0.401451
vt 0.390523 0.410728
vt 0.446815 0.403983
vt 0.150778 0.739392
vt 0.395875 0.421903
vt 0.401012 0.435969
vt 0.475471 0.426886
vt 0.407759 0.453575
vt 0.500806 0.459637
vt 0.415183 0.475402
vt 0.421947 0.501480
vt 0.522381 0.500686
vt 0.428065 0.532131
vt 0.538770 0.549053
vt 0.432860 0.567286
vt 0.549759 0.603295
vt 0.435778 0.606752
vt 0.436341 0.643986
vt 0.555055 0.657761
vt 0.434682 0.680153
vt 0.555055 0.710673
vt 0.430681 0.714748
vt 0.424167 0.747274
vt 0.549641 0.761402
vt 0.415254 0.777060
vt 0.538827 0.808875
vt 0.160122 0.758022
vt 0.403996 0.803467
vt 0.169522 0.775666
vt 0.390403 0.826330
vt 0.522634 0.852148
vt 0.179029 0.792296
vt 0.189798 0.806039
vt 0.115971 0.825665
vt 0.374696 0.844888
vt 0.200826 0.818714
vt 0.501213 0.890493
vt 0.212114 0.830227
vt 0.357118 0.858646
vt 0.223652 0.840535
vt 0.337575 0.867768
vt 0.235497 0.849521
vt 0.247682 0.857176
vt 0.316109 0.872101
vt 0.126756 0.848758
vt 0.081117 0.900385
vt 0.260360 0.862779
vt 0.475716 0.922706
vt 0.272437 0.866545
vt 0.293379 0.870706
vt 0.139843 0.869770
vt 0.153113 0.889471
vt 0.448322 0.948025
vt 0.166785 0.907749
vt 0.417389 0.968042
vt 0.180957 0.924547
vt 0.195619 0.940010
vt 0.382811 0.982831
vt 0.210984 0.953899
vt 0.227049 0.966464
vt 0.344283 0.992632
vt 0.244027 0.977301
vt 0.261904 0.986892
vt 0.301113 0.999925
vt 0.280957 0.994069
vn -0.000000 1.000000 0.000000
usemtl None.004
s 1
f 1/1/1 2/2/1 3/3/1
f 1/1/1 4/4/1 2/2/1
f 5/5/1 6/6/1 7/7/1
f 5/5/1 8/8/1 6/6/1
f 5/5/1 9/9/1 8/8/1
f 5/5/1 10/10/1 9/9/1
f 5/5/1 11/11/1 10/10/1
f 5/5/1 12/12/1 11/11/1
f 5/5/1 13/13/1 12/12/1
f 14/14/1 13/13/1 5/5/1
f 14/14/1 15/15/1 13/13/1
f 14/14/1 16/16/1 15/15/1
f 14/14/1 17/17/1 16/16/1
f 14/14/1 18/18/1 17/17/1
f 14/14/1 1/1/1 18/18/1
f 14/14/1 19/19/1 1/1/1
f 19/19/1 20/20/1 1/1/1
f 20/20/1 4/4/1 1/1/1
f 21/21/1 22/22/1 14/14/1
f 22/22/1 23/23/1 14/14/1
f 23/23/1 24/24/1 14/14/1
f 24/24/1 19/19/1 14/14/1
f 25/25/1 26/26/1 21/21/1
f 26/26/1 27/27/1 21/21/1
f 27/27/1 28/28/1 21/21/1
f 28/28/1 22/22/1 21/21/1
f 29/29/1 30/30/1 25/25/1
f 30/30/1 31/31/1 25/25/1
f 31/31/1 32/32/1 25/25/1
f 32/32/1 33/33/1 25/25/1
f 33/33/1 26/26/1 25/25/1
f 34/34/1 35/35/1 29/29/1
f 35/35/1 36/36/1 29/29/1
f 36/36/1 30/30/1 29/29/1
f 34/34/1 37/37/1 35/35/1
f 34/34/1 38/38/1 37/37/1
f 34/34/1 39/39/1 38/38/1
f 40/40/1 39/39/1 34/34/1
f 41/41/1 4/4/1 20/20/1
f 40/40/1 42/42/1 39/39/1
f 40/40/1 43/43/1 42/42/1
f 44/44/1 43/43/1 40/40/1
f 44/44/1 45/45/1 43/43/1
f 46/46/1 45/45/1 44/44/1
f 46/46/1 47/47/1 45/45/1
f 46/46/1 48/48/1 47/47/1
f 49/49/1 48/48/1 46/46/1
f 49/49/1 50/50/1 48/48/1
f 51/51/1 50/50/1 49/49/1
f 51/51/1 52/52/1 50/50/1
f 53/53/1 52/52/1 51/51/1
f 53/53/1 54/54/1 52/52/1
f 53/53/1 55/55/1 54/54/1
f 56/56/1 55/55/1 53/53/1
f 56/56/1 57/57/1 55/55/1
f 58/58/1 57/57/1 56/56/1
f 58/58/1 59/59/1 57/57/1
f 58/58/1 60/60/1 59/59/1
f 61/61/1 60/60/1 58/58/1
f 61/61/1 62/62/1 60/60/1
f 63/63/1 62/62/1 61/61/1
f 64/64/1 4/4/1 41/41/1
f 63/63/1 65/65/1 62/62/1
f 66/66/1 4/4/1 64/64/1
f 63/63/1 67/67/1 65/65/1
f 68/68/1 67/67/1 63/63/1
f 69/69/1 4/4/1 66/66/1
f 70/70/1 71/71/1 69/69/1
f 71/71/1 4/4/1 69/69/1
f 68/68/1 72/72/1 67/67/1
f 73/73/1 71/71/1 70/70/1
f 74/74/1 72/72/1 68/68/1
f 75/75/1 71/71/1 73/73/1
f 74/74/1 76/76/1 72/72/1
f 77/77/1 71/71/1 75/75/1
f 74/74/1 78/78/1 76/76/1
f 79/79/1 71/71/1 77/77/1
f 80/80/1 71/71/1 79/79/1
f 74/74/1 81/81/1 78/78/1
f 80/80/1 82/82/1 71/71/1
f 83/83/1 4/4/1 71/71/1
f 84/84/1 82/82/1 80/80/1
f 85/85/1 81/81/1 74/74/1
f 86/86/1 82/82/1 84/84/1
f 85/85/1 87/87/1 81/81/1
f 87/87/1 82/82/1 86/86/1
f 85/85/1 82/82/1 87/87/1
f 85/85/1 88/88/1 82/82/1
f 85/85/1 89/89/1 88/88/1
f 90/90/1 89/89/1 85/85/1
f 90/90/1 91/91/1 89/89/1
f 92/92/1 91/91/1 90/90/1
f 92/92/1 93/93/1 91/91/1
f 92/92/1 94/94/1 93/93/1
f 95/95/1 94/94/1 92/92/1
f 95/95/1 96/96/1 94/94/1
f 95/95/1 97/97/1 96/96/1
f 98/98/1 97/97/1 95/95/1
f 98/98/1 99/99/1 97/97/1
f 98/98/1 100/100/1 99/99/1
f 101/101/1 100/100/1 98/98/1
f 101/101/1 102/102/1 100/100/1
