# Blender v2.76 (sub 0) OBJ File: ''
# www.blender.org
mtllib E.mtl
o Text.005
v -0.020087 0.000000 -0.469779
v 0.032093 0.000000 -0.469911
v 0.005963 0.000000 -0.471560
v 0.056282 0.000000 -0.464942
v -0.044491 0.000000 -0.464424
v 0.078426 0.000000 -0.456623
v -0.067130 0.000000 -0.455476
v 0.098420 0.000000 -0.444920
v -0.087887 0.000000 -0.442915
v 0.116159 0.000000 -0.429803
v -0.106642 0.000000 -0.426723
v 0.131537 0.000000 -0.411239
v -0.123280 0.000000 -0.406881
v -0.013421 0.000000 -0.414659
v 0.000459 0.000000 -0.415596
v 0.014441 0.000000 -0.414607
v -0.026172 0.000000 -0.411846
v 0.027451 0.000000 -0.411655
v -0.037815 0.000000 -0.407153
v 0.039435 0.000000 -0.406766
v 0.144449 0.000000 -0.389196
v -0.048369 0.000000 -0.400578
v -0.137681 0.000000 -0.383368
v 0.050340 0.000000 -0.399966
v -0.057852 0.000000 -0.392116
v 0.060110 0.000000 -0.391280
v -0.066284 0.000000 -0.381766
v 0.068693 0.000000 -0.380734
v 0.154791 0.000000 -0.363643
v -0.149728 0.000000 -0.356167
v -0.073684 0.000000 -0.369524
v 0.076033 0.000000 -0.368353
v -0.080071 0.000000 -0.355386
v 0.082076 0.000000 -0.354162
v 0.162457 0.000000 -0.334547
v -0.159303 0.000000 -0.325258
v -0.085464 0.000000 -0.339349
v 0.086769 0.000000 -0.338188
v -0.089883 0.000000 -0.321411
v 0.090057 0.000000 -0.320455
v 0.167342 0.000000 -0.301877
v -0.166289 0.000000 -0.290622
v -0.093345 0.000000 -0.301568
v 0.091886 0.000000 -0.300990
v 0.169341 0.000000 -0.265602
v -0.095872 0.000000 -0.279817
v 0.092202 0.000000 -0.279817
v -0.170566 0.000000 -0.252239
v 0.168349 0.000000 -0.225688
v -0.172018 0.000000 -0.210092
v -0.098624 0.000000 -0.225688
v -0.098053 0.000000 -0.194048
v -0.170831 0.000000 -0.173400
v -0.095893 0.000000 -0.165996
v -0.167261 0.000000 -0.140333
v -0.092159 0.000000 -0.141370
v -0.086867 0.000000 -0.120014
v -0.161296 0.000000 -0.110808
v -0.080034 0.000000 -0.101766
v -0.152922 0.000000 -0.084743
v -0.071674 0.000000 -0.086468
v 0.130249 0.000000 -0.091134
v 0.172018 0.000000 -0.051376
v 0.142661 0.000000 -0.099083
v 0.118217 0.000000 -0.083809
v -0.061805 0.000000 -0.073960
v -0.142127 0.000000 -0.062055
v 0.106522 0.000000 -0.077122
v 0.095124 0.000000 -0.071084
v -0.050442 0.000000 -0.064084
v 0.083981 0.000000 -0.065709
v 0.073050 0.000000 -0.061009
v -0.037600 0.000000 -0.056680
v -0.128899 0.000000 -0.042661
v 0.062292 0.000000 -0.056998
v 0.051665 0.000000 -0.053687
v -0.023297 0.000000 -0.051589
v 0.041127 0.000000 -0.051089
v -0.007547 0.000000 -0.048650
v 0.159814 0.000000 -0.043247
v 0.030636 0.000000 -0.049218
v 0.020152 0.000000 -0.048087
v 0.009633 0.000000 -0.047706
v 0.147469 0.000000 -0.035423
v -0.113224 0.000000 -0.026477
v 0.134920 0.000000 -0.027982
v 0.122103 0.000000 -0.020999
v -0.095090 0.000000 -0.013422
v 0.108956 0.000000 -0.014551
v 0.095413 0.000000 -0.008716
v -0.074484 0.000000 -0.003412
v 0.081411 0.000000 -0.003568
v 0.066888 -0.000000 0.000815
v -0.051393 -0.000000 0.003636
v 0.051778 -0.000000 0.004358
v -0.025805 -0.000000 0.007803
v 0.036018 -0.000000 0.006983
v 0.019544 -0.000000 0.008614
v 0.002294 -0.000000 0.009174
vt 0.382162 0.002347
vt 0.273990 0.004946
vt 0.328064 0.000084
vt 0.224122 0.016581
vt 0.433044 0.012108
vt 0.178678 0.035047
vt 0.480465 0.029413
vt 0.137878 0.060410
vt 0.524183 0.054311
vt 0.101940 0.092725
vt 0.563950 0.086846
vt 0.071086 0.132055
vt 0.599624 0.127079
vt 0.371270 0.117026
vt 0.342427 0.115826
vt 0.313627 0.120233
vt 0.397882 0.122173
vt 0.286856 0.126860
vt 0.422299 0.131282
vt 0.262291 0.137456
vt 0.045296 0.178499
vt 0.444561 0.144356
vt 0.630875 0.175061
vt 0.240038 0.151992
vt 0.464715 0.161401
vt 0.220226 0.170391
vt 0.482794 0.182424
vt 0.202965 0.192603
vt 0.025051 0.232171
vt 0.657456 0.230844
vt 0.498847 0.207428
vt 0.188371 0.218594
vt 0.512904 0.236424
vt 0.176567 0.248290
vt 0.010614 0.293093
vt 0.679113 0.294481
vt 0.525010 0.269417
vt 0.167662 0.281644
vt 0.535201 0.306411
vt 0.161777 0.318590
vt 0.002221 0.361297
vt 0.695597 0.366015
vt 0.543515 0.347416
vt 0.159025 0.359070
vt 0.000084 0.436812
vt 0.549995 0.392436
vt 0.159516 0.403024
vt 0.706650 0.445492
vt 0.004380 0.519641
vt 0.712053 0.532935
vt 0.558739 0.504679
vt 0.559325 0.570440
vt 0.711676 0.609213
vt 0.556416 0.628848
vt 0.706149 0.678108
vt 0.550049 0.680235
vt 0.540264 0.724923
vt 0.695452 0.739793
vt 0.527103 0.763246
vt 0.679554 0.794434
vt 0.510602 0.795529
vt 0.075379 0.821630
vt 0.011539 0.889571
vt 0.054627 0.809917
vt 0.095461 0.832370
vt 0.490807 0.822104
vt 0.658434 0.842207
vt 0.114942 0.842110
vt 0.133884 0.850829
vt 0.467756 0.843296
vt 0.152356 0.858501
vt 0.170424 0.865103
vt 0.441491 0.859437
vt 0.632068 0.883281
vt 0.188152 0.870608
vt 0.205606 0.874995
vt 0.412054 0.870855
vt 0.222849 0.878239
vt 0.379484 0.877886
vt 0.031971 0.901593
vt 0.239949 0.880313
vt 0.266773 0.881880
vt 0.343810 0.882162
vt 0.058157 0.917022
vt 0.600585 0.917981
vt 0.084739 0.931639
vt 0.111845 0.945286
vt 0.563778 0.946345
vt 0.139611 0.957804
vt 0.168156 0.969018
vt 0.521628 0.968547
vt 0.197603 0.978772
vt 0.228083 0.986901
vt 0.474113 0.984761
vt 0.259724 0.993245
vt 0.421212 0.995157
vt 0.292658 0.997637
vt 0.327011 0.999915
vt 0.362900 0.999916
vn 0.000000 1.000000 0.000000
usemtl None.005
s 1
f 1/1/1 2/2/1 3/3/1
f 1/1/1 4/4/1 2/2/1
f 5/5/1 4/4/1 1/1/1
f 5/5/1 6/6/1 4/4/1
f 7/7/1 6/6/1 5/5/1
f 7/7/1 8/8/1 6/6/1
f 9/9/1 8/8/1 7/7/1
f 9/9/1 10/10/1 8/8/1
f 11/11/1 10/10/1 9/9/1
f 11/11/1 12/12/1 10/10/1
f 13/13/1 14/14/1 11/11/1
f 14/14/1 15/15/1 11/11/1
f 15/15/1 12/12/1 11/11/1
f 16/16/1 12/12/1 15/15/1
f 13/13/1 17/17/1 14/14/1
f 18/18/1 12/12/1 16/16/1
f 13/13/1 19/19/1 17/17/1
f 20/20/1 12/12/1 18/18/1
f 20/20/1 21/21/1 12/12/1
f 13/13/1 22/22/1 19/19/1
f 23/23/1 22/22/1 13/13/1
f 24/24/1 21/21/1 20/20/1
f 23/23/1 25/25/1 22/22/1
f 26/26/1 21/21/1 24/24/1
f 23/23/1 27/27/1 25/25/1
f 28/28/1 21/21/1 26/26/1
f 28/28/1 29/29/1 21/21/1
f 30/30/1 27/27/1 23/23/1
f 30/30/1 31/31/1 27/27/1
f 32/32/1 29/29/1 28/28/1
f 30/30/1 33/33/1 31/31/1
f 34/34/1 29/29/1 32/32/1
f 34/34/1 35/35/1 29/29/1
f 36/36/1 33/33/1 30/30/1
f 36/36/1 37/37/1 33/33/1
f 38/38/1 35/35/1 34/34/1
f 36/36/1 39/39/1 37/37/1
f 40/40/1 35/35/1 38/38/1
f 40/40/1 41/41/1 35/35/1
f 42/42/1 39/39/1 36/36/1
f 42/42/1 43/43/1 39/39/1
f 44/44/1 41/41/1 40/40/1
f 44/44/1 45/45/1 41/41/1
f 42/42/1 46/46/1 43/43/1
f 47/47/1 45/45/1 44/44/1
f 48/48/1 46/46/1 42/42/1
f 48/48/1 47/47/1 46/46/1
f 48/48/1 45/45/1 47/47/1
f 48/48/1 49/49/1 45/45/1
f 50/50/1 51/51/1 48/48/1
f 51/51/1 49/49/1 48/48/1
f 50/50/1 52/52/1 51/51/1
f 53/53/1 52/52/1 50/50/1
f 53/53/1 54/54/1 52/52/1
f 55/55/1 54/54/1 53/53/1
f 55/55/1 56/56/1 54/54/1
f 55/55/1 57/57/1 56/56/1
f 58/58/1 57/57/1 55/55/1
f 58/58/1 59/59/1 57/57/1
f 60/60/1 59/59/1 58/58/1
f 60/60/1 61/61/1 59/59/1
f 62/62/1 63/63/1 64/64/1
f 65/65/1 63/63/1 62/62/1
f 60/60/1 66/66/1 61/61/1
f 67/67/1 66/66/1 60/60/1
f 68/68/1 63/63/1 65/65/1
f 69/69/1 63/63/1 68/68/1
f 67/67/1 70/70/1 66/66/1
f 71/71/1 63/63/1 69/69/1
f 72/72/1 63/63/1 71/71/1
f 67/67/1 73/73/1 70/70/1
f 74/74/1 73/73/1 67/67/1
f 75/75/1 63/63/1 72/72/1
f 76/76/1 63/63/1 75/75/1
f 74/74/1 77/77/1 73/73/1
f 78/78/1 63/63/1 76/76/1
f 74/74/1 79/79/1 77/77/1
f 78/78/1 80/80/1 63/63/1
f 81/81/1 80/80/1 78/78/1
f 82/82/1 80/80/1 81/81/1
f 74/74/1 83/83/1 79/79/1
f 83/83/1 80/80/1 82/82/1
f 74/74/1 80/80/1 83/83/1
f 74/74/1 84/84/1 80/80/1
f 85/85/1 84/84/1 74/74/1
f 85/85/1 86/86/1 84/84/1
f 85/85/1 87/87/1 86/86/1
f 88/88/1 87/87/1 85/85/1
f 88/88/1 89/89/1 87/87/1
f 88/88/1 90/90/1 89/89/1
f 91/91/1 90/90/1 88/88/1
f 91/91/1 92/92/1 90/90/1
f 91/91/1 93/93/1 92/92/1
f 94/94/1 93/93/1 91/91/1
f 94/94/1 95/95/1 93/93/1
f 96/96/1 95/95/1 94/94/1
f 96/96/1 97/97/1 95/95/1
f 96/96/1 98/98/1 97/97/1
f 99/99/1 98/98/1 96/96/1
