# Blender v2.76 (sub 0) OBJ File: ''
# www.blender.org
mtllib F.mtl
o Text.006
v 0.061584 0.000000 -0.642792
v 0.090897 0.000000 -0.643999
v 0.086239 0.000000 -0.644037
v 0.095676 0.000000 -0.643884
v 0.100545 0.000000 -0.643693
v 0.105471 0.000000 -0.643425
v 0.110422 0.000000 -0.643081
v 0.115367 0.000000 -0.642661
v 0.040227 0.000000 -0.639127
v 0.120274 0.000000 -0.642164
v 0.125110 0.000000 -0.641590
v 0.129845 0.000000 -0.640940
v 0.134446 0.000000 -0.640214
v 0.138881 0.000000 -0.639411
v 0.143119 0.000000 -0.638532
v 0.021947 0.000000 -0.633142
v 0.134862 0.000000 -0.582569
v 0.006524 0.000000 -0.624941
v -0.006261 0.000000 -0.614624
v -0.016628 0.000000 -0.602294
v 0.122334 0.000000 -0.584447
v 0.126538 0.000000 -0.583864
v 0.130716 0.000000 -0.583237
v -0.024798 0.000000 -0.588052
v 0.084404 0.000000 -0.587156
v 0.088550 0.000000 -0.587118
v 0.092729 0.000000 -0.587007
v 0.096932 0.000000 -0.586826
v 0.101155 0.000000 -0.586578
v 0.105391 0.000000 -0.586267
v 0.109633 0.000000 -0.585894
v 0.113875 0.000000 -0.585465
v 0.118111 0.000000 -0.584981
v -0.030989 0.000000 -0.572001
v 0.073666 0.000000 -0.586508
v 0.064331 0.000000 -0.584569
v 0.056307 0.000000 -0.581350
v 0.049507 0.000000 -0.576860
v 0.043841 0.000000 -0.571109
v -0.035421 0.000000 -0.554243
v 0.039220 0.000000 -0.564105
v 0.035555 0.000000 -0.555860
v 0.032756 0.000000 -0.546381
v -0.038316 0.000000 -0.534879
v 0.030734 0.000000 -0.535679
v 0.029400 0.000000 -0.523764
v -0.039891 0.000000 -0.514012
v 0.028665 0.000000 -0.510644
v -0.040367 0.000000 -0.491743
v 0.028440 0.000000 -0.496330
v 0.028440 0.000000 -0.462385
v -0.040367 0.000000 -0.462385
v -0.108257 0.000000 -0.406422
v -0.108257 0.000000 -0.462385
v 0.114679 0.000000 -0.462385
v 0.110092 0.000000 -0.406422
v -0.040367 0.000000 -0.406422
v -0.040367 0.000000 0.000000
v 0.028440 0.000000 -0.406422
v 0.028440 0.000000 0.000000
vt 0.474987 0.491091
vt 0.459405 0.308491
vt 0.464560 0.337255
vt 0.453168 0.279132
vt 0.445836 0.249401
vt 0.437410 0.219497
vt 0.427905 0.189653
vt 0.417351 0.160076
vt 0.474988 0.626463
vt 0.404948 0.130934
vt 0.391577 0.102496
vt 0.377296 0.074958
vt 0.362182 0.048551
vt 0.346332 0.023514
vt 0.329855 0.000069
vt 0.463644 0.746127
vt 0.000069 0.127367
vt 0.434863 0.851422
vt 0.389555 0.943546
vt 0.361003 0.986072
vt 0.184193 0.577178
vt 0.146204 0.487392
vt 0.089864 0.351121
vt 0.360236 0.987203
vt 0.356183 0.979070
vt 0.355654 0.977973
vt 0.354908 0.976436
vt 0.353801 0.974151
vt 0.352025 0.970452
vt 0.348827 0.963666
vt 0.341571 0.947759
vt 0.315020 0.884628
vt 0.270814 0.782396
vt 0.359415 0.988110
vt 0.356985 0.981000
vt 0.357447 0.982720
vt 0.357498 0.983233
vt 0.357449 0.983717
vt 0.357301 0.984176
vt 0.358598 0.988835
vt 0.357058 0.984614
vt 0.356723 0.985035
vt 0.356299 0.985445
vt 0.357654 0.989523
vt 0.355789 0.985848
vt 0.355195 0.986248
vt 0.356593 0.990183
vt 0.354521 0.986649
vt 0.355428 0.990824
vt 0.353770 0.987056
vt 0.351974 0.987994
vt 0.353875 0.991635
vt 0.352790 0.996773
vt 0.355751 0.995226
vt 0.349592 0.983432
vt 0.346758 0.985220
vt 0.349723 0.991023
vt 0.332663 0.999931
vt 0.348215 0.988135
vt 0.331155 0.997043
vn 0.000000 1.000000 0.000000
vn 0.000000 0.000000 1.000000
vn 0.000000 0.000000 -1.000000
usemtl None.006
s 1
f 1/1/1 2/2/1 3/3/1
f 1/1/1 4/4/1 2/2/1
f 1/1/1 5/5/1 4/4/1
f 1/1/1 6/6/1 5/5/1
f 1/1/1 7/7/1 6/6/1
f 1/1/1 8/8/1 7/7/1
f 9/9/1 8/8/1 1/1/1
f 9/9/1 10/10/1 8/8/1
f 9/9/1 11/11/1 10/10/1
f 9/9/1 12/12/1 11/11/1
f 9/9/1 13/13/1 12/12/1
f 9/9/1 14/14/1 13/13/1
f 9/9/1 15/15/1 14/14/1
f 16/16/1 15/15/1 9/9/1
f 16/16/1 17/17/1 15/15/1
f 18/18/1 17/17/1 16/16/1
f 19/19/1 17/17/1 18/18/1
f 20/20/1 21/21/1 19/19/1
f 21/21/1 22/22/1 19/19/1
f 22/22/1 23/23/1 19/19/1
f 23/23/1 17/17/1 19/19/1
f 24/24/1 25/25/1 20/20/1
f 25/25/1 26/26/1 20/20/1
f 26/26/1 27/27/1 20/20/1
f 27/27/1 28/28/1 20/20/1
f 28/28/1 29/29/1 20/20/1
f 29/29/1 30/30/1 20/20/1
f 30/30/1 31/31/1 20/20/1
f 31/31/1 32/32/1 20/20/1
f 32/32/1 33/33/1 20/20/1
f 33/33/1 21/21/1 20/20/1
f 34/34/1 35/35/1 24/24/1
f 35/35/1 25/25/1 24/24/1
f 34/34/1 36/36/1 35/35/1
f 34/34/1 37/37/1 36/36/1
f 34/34/1 38/38/1 37/37/1
f 34/34/1 39/39/1 38/38/1
f 40/40/1 39/39/1 34/34/1
f 40/40/1 41/41/1 39/39/1
f 40/40/1 42/42/1 41/41/1
f 40/40/1 43/43/1 42/42/1
f 44/44/1 43/43/1 40/40/1
f 44/44/1 45/45/1 43/43/1
f 44/44/1 46/46/1 45/45/1
f 47/47/1 46/46/1 44/44/1
f 47/47/1 48/48/1 46/46/1
f 49/49/1 48/48/1 47/47/1
f 49/49/1 50/50/1 48/48/1
f 49/49/1 51/51/1 50/50/1
f 52/52/1 51/51/1 49/49/1
f 53/53/1 52/52/1 54/54/1
f 53/53/1 51/51/1 52/52/1
f 53/53/1 55/55/1 51/51/1
f 53/53/1 56/56/1 55/55/1
f 57/57/2 56/56/2 53/53/2
f 58/58/1 59/59/1 57/57/1
f 59/59/3 56/56/3 57/57/3
f 58/58/1 60/60/1 59/59/1
