# Blender v2.76 (sub 0) OBJ File: ''
# www.blender.org
mtllib K.mtl
o Text.011
v -0.116514 0.000000 0.000000
v -0.047706 0.000000 -0.638532
v -0.116514 0.000000 -0.638532
v -0.047706 0.000000 -0.262385
v 0.161468 0.000000 -0.462385
v 0.078899 0.000000 -0.462385
v 0.022018 0.000000 -0.260550
v -0.047706 0.000000 -0.250459
v 0.176147 0.000000 0.000000
v -0.047706 0.000000 0.000000
v 0.090826 0.000000 0.000000
vt 0.829952 0.000072
vt 0.000072 0.089500
vt 0.000072 0.000073
vt 0.488939 0.089500
vt 0.099447 0.496862
vt 0.099446 0.336061
vt 0.492513 0.225286
vt 0.512165 0.089500
vt 0.999928 0.525444
vt 0.830494 0.087526
vt 0.999927 0.359284
vn 0.000000 1.000000 0.000000
usemtl None.011
s 1
f 1/1/1 2/2/1 3/3/1
f 1/1/1 4/4/1 2/2/1
f 4/4/1 5/5/1 6/6/1
f 4/4/1 7/7/1 5/5/1
f 1/1/1 8/8/1 4/4/1
f 8/8/1 7/7/1 4/4/1
f 8/8/1 9/9/1 7/7/1
f 1/1/1 10/10/1 8/8/1
f 11/11/1 9/9/1 8/8/1
