# Blender v2.76 (sub 0) OBJ File: ''
# www.blender.org
mtllib N.mtl
o Text.014
v 0.026668 0.000000 -0.471120
v 0.056683 0.000000 -0.470568
v 0.038991 0.000000 -0.471560
v 0.014874 0.000000 -0.469801
v 0.073038 0.000000 -0.467525
v 0.003526 0.000000 -0.467603
v -0.007458 0.000000 -0.464526
v 0.088016 0.000000 -0.462328
v -0.018163 0.000000 -0.460570
v -0.153670 0.000000 0.000000
v -0.096789 0.000000 -0.462385
v -0.153670 0.000000 -0.462385
v -0.092202 0.000000 -0.408257
v 0.101580 0.000000 -0.454876
v -0.028670 0.000000 -0.455734
v -0.039062 0.000000 -0.450019
v 0.113691 0.000000 -0.445067
v -0.049422 0.000000 -0.443425
v 0.124312 0.000000 -0.432798
v -0.059834 0.000000 -0.435952
v -0.070379 0.000000 -0.427599
v 0.133403 0.000000 -0.417968
v -0.081141 0.000000 -0.418368
v 0.017959 0.000000 -0.414202
v 0.027064 0.000000 -0.414679
v 0.036121 0.000000 -0.413958
v 0.140928 0.000000 -0.400476
v 0.008962 0.000000 -0.412772
v 0.044474 0.000000 -0.411744
v 0.000029 0.000000 -0.410393
v 0.052107 0.000000 -0.407956
v -0.008885 0.000000 -0.407068
v -0.084862 0.000000 -0.346789
v -0.074496 0.000000 -0.357568
v -0.064467 0.000000 -0.367427
v -0.054731 0.000000 -0.376362
v -0.045243 0.000000 -0.384370
v -0.035959 0.000000 -0.391447
v -0.026835 0.000000 -0.397592
v -0.017825 0.000000 -0.402800
v 0.059004 0.000000 -0.402514
v 0.065150 0.000000 -0.395340
v 0.146846 0.000000 -0.380218
v 0.070528 0.000000 -0.386353
v 0.075122 0.000000 -0.375474
v 0.151121 0.000000 -0.357093
v 0.078916 0.000000 -0.362623
v 0.081895 0.000000 -0.347721
v 0.153714 0.000000 -0.330999
v 0.084043 0.000000 -0.330687
v -0.084862 0.000000 0.000000
v 0.154587 0.000000 -0.301835
v 0.085343 0.000000 -0.311443
v 0.085780 0.000000 -0.289908
v 0.154587 0.000000 0.000000
v 0.085780 0.000000 0.000000
vt 0.116128 0.135274
vt 0.069688 0.164931
vt 0.096421 0.146407
vt 0.135851 0.126023
vt 0.047013 0.185383
vt 0.155719 0.118576
vt 0.175860 0.112854
vt 0.028559 0.207885
vt 0.196407 0.108776
vt 0.770011 0.586133
vt 0.321268 0.046422
vt 0.393361 0.000088
vt 0.359545 0.118762
vt 0.014481 0.232558
vt 0.217490 0.106264
vt 0.239235 0.105238
vt 0.004939 0.259526
vt 0.261771 0.105619
vt 0.000088 0.288914
vt 0.285234 0.107325
vt 0.309749 0.110281
vt 0.000088 0.320843
vt 0.335446 0.114402
vt 0.201994 0.206411
vt 0.169643 0.223984
vt 0.156783 0.234922
vt 0.004843 0.355468
vt 0.227648 0.195445
vt 0.146388 0.247140
vt 0.240908 0.191184
vt 0.137907 0.260279
vt 0.254915 0.188136
vt 0.400312 0.202647
vt 0.378394 0.197429
vt 0.357652 0.193103
vt 0.338034 0.189709
vt 0.319485 0.187288
vt 0.301954 0.185881
vt 0.285384 0.185525
vt 0.269722 0.186264
vt 0.132138 0.275337
vt 0.129181 0.292422
vt 0.014529 0.392974
vt 0.129136 0.311646
vt 0.132105 0.333117
vt 0.029498 0.433460
vt 0.138186 0.356947
vt 0.147479 0.383247
vt 0.049908 0.477050
vt 0.160084 0.412129
vt 0.682801 0.642183
vt 0.075912 0.523866
vt 0.176101 0.443701
vt 0.195631 0.478076
vt 0.359296 0.999912
vt 0.467817 0.935311
vn 0.000000 1.000000 0.000000
usemtl None.014
s 1
f 1/1/1 2/2/1 3/3/1
f 4/4/1 2/2/1 1/1/1
f 4/4/1 5/5/1 2/2/1
f 6/6/1 5/5/1 4/4/1
f 7/7/1 5/5/1 6/6/1
f 7/7/1 8/8/1 5/5/1
f 9/9/1 8/8/1 7/7/1
f 10/10/1 11/11/1 12/12/1
f 10/10/1 13/13/1 11/11/1
f 9/9/1 14/14/1 8/8/1
f 15/15/1 14/14/1 9/9/1
f 16/16/1 14/14/1 15/15/1
f 16/16/1 17/17/1 14/14/1
f 18/18/1 17/17/1 16/16/1
f 18/18/1 19/19/1 17/17/1
f 20/20/1 19/19/1 18/18/1
f 21/21/1 19/19/1 20/20/1
f 21/21/1 22/22/1 19/19/1
f 23/23/1 22/22/1 21/21/1
f 13/13/1 24/24/1 23/23/1
f 24/24/1 25/25/1 23/23/1
f 25/25/1 22/22/1 23/23/1
f 25/25/1 26/26/1 22/22/1
f 26/26/1 27/27/1 22/22/1
f 13/13/1 28/28/1 24/24/1
f 29/29/1 27/27/1 26/26/1
f 13/13/1 30/30/1 28/28/1
f 31/31/1 27/27/1 29/29/1
f 13/13/1 32/32/1 30/30/1
f 10/10/1 33/33/1 13/13/1
f 33/33/1 34/34/1 13/13/1
f 34/34/1 35/35/1 13/13/1
f 35/35/1 36/36/1 13/13/1
f 36/36/1 37/37/1 13/13/1
f 37/37/1 38/38/1 13/13/1
f 38/38/1 39/39/1 13/13/1
f 39/39/1 40/40/1 13/13/1
f 40/40/1 32/32/1 13/13/1
f 41/41/1 27/27/1 31/31/1
f 42/42/1 27/27/1 41/41/1
f 42/42/1 43/43/1 27/27/1
f 44/44/1 43/43/1 42/42/1
f 45/45/1 43/43/1 44/44/1
f 45/45/1 46/46/1 43/43/1
f 47/47/1 46/46/1 45/45/1
f 48/48/1 46/46/1 47/47/1
f 48/48/1 49/49/1 46/46/1
f 50/50/1 49/49/1 48/48/1
f 10/10/1 51/51/1 33/33/1
f 50/50/1 52/52/1 49/49/1
f 53/53/1 52/52/1 50/50/1
f 54/54/1 52/52/1 53/53/1
f 54/54/1 55/55/1 52/52/1
f 56/56/1 55/55/1 54/54/1
