# Blender v2.76 (sub 0) OBJ File: ''
# www.blender.org
mtllib Q.mtl
o Text.017
v -0.020837 0.000000 -0.468393
v 0.025700 0.000000 -0.470418
v 0.012844 0.000000 -0.470642
v 0.038553 0.000000 -0.469767
v 0.051362 0.000000 -0.468721
v 0.064084 0.000000 -0.467312
v -0.050871 0.000000 -0.461825
v 0.076679 0.000000 -0.465572
v 0.089106 0.000000 -0.463532
v 0.101321 0.000000 -0.461225
v -0.077394 0.000000 -0.451204
v 0.113286 0.000000 -0.458682
v 0.124957 0.000000 -0.455935
v 0.136294 0.000000 -0.453016
v 0.147255 0.000000 -0.449956
v -0.100544 0.000000 -0.436799
v 0.157798 0.000000 -0.446789
v 0.045482 0.000000 -0.410204
v 0.052408 0.000000 -0.408716
v 0.059124 0.000000 -0.406998
v 0.065613 0.000000 -0.405063
v 0.071861 0.000000 -0.402924
v 0.077850 0.000000 -0.400595
v 0.083565 0.000000 -0.398087
v 0.088991 0.000000 -0.395413
v 0.157798 -0.000000 0.155963
v -0.120457 0.000000 -0.418877
v 0.015995 0.000000 -0.413611
v 0.023603 0.000000 -0.413167
v 0.031064 0.000000 -0.412443
v 0.038362 0.000000 -0.411451
v -0.137271 0.000000 -0.397706
v -0.011923 0.000000 -0.412197
v 0.008257 0.000000 -0.413761
v -0.029863 0.000000 -0.407594
v -0.045657 0.000000 -0.400086
v -0.059395 0.000000 -0.389806
v -0.151122 0.000000 -0.373554
v 0.088991 0.000000 -0.115596
v -0.071172 0.000000 -0.376889
v -0.081078 0.000000 -0.361468
v -0.162147 0.000000 -0.346687
v -0.089207 0.000000 -0.343677
v -0.170485 0.000000 -0.317374
v -0.095651 0.000000 -0.323649
v -0.100502 0.000000 -0.301519
v -0.176270 0.000000 -0.285882
v -0.103852 0.000000 -0.277421
v -0.179641 0.000000 -0.252478
v -0.105795 0.000000 -0.251488
v -0.180734 0.000000 -0.217431
v -0.106422 0.000000 -0.223853
v -0.105916 0.000000 -0.198820
v -0.179826 0.000000 -0.184064
v -0.104362 0.000000 -0.175195
v -0.177060 0.000000 -0.152863
v -0.101706 0.000000 -0.153125
v -0.097893 0.000000 -0.132756
v -0.172377 0.000000 -0.123968
v -0.092870 0.000000 -0.114234
v -0.165715 0.000000 -0.097520
v 0.079274 0.000000 -0.105413
v -0.086583 0.000000 -0.097706
v 0.069822 0.000000 -0.095982
v 0.088991 0.000000 -0.051376
v -0.078976 0.000000 -0.083320
v -0.157015 0.000000 -0.073658
v 0.060593 0.000000 -0.087328
v 0.051546 0.000000 -0.079477
v -0.069997 0.000000 -0.071220
v 0.042639 0.000000 -0.072454
v -0.146216 0.000000 -0.052523
v 0.033830 0.000000 -0.066284
v -0.059590 0.000000 -0.061554
v 0.025079 0.000000 -0.060994
v -0.047702 0.000000 -0.054468
v 0.016344 0.000000 -0.056609
v 0.007583 0.000000 -0.053154
v -0.034279 0.000000 -0.050109
v -0.001244 0.000000 -0.050654
v -0.133256 0.000000 -0.034255
v 0.080177 0.000000 -0.042861
v 0.088991 -0.000000 0.155963
v -0.010180 0.000000 -0.049136
v -0.019266 0.000000 -0.048624
v 0.071156 0.000000 -0.034786
v 0.061912 0.000000 -0.027208
v -0.118077 0.000000 -0.018994
v 0.052429 0.000000 -0.020183
v 0.042692 0.000000 -0.013771
v -0.100616 0.000000 -0.006881
v 0.032683 0.000000 -0.008028
v 0.022388 0.000000 -0.003010
v -0.080815 -0.000000 0.001945
v 0.011791 -0.000000 0.001223
v 0.000874 -0.000000 0.004616
v -0.058611 -0.000000 0.007344
v -0.010376 -0.000000 0.007110
v -0.021977 -0.000000 0.008649
v -0.033945 -0.000000 0.009174
vt 0.140350 0.023590
vt 0.103330 0.001808
vt 0.113896 0.000070
vt 0.092868 0.003348
vt 0.082500 0.004972
vt 0.072241 0.006782
vt 0.162335 0.040884
vt 0.062238 0.009294
vt 0.052430 0.012055
vt 0.042825 0.015151
vt 0.180520 0.058613
vt 0.033621 0.018701
vt 0.024688 0.022589
vt 0.016072 0.026810
vt 0.007814 0.031351
vt 0.195488 0.077248
vt 0.000070 0.036267
vt 0.105392 0.082442
vt 0.103154 0.085469
vt 0.101184 0.088787
vt 0.099422 0.092406
vt 0.097885 0.096366
vt 0.096596 0.100709
vt 0.095582 0.105480
vt 0.094869 0.110721
vt 0.000070 0.992843
vt 0.204999 0.083978
vt 0.168988 0.086322
vt 0.163372 0.084220
vt 0.156191 0.082329
vt 0.143261 0.080891
vt 0.233151 0.086268
vt 0.186705 0.094986
vt 0.179928 0.090434
vt 0.194860 0.099350
vt 0.201869 0.105745
vt 0.208408 0.114261
vt 0.264808 0.092210
vt 0.103367 0.548909
vt 0.217632 0.124083
vt 0.227512 0.136872
vt 0.299144 0.106367
vt 0.239992 0.152617
vt 0.333289 0.130641
vt 0.254460 0.172175
vt 0.269761 0.195873
vt 0.366428 0.163423
vt 0.286077 0.223948
vt 0.397020 0.204167
vt 0.302840 0.256441
vt 0.424537 0.251375
vt 0.319575 0.293224
vt 0.333455 0.328135
vt 0.447107 0.299589
vt 0.345099 0.362445
vt 0.464662 0.347177
vt 0.354218 0.395826
vt 0.360466 0.427981
vt 0.477101 0.393694
vt 0.363721 0.458503
vt 0.484370 0.438436
vt 0.121179 0.561551
vt 0.363777 0.486963
vt 0.136446 0.572527
vt 0.113720 0.650081
vt 0.360444 0.513141
vt 0.486227 0.480971
vt 0.151930 0.582212
vt 0.167613 0.590400
vt 0.353548 0.536628
vt 0.183255 0.596930
vt 0.482658 0.520864
vt 0.198711 0.601878
vt 0.342961 0.557104
vt 0.213873 0.605310
vt 0.328586 0.574421
vt 0.228670 0.607248
vt 0.243098 0.607690
vt 0.310294 0.588354
vt 0.257142 0.606611
vt 0.473467 0.557481
vt 0.133494 0.659894
vt 0.113807 0.999930
vt 0.269975 0.604105
vt 0.287969 0.598449
vt 0.152053 0.667680
vt 0.170692 0.674564
vt 0.457911 0.589700
vt 0.189406 0.680449
vt 0.208186 0.685233
vt 0.437060 0.618214
vt 0.227030 0.688819
vt 0.245929 0.691110
vt 0.410748 0.642835
vt 0.264875 0.692003
vt 0.283868 0.691404
vt 0.378798 0.663378
vt 0.302896 0.689211
vt 0.321957 0.685327
vt 0.341044 0.679651
vn 0.000000 1.000000 0.000000
usemtl None.017
s 1
f 1/1/1 2/2/1 3/3/1
f 1/1/1 4/4/1 2/2/1
f 1/1/1 5/5/1 4/4/1
f 1/1/1 6/6/1 5/5/1
f 7/7/1 6/6/1 1/1/1
f 7/7/1 8/8/1 6/6/1
f 7/7/1 9/9/1 8/8/1
f 7/7/1 10/10/1 9/9/1
f 11/11/1 10/10/1 7/7/1
f 11/11/1 12/12/1 10/10/1
f 11/11/1 13/13/1 12/12/1
f 11/11/1 14/14/1 13/13/1
f 11/11/1 15/15/1 14/14/1
f 16/16/1 15/15/1 11/11/1
f 16/16/1 17/17/1 15/15/1
f 16/16/1 18/18/1 17/17/1
f 18/18/1 19/19/1 17/17/1
f 19/19/1 20/20/1 17/17/1
f 20/20/1 21/21/1 17/17/1
f 21/21/1 22/22/1 17/17/1
f 22/22/1 23/23/1 17/17/1
f 23/23/1 24/24/1 17/17/1
f 24/24/1 25/25/1 17/17/1
f 25/25/1 26/26/1 17/17/1
f 27/27/1 28/28/1 16/16/1
f 28/28/1 29/29/1 16/16/1
f 29/29/1 30/30/1 16/16/1
f 30/30/1 31/31/1 16/16/1
f 31/31/1 18/18/1 16/16/1
f 32/32/1 33/33/1 27/27/1
f 33/33/1 34/34/1 27/27/1
f 34/34/1 28/28/1 27/27/1
f 32/32/1 35/35/1 33/33/1
f 32/32/1 36/36/1 35/35/1
f 32/32/1 37/37/1 36/36/1
f 38/38/1 37/37/1 32/32/1
f 39/39/1 26/26/1 25/25/1
f 38/38/1 40/40/1 37/37/1
f 38/38/1 41/41/1 40/40/1
f 42/42/1 41/41/1 38/38/1
f 42/42/1 43/43/1 41/41/1
f 44/44/1 43/43/1 42/42/1
f 44/44/1 45/45/1 43/43/1
f 44/44/1 46/46/1 45/45/1
f 47/47/1 46/46/1 44/44/1
f 47/47/1 48/48/1 46/46/1
f 49/49/1 48/48/1 47/47/1
f 49/49/1 50/50/1 48/48/1
f 51/51/1 50/50/1 49/49/1
f 51/51/1 52/52/1 50/50/1
f 51/51/1 53/53/1 52/52/1
f 54/54/1 53/53/1 51/51/1
f 54/54/1 55/55/1 53/53/1
f 56/56/1 55/55/1 54/54/1
f 56/56/1 57/57/1 55/55/1
f 56/56/1 58/58/1 57/57/1
f 59/59/1 58/58/1 56/56/1
f 59/59/1 60/60/1 58/58/1
f 61/61/1 60/60/1 59/59/1
f 62/62/1 26/26/1 39/39/1
f 61/61/1 63/63/1 60/60/1
f 64/64/1 65/65/1 62/62/1
f 65/65/1 26/26/1 62/62/1
f 61/61/1 66/66/1 63/63/1
f 67/67/1 66/66/1 61/61/1
f 68/68/1 65/65/1 64/64/1
f 69/69/1 65/65/1 68/68/1
f 67/67/1 70/70/1 66/66/1
f 71/71/1 65/65/1 69/69/1
f 72/72/1 70/70/1 67/67/1
f 73/73/1 65/65/1 71/71/1
f 72/72/1 74/74/1 70/70/1
f 75/75/1 65/65/1 73/73/1
f 72/72/1 76/76/1 74/74/1
f 77/77/1 65/65/1 75/75/1
f 78/78/1 65/65/1 77/77/1
f 72/72/1 79/79/1 76/76/1
f 80/80/1 65/65/1 78/78/1
f 81/81/1 79/79/1 72/72/1
f 80/80/1 82/82/1 65/65/1
f 83/83/1 26/26/1 65/65/1
f 84/84/1 82/82/1 80/80/1
f 81/81/1 85/85/1 79/79/1
f 85/85/1 82/82/1 84/84/1
f 81/81/1 82/82/1 85/85/1
f 81/81/1 86/86/1 82/82/1
f 81/81/1 87/87/1 86/86/1
f 88/88/1 87/87/1 81/81/1
f 88/88/1 89/89/1 87/87/1
f 88/88/1 90/90/1 89/89/1
f 91/91/1 90/90/1 88/88/1
f 91/91/1 92/92/1 90/90/1
f 91/91/1 93/93/1 92/92/1
f 94/94/1 93/93/1 91/91/1
f 94/94/1 95/95/1 93/93/1
f 94/94/1 96/96/1 95/95/1
f 97/97/1 96/96/1 94/94/1
f 97/97/1 98/98/1 96/96/1
f 97/97/1 99/99/1 98/98/1
f 100/100/1 99/99/1 97/97/1
