# Blender v2.76 (sub 0) OBJ File: ''
# www.blender.org
mtllib R.mtl
o Text.018
v 0.090774 0.000000 -0.470868
v 0.104432 0.000000 -0.471541
v 0.103211 0.000000 -0.471560
v 0.105793 0.000000 -0.471487
v 0.107282 0.000000 -0.471402
v 0.108885 0.000000 -0.471288
v 0.110591 0.000000 -0.471148
v 0.112385 0.000000 -0.470986
v 0.114256 0.000000 -0.470805
v 0.079099 0.000000 -0.468854
v 0.116191 0.000000 -0.470608
v 0.118177 0.000000 -0.470399
v 0.120200 0.000000 -0.470179
v 0.122250 0.000000 -0.469954
v 0.124312 0.000000 -0.469725
v 0.118807 0.000000 -0.398165
v 0.068105 0.000000 -0.465611
v 0.057713 0.000000 -0.461230
v -0.075688 0.000000 0.000000
v -0.018807 0.000000 -0.462385
v -0.075688 0.000000 -0.462385
v -0.013303 0.000000 -0.396330
v 0.047844 0.000000 -0.455805
v 0.038417 0.000000 -0.449427
v 0.029354 0.000000 -0.442189
v 0.020574 0.000000 -0.434183
v 0.011998 0.000000 -0.425502
v 0.003547 0.000000 -0.416238
v 0.114665 0.000000 -0.398839
v 0.116051 0.000000 -0.398620
v 0.117431 0.000000 -0.398394
v -0.004861 0.000000 -0.406483
v 0.106035 0.000000 -0.399842
v 0.107526 0.000000 -0.399728
v 0.108992 0.000000 -0.399589
v 0.110436 0.000000 -0.399427
v 0.111860 0.000000 -0.399246
v 0.113269 0.000000 -0.399049
v 0.101376 0.000000 -0.400000
v 0.102963 0.000000 -0.399981
v 0.104515 0.000000 -0.399928
v 0.091204 0.000000 -0.399419
v 0.081698 0.000000 -0.398106
v 0.072721 0.000000 -0.396015
v -0.006881 0.000000 -0.334862
v 0.003501 0.000000 -0.345955
v 0.013180 0.000000 -0.355870
v 0.022291 0.000000 -0.364650
v 0.030972 0.000000 -0.372341
v 0.039360 0.000000 -0.378987
v 0.047592 0.000000 -0.384633
v 0.055805 0.000000 -0.389323
v 0.064135 0.000000 -0.393102
v -0.006881 0.000000 0.000000
vt 0.614565 0.237624
vt 0.588505 0.133762
vt 0.592484 0.142626
vt 0.583930 0.123969
vt 0.578726 0.113337
vt 0.572881 0.102004
vt 0.566383 0.090082
vt 0.559223 0.077674
vt 0.551410 0.064908
vt 0.630907 0.328955
vt 0.542226 0.052010
vt 0.532434 0.038956
vt 0.522062 0.025888
vt 0.511128 0.012896
vt 0.499662 0.000080
vt 0.000080 0.257471
vt 0.640949 0.418144
vt 0.640949 0.506451
vt 0.500112 0.999920
vt 0.502288 0.997460
vt 0.502554 0.997761
vt 0.501914 0.997740
vt 0.631826 0.594161
vt 0.614482 0.681580
vt 0.589826 0.768988
vt 0.558767 0.856691
vt 0.522218 0.944974
vt 0.502539 0.995419
vt 0.222482 0.598635
vt 0.166282 0.515833
vt 0.093025 0.404450
vt 0.501963 0.997498
vt 0.490716 0.982672
vt 0.487903 0.978933
vt 0.482851 0.972149
vt 0.471431 0.956478
vt 0.430799 0.897452
vt 0.360779 0.798249
vt 0.500627 0.996024
vt 0.499950 0.995154
vt 0.496275 0.990134
vt 0.501416 0.997133
vt 0.501479 0.997230
vt 0.501510 0.997287
vt 0.501559 0.997993
vt 0.501569 0.997886
vt 0.501576 0.997789
vt 0.501580 0.997700
vt 0.501580 0.997618
vt 0.501576 0.997543
vt 0.501554 0.997408
vt 0.499791 0.999557
vn 0.000000 1.000000 0.000000
usemtl None.018
s 1
f 1/1/1 2/2/1 3/3/1
f 1/1/1 4/4/1 2/2/1
f 1/1/1 5/5/1 4/4/1
f 1/1/1 6/6/1 5/5/1
f 1/1/1 7/7/1 6/6/1
f 1/1/1 8/8/1 7/7/1
f 1/1/1 9/9/1 8/8/1
f 10/10/1 9/9/1 1/1/1
f 10/10/1 11/11/1 9/9/1
f 10/10/1 12/12/1 11/11/1
f 10/10/1 13/13/1 12/12/1
f 10/10/1 14/14/1 13/13/1
f 10/10/1 15/15/1 14/14/1
f 10/10/1 16/16/1 15/15/1
f 17/17/1 16/16/1 10/10/1
f 18/18/1 16/16/1 17/17/1
f 19/19/1 20/20/1 21/21/1
f 19/19/1 22/22/1 20/20/1
f 23/23/1 16/16/1 18/18/1
f 24/24/1 16/16/1 23/23/1
f 25/25/1 16/16/1 24/24/1
f 26/26/1 16/16/1 25/25/1
f 27/27/1 16/16/1 26/26/1
f 28/28/1 29/29/1 27/27/1
f 29/29/1 30/30/1 27/27/1
f 30/30/1 31/31/1 27/27/1
f 31/31/1 16/16/1 27/27/1
f 32/32/1 33/33/1 28/28/1
f 33/33/1 34/34/1 28/28/1
f 34/34/1 35/35/1 28/28/1
f 35/35/1 36/36/1 28/28/1
f 36/36/1 37/37/1 28/28/1
f 37/37/1 38/38/1 28/28/1
f 38/38/1 29/29/1 28/28/1
f 22/22/1 39/39/1 32/32/1
f 39/39/1 40/40/1 32/32/1
f 40/40/1 41/41/1 32/32/1
f 41/41/1 33/33/1 32/32/1
f 22/22/1 42/42/1 39/39/1
f 22/22/1 43/43/1 42/42/1
f 22/22/1 44/44/1 43/43/1
f 19/19/1 45/45/1 22/22/1
f 45/45/1 46/46/1 22/22/1
f 46/46/1 47/47/1 22/22/1
f 47/47/1 48/48/1 22/22/1
f 48/48/1 49/49/1 22/22/1
f 49/49/1 50/50/1 22/22/1
f 50/50/1 51/50/1 22/22/1
f 51/50/1 52/51/1 22/22/1
f 52/51/1 53/44/1 22/22/1
f 53/44/1 44/44/1 22/22/1
f 19/19/1 54/52/1 45/45/1
