# Blender v2.76 (sub 0) OBJ File: ''
# www.blender.org
mtllib V.mtl
o Text.022
v -0.159050 0.000000 -0.427918
v -0.098624 0.000000 -0.462385
v -0.167431 0.000000 -0.462385
v -0.091419 0.000000 -0.432055
v 0.096254 0.000000 -0.431040
v 0.167431 0.000000 -0.462385
v 0.103211 0.000000 -0.462385
v 0.159227 0.000000 -0.427077
v -0.084026 0.000000 -0.401627
v 0.089148 0.000000 -0.399847
v -0.150378 0.000000 -0.393221
v 0.150650 0.000000 -0.391692
v -0.076448 0.000000 -0.371115
v 0.081895 0.000000 -0.368807
v -0.141356 0.000000 -0.358142
v 0.141671 0.000000 -0.356078
v -0.068688 0.000000 -0.340537
v 0.074499 0.000000 -0.337920
v -0.131923 0.000000 -0.322528
v 0.132263 0.000000 -0.320082
v -0.060751 0.000000 -0.309907
v 0.066962 0.000000 -0.307187
v -0.122019 0.000000 -0.286226
v 0.122396 0.000000 -0.283550
v -0.052638 0.000000 -0.279243
v 0.059289 0.000000 -0.276606
v -0.111583 0.000000 -0.249083
v 0.112041 0.000000 -0.246330
v -0.044353 0.000000 -0.248560
v 0.051482 0.000000 -0.246177
v -0.100554 0.000000 -0.210946
v -0.035899 0.000000 -0.217873
v 0.101171 0.000000 -0.208270
v 0.043544 0.000000 -0.215902
v -0.027279 0.000000 -0.187199
v 0.035479 0.000000 -0.185780
v -0.088872 0.000000 -0.171662
v 0.089755 0.000000 -0.169215
v -0.018497 0.000000 -0.156554
v 0.027289 0.000000 -0.155810
v -0.076476 0.000000 -0.131078
v 0.077767 0.000000 -0.129014
v -0.009556 0.000000 -0.125953
v 0.018979 0.000000 -0.125994
v -0.063307 0.000000 -0.089042
v 0.065176 0.000000 -0.087513
v 0.010550 0.000000 -0.096330
v -0.000459 0.000000 -0.095413
v 0.010092 0.000000 -0.094725
v 0.000000 0.000000 -0.093825
v 0.009633 0.000000 -0.093119
v 0.000459 0.000000 -0.092270
v 0.009174 0.000000 -0.091514
v 0.000917 0.000000 -0.090740
v 0.008716 0.000000 -0.089908
v 0.001376 0.000000 -0.089229
v 0.008257 0.000000 -0.088303
v 0.001835 0.000000 -0.087730
v -0.049303 0.000000 -0.045400
v 0.007798 0.000000 -0.086697
v 0.002294 0.000000 -0.086239
v 0.051954 0.000000 -0.044559
v 0.007339 0.000000 -0.085092
v 0.002752 0.000000 -0.084747
v 0.006881 0.000000 -0.083486
v 0.003211 0.000000 -0.083248
v 0.006422 0.000000 -0.081881
v 0.003670 0.000000 -0.081737
v 0.005963 0.000000 -0.080275
v 0.004128 0.000000 -0.080207
v 0.005505 0.000000 -0.078670
v 0.004587 0.000000 -0.078652
v 0.005046 0.000000 -0.077064
v -0.034404 0.000000 0.000000
v 0.038073 0.000000 0.000000
vt 0.706014 0.074614
vt 0.575352 0.000087
vt 0.724135 0.000085
vt 0.559773 0.065670
vt 0.153991 0.067867
vt 0.000085 0.000085
vt 0.138949 0.000089
vt 0.017823 0.076433
vt 0.543788 0.131466
vt 0.169354 0.135316
vt 0.687263 0.149641
vt 0.036367 0.152947
vt 0.527402 0.197443
vt 0.185036 0.202435
vt 0.667755 0.225493
vt 0.055781 0.229956
vt 0.510623 0.263562
vt 0.201027 0.269223
vt 0.647358 0.302502
vt 0.076122 0.307791
vt 0.493461 0.329795
vt 0.217323 0.335678
vt 0.625943 0.381000
vt 0.097455 0.386786
vt 0.475919 0.396101
vt 0.233912 0.401804
vt 0.603378 0.461315
vt 0.119844 0.467268
vt 0.458005 0.462447
vt 0.250792 0.467602
vt 0.579531 0.543780
vt 0.439725 0.528803
vt 0.143347 0.549566
vt 0.267955 0.533066
vt 0.421087 0.595130
vt 0.285392 0.598200
vt 0.554271 0.628725
vt 0.168030 0.634016
vt 0.402098 0.661395
vt 0.303100 0.663005
vt 0.527468 0.716481
vt 0.193949 0.720944
vt 0.382765 0.727565
vt 0.321067 0.727477
vt 0.498993 0.807377
vt 0.221173 0.810683
vt 0.339292 0.791620
vt 0.363095 0.793602
vt 0.340282 0.795091
vt 0.362102 0.797036
vt 0.341274 0.798563
vt 0.361110 0.800399
vt 0.342267 0.802033
vt 0.360120 0.803707
vt 0.343257 0.805506
vt 0.359127 0.806973
vt 0.344250 0.808976
vt 0.358135 0.810215
vt 0.468712 0.901745
vt 0.345242 0.812449
vt 0.357142 0.813439
vt 0.249761 0.903563
vt 0.346234 0.815920
vt 0.356152 0.816666
vt 0.347225 0.819392
vt 0.355160 0.819906
vt 0.348217 0.822862
vt 0.354167 0.823173
vt 0.349209 0.826335
vt 0.353177 0.826481
vt 0.350200 0.829804
vt 0.352185 0.829843
vt 0.351192 0.833277
vt 0.436495 0.999915
vt 0.279776 0.999914
vn -0.000000 1.000000 0.000000
usemtl None.022
s 1
f 1/1/1 2/2/1 3/3/1
f 1/1/1 4/4/1 2/2/1
f 5/5/1 6/6/1 7/7/1
f 5/5/1 8/8/1 6/6/1
f 1/1/1 9/9/1 4/4/1
f 10/10/1 8/8/1 5/5/1
f 11/11/1 9/9/1 1/1/1
f 10/10/1 12/12/1 8/8/1
f 11/11/1 13/13/1 9/9/1
f 14/14/1 12/12/1 10/10/1
f 15/15/1 13/13/1 11/11/1
f 14/14/1 16/16/1 12/12/1
f 15/15/1 17/17/1 13/13/1
f 18/18/1 16/16/1 14/14/1
f 19/19/1 17/17/1 15/15/1
f 18/18/1 20/20/1 16/16/1
f 19/19/1 21/21/1 17/17/1
f 22/22/1 20/20/1 18/18/1
f 23/23/1 21/21/1 19/19/1
f 22/22/1 24/24/1 20/20/1
f 23/23/1 25/25/1 21/21/1
f 26/26/1 24/24/1 22/22/1
f 27/27/1 25/25/1 23/23/1
f 26/26/1 28/28/1 24/24/1
f 27/27/1 29/29/1 25/25/1
f 30/30/1 28/28/1 26/26/1
f 31/31/1 29/29/1 27/27/1
f 31/31/1 32/32/1 29/29/1
f 30/30/1 33/33/1 28/28/1
f 34/34/1 33/33/1 30/30/1
f 31/31/1 35/35/1 32/32/1
f 36/36/1 33/33/1 34/34/1
f 37/37/1 35/35/1 31/31/1
f 36/36/1 38/38/1 33/33/1
f 37/37/1 39/39/1 35/35/1
f 40/40/1 38/38/1 36/36/1
f 41/41/1 39/39/1 37/37/1
f 40/40/1 42/42/1 38/38/1
f 41/41/1 43/43/1 39/39/1
f 44/44/1 42/42/1 40/40/1
f 45/45/1 43/43/1 41/41/1
f 44/44/1 46/46/1 42/42/1
f 47/47/1 46/46/1 44/44/1
f 45/45/1 48/48/1 43/43/1
f 49/49/1 46/46/1 47/47/1
f 45/45/1 50/50/1 48/48/1
f 51/51/1 46/46/1 49/49/1
f 45/45/1 52/52/1 50/50/1
f 53/53/1 46/46/1 51/51/1
f 45/45/1 54/54/1 52/52/1
f 55/55/1 46/46/1 53/53/1
f 45/45/1 56/56/1 54/54/1
f 57/57/1 46/46/1 55/55/1
f 45/45/1 58/58/1 56/56/1
f 59/59/1 58/58/1 45/45/1
f 60/60/1 46/46/1 57/57/1
f 59/59/1 61/61/1 58/58/1
f 60/60/1 62/62/1 46/46/1
f 63/63/1 62/62/1 60/60/1
f 59/59/1 64/64/1 61/61/1
f 65/65/1 62/62/1 63/63/1
f 59/59/1 66/66/1 64/64/1
f 67/67/1 62/62/1 65/65/1
f 59/59/1 68/68/1 66/66/1
f 69/69/1 62/62/1 67/67/1
f 59/59/1 70/70/1 68/68/1
f 71/71/1 62/62/1 69/69/1
f 59/59/1 72/72/1 70/70/1
f 73/73/1 62/62/1 71/71/1
f 59/59/1 73/73/1 72/72/1
f 59/59/1 62/62/1 73/73/1
f 74/74/1 62/62/1 59/59/1
f 74/74/1 75/75/1 62/62/1
