# Blender v2.76 (sub 0) OBJ File: ''
# www.blender.org
mtllib W.mtl
o Text
v -0.251121 0.000000 -0.424256
v -0.189450 0.000000 -0.462385
v -0.259174 0.000000 -0.462385
v -0.184290 0.000000 -0.432148
v -0.106881 0.000000 -0.103670
v -0.002294 0.000000 -0.366055
v -0.034404 0.000000 -0.462385
v 0.038991 0.000000 -0.462385
v -0.001376 0.000000 -0.366055
v 0.116972 0.000000 -0.102752
v 0.192332 0.000000 -0.432778
v 0.259174 0.000000 -0.462385
v 0.196789 0.000000 -0.462385
v 0.252141 0.000000 -0.424046
v 0.187661 0.000000 -0.403126
v -0.178908 0.000000 -0.401984
v -0.242992 0.000000 -0.386022
v 0.244801 0.000000 -0.385640
v 0.182755 0.000000 -0.373423
v -0.173308 0.000000 -0.371889
v -0.234748 0.000000 -0.347692
v 0.237156 0.000000 -0.347176
v 0.177591 0.000000 -0.343663
v -0.167499 0.000000 -0.341862
v -0.006881 0.000000 -0.333945
v 0.004128 0.000000 -0.335780
v -0.226351 0.000000 -0.309276
v 0.229205 0.000000 -0.308665
v 0.172146 0.000000 -0.313839
v -0.161486 0.000000 -0.311898
v 0.078440 0.000000 0.000000
v -0.072936 0.000000 0.000000
v 0.166399 0.000000 -0.283945
v -0.155275 0.000000 -0.281995
v -0.217762 0.000000 -0.270784
v 0.220948 0.000000 -0.270115
v 0.160327 0.000000 -0.253974
v -0.148873 0.000000 -0.252150
v -0.208945 0.000000 -0.232225
v 0.212385 0.000000 -0.231537
v 0.153908 0.000000 -0.223921
v -0.142287 0.000000 -0.222358
v -0.199860 0.000000 -0.193608
v 0.203517 0.000000 -0.192939
v 0.147119 0.000000 -0.193779
v -0.135522 0.000000 -0.192618
v 0.139938 0.000000 -0.163541
v -0.190469 0.000000 -0.154944
v 0.194343 0.000000 -0.154332
v -0.128585 0.000000 -0.162925
v 0.132343 0.000000 -0.133201
v -0.121482 0.000000 -0.133277
v -0.180734 0.000000 -0.116241
v 0.184862 0.000000 -0.115725
v -0.114220 0.000000 -0.103670
v 0.124312 0.000000 -0.102752
v -0.170617 0.000000 -0.077510
v 0.175076 0.000000 -0.077128
v -0.110550 0.000000 -0.080734
v 0.120642 0.000000 -0.079817
v -0.160079 0.000000 -0.038760
v 0.164985 0.000000 -0.038550
v -0.149083 0.000000 0.000000
v 0.154587 0.000000 0.000000
vt 0.015335 0.820229
vt 0.134582 0.893301
vt 0.000095 0.893836
vt 0.144303 0.834939
vt 0.291093 0.200760
vt 0.494840 0.706058
vt 0.433644 0.892110
vt 0.575211 0.891547
vt 0.498353 0.705323
vt 0.729367 0.198686
vt 0.871287 0.836033
vt 0.999906 0.893836
vt 0.879576 0.893186
vt 0.986739 0.819813
vt 0.862586 0.778791
vt 0.154452 0.776715
vt 0.030721 0.746419
vt 0.972981 0.745658
vt 0.853433 0.721448
vt 0.165023 0.718624
vt 0.046329 0.672423
vt 0.958636 0.671389
vt 0.843782 0.663993
vt 0.175997 0.660661
vt 0.485746 0.644158
vt 0.509285 0.646981
vt 0.062231 0.598259
vt 0.943701 0.597025
vt 0.833590 0.606411
vt 0.187366 0.602819
vt 0.656115 0.000095
vt 0.355772 0.000535
vt 0.822816 0.548691
vt 0.199116 0.545093
vt 0.078502 0.523948
vt 0.928176 0.522583
vt 0.811417 0.490818
vt 0.211236 0.487477
vt 0.095213 0.449506
vt 0.912061 0.448083
vt 0.799348 0.432785
vt 0.223711 0.429963
vt 0.112440 0.374950
vt 0.895358 0.373542
vt 0.786567 0.374575
vt 0.236531 0.372546
vt 0.773031 0.316177
vt 0.130258 0.300301
vt 0.878065 0.298981
vt 0.249684 0.315220
vt 0.758698 0.257577
vt 0.263157 0.257979
vt 0.148738 0.225574
vt 0.860179 0.224416
vt 0.276937 0.200816
vt 0.743524 0.198763
vt 0.167955 0.150790
vt 0.841706 0.149867
vt 0.283840 0.156547
vt 0.736684 0.154487
vt 0.187984 0.075966
vt 0.822644 0.075352
vt 0.208896 0.001119
vt 0.802989 0.000887
vn -0.000000 1.000000 0.000000
usemtl None
s 1
f 1/1/1 2/2/1 3/3/1
f 1/1/1 4/4/1 2/2/1
f 5/5/1 6/6/1 7/7/1
f 6/6/1 8/8/1 7/7/1
f 6/6/1 9/9/1 8/8/1
f 9/9/1 10/10/1 8/8/1
f 11/11/1 12/12/1 13/13/1
f 11/11/1 14/14/1 12/12/1
f 15/15/1 14/14/1 11/11/1
f 1/1/1 16/16/1 4/4/1
f 17/17/1 16/16/1 1/1/1
f 15/15/1 18/18/1 14/14/1
f 19/19/1 18/18/1 15/15/1
f 17/17/1 20/20/1 16/16/1
f 21/21/1 20/20/1 17/17/1
f 19/19/1 22/22/1 18/18/1
f 23/23/1 22/22/1 19/19/1
f 21/21/1 24/24/1 20/20/1
f 5/5/1 25/25/1 6/6/1
f 26/26/1 10/10/1 9/9/1
f 27/27/1 24/24/1 21/21/1
f 23/23/1 28/28/1 22/22/1
f 29/29/1 28/28/1 23/23/1
f 27/27/1 30/30/1 24/24/1
f 31/31/1 10/10/1 26/26/1
f 5/5/1 32/32/1 25/25/1
f 33/33/1 28/28/1 29/29/1
f 27/27/1 34/34/1 30/30/1
f 35/35/1 34/34/1 27/27/1
f 33/33/1 36/36/1 28/28/1
f 37/37/1 36/36/1 33/33/1
f 35/35/1 38/38/1 34/34/1
f 39/39/1 38/38/1 35/35/1
f 37/37/1 40/40/1 36/36/1
f 41/41/1 40/40/1 37/37/1
f 39/39/1 42/42/1 38/38/1
f 43/43/1 42/42/1 39/39/1
f 41/41/1 44/44/1 40/40/1
f 45/45/1 44/44/1 41/41/1
f 43/43/1 46/46/1 42/42/1
f 47/47/1 44/44/1 45/45/1
f 48/48/1 46/46/1 43/43/1
f 47/47/1 49/49/1 44/44/1
f 48/48/1 50/50/1 46/46/1
f 51/51/1 49/49/1 47/47/1
f 48/48/1 52/52/1 50/50/1
f 53/53/1 52/52/1 48/48/1
f 51/51/1 54/54/1 49/49/1
f 53/53/1 55/55/1 52/52/1
f 56/56/1 54/54/1 51/51/1
f 57/57/1 55/55/1 53/53/1
f 56/56/1 58/58/1 54/54/1
f 57/57/1 59/59/1 55/55/1
f 59/59/1 32/32/1 5/5/1
f 31/31/1 60/60/1 10/10/1
f 60/60/1 58/58/1 56/56/1
f 57/57/1 32/32/1 59/59/1
f 31/31/1 58/58/1 60/60/1
f 61/61/1 32/32/1 57/57/1
f 31/31/1 62/62/1 58/58/1
f 63/63/1 32/32/1 61/61/1
f 31/31/1 64/64/1 62/62/1
