# Blender v2.76 (sub 0) OBJ File: ''
# www.blender.org
mtllib X.mtl
o Text.024
v -0.155963 0.000000 -0.462385
v 0.003670 0.000000 -0.302752
v -0.082569 0.000000 -0.471560
v -0.038532 0.000000 -0.244037
v 0.075135 0.000000 -0.450064
v 0.155963 0.000000 -0.462385
v 0.080734 0.000000 -0.462385
v 0.038532 0.000000 -0.247706
v 0.069355 0.000000 -0.437436
v 0.063403 0.000000 -0.424541
v 0.057288 0.000000 -0.411417
v 0.051021 0.000000 -0.398101
v 0.044610 0.000000 -0.384633
v 0.038065 0.000000 -0.371050
v 0.031397 0.000000 -0.357390
v 0.024613 0.000000 -0.343693
v 0.017724 0.000000 -0.329995
v 0.010740 0.000000 -0.316335
v 0.171560 0.000000 0.000000
v -0.171560 0.000000 0.000000
v -0.003670 0.000000 -0.188073
v -0.011713 0.000000 -0.172792
v 0.097248 -0.000000 0.009174
v -0.019771 0.000000 -0.157259
v -0.027824 0.000000 -0.141528
v -0.035848 0.000000 -0.125654
v -0.043821 0.000000 -0.109691
v -0.051720 0.000000 -0.093693
v -0.059524 0.000000 -0.077714
v -0.067210 0.000000 -0.061808
v -0.074756 0.000000 -0.046029
v -0.082140 0.000000 -0.030432
v -0.089339 0.000000 -0.015071
v -0.096330 0.000000 0.000000
vt 0.722817 0.024625
vt 0.375231 0.349531
vt 0.568874 0.000085
vt 0.459953 0.476204
vt 0.235174 0.034182
vt 0.065805 0.002486
vt 0.224257 0.007833
vt 0.297888 0.463001
vt 0.246449 0.061186
vt 0.258069 0.088768
vt 0.270015 0.116842
vt 0.282268 0.145331
vt 0.294813 0.174151
vt 0.307634 0.203226
vt 0.320709 0.232473
vt 0.334026 0.261806
vt 0.347563 0.291148
vt 0.361304 0.320418
vt 0.000085 0.975312
vt 0.722817 0.999675
vt 0.382547 0.591606
vt 0.398400 0.624360
vt 0.155963 0.999915
vt 0.414271 0.657652
vt 0.430119 0.691366
vt 0.445893 0.725372
vt 0.461554 0.759564
vt 0.477056 0.793823
vt 0.492359 0.828034
vt 0.507418 0.862081
vt 0.522191 0.895852
vt 0.536637 0.929228
vt 0.550709 0.962093
vt 0.564363 0.994333
vn 0.000000 1.000000 0.000000
usemtl None.024
s 1
f 1/1/1 2/2/1 3/3/1
f 4/4/1 2/2/1 1/1/1
f 5/5/1 6/6/1 7/7/1
f 5/5/1 8/8/1 6/6/1
f 9/9/1 8/8/1 5/5/1
f 10/10/1 8/8/1 9/9/1
f 11/11/1 8/8/1 10/10/1
f 12/12/1 8/8/1 11/11/1
f 13/13/1 8/8/1 12/12/1
f 14/14/1 8/8/1 13/13/1
f 15/15/1 8/8/1 14/14/1
f 16/16/1 8/8/1 15/15/1
f 17/17/1 8/8/1 16/16/1
f 18/18/1 8/8/1 17/17/1
f 2/2/1 8/8/1 18/18/1
f 4/4/1 8/8/1 2/2/1
f 4/4/1 19/19/1 8/8/1
f 20/20/1 21/21/1 4/4/1
f 21/21/1 19/19/1 4/4/1
f 20/20/1 22/22/1 21/21/1
f 23/23/1 19/19/1 21/21/1
f 20/20/1 24/24/1 22/22/1
f 20/20/1 25/25/1 24/24/1
f 20/20/1 26/26/1 25/25/1
f 20/20/1 27/27/1 26/26/1
f 20/20/1 28/28/1 27/27/1
f 20/20/1 29/29/1 28/28/1
f 20/20/1 30/30/1 29/29/1
f 20/20/1 31/31/1 30/30/1
f 20/20/1 32/32/1 31/31/1
f 20/20/1 33/33/1 32/32/1
f 20/20/1 34/34/1 33/33/1
