# Blender v2.76 (sub 0) OBJ File: ''
# www.blender.org
mtllib Y.mtl
o Text.025
v -0.146153 0.000000 -0.391011
v -0.094954 0.000000 -0.462385
v -0.163761 0.000000 -0.462385
v -0.087538 0.000000 -0.431825
v 0.091649 0.000000 -0.430792
v 0.163761 0.000000 -0.462385
v 0.098624 0.000000 -0.462385
v 0.155788 0.000000 -0.428418
v -0.079965 0.000000 -0.401164
v 0.084493 0.000000 -0.399316
v 0.147447 0.000000 -0.394317
v -0.072233 0.000000 -0.370413
v 0.077165 0.000000 -0.367962
v 0.138718 0.000000 -0.359948
v -0.129625 0.000000 -0.327859
v -0.064339 0.000000 -0.339585
v 0.069674 0.000000 -0.336731
v 0.129579 0.000000 -0.325178
v -0.056279 0.000000 -0.308694
v 0.062030 0.000000 -0.305628
v -0.114263 0.000000 -0.272319
v 0.120006 0.000000 -0.289873
v -0.048050 0.000000 -0.277752
v 0.054243 0.000000 -0.274656
v 0.109977 0.000000 -0.253899
v -0.039650 0.000000 -0.246772
v 0.046322 0.000000 -0.243817
v -0.100153 0.000000 -0.223785
v 0.099471 0.000000 -0.217122
v -0.031074 0.000000 -0.215766
v 0.038277 0.000000 -0.213116
v -0.087381 0.000000 -0.181648
v 0.088464 0.000000 -0.179409
v -0.022319 0.000000 -0.184748
v 0.030118 0.000000 -0.182554
v -0.013383 0.000000 -0.153729
v 0.021853 0.000000 -0.152136
v -0.076032 0.000000 -0.145298
v 0.076935 0.000000 -0.140625
v -0.004263 0.000000 -0.122723
v 0.013492 0.000000 -0.121865
v -0.066194 0.000000 -0.114128
v 0.064862 0.000000 -0.100637
v 0.005046 0.000000 -0.091743
v -0.057951 0.000000 -0.087530
v 0.052221 0.000000 -0.059311
v -0.051390 0.000000 -0.064894
v -0.046598 0.000000 -0.045613
v 0.038991 0.000000 -0.016514
v -0.043659 0.000000 -0.029077
v -0.042661 0.000000 -0.014679
v 0.030841 -0.000000 0.008137
v -0.043318 -0.000000 0.000446
v -0.045247 -0.000000 0.014653
v 0.022413 -0.000000 0.030390
v -0.048380 -0.000000 0.027982
v -0.052650 -0.000000 0.040469
v 0.013661 -0.000000 0.050444
v -0.057991 -0.000000 0.052153
v 0.004536 -0.000000 0.068502
v -0.064335 -0.000000 0.063073
v -0.071615 -0.000000 0.073267
v -0.005009 -0.000000 0.084762
v -0.079766 -0.000000 0.082773
v -0.088718 -0.000000 0.091628
v -0.015023 -0.000000 0.099427
v -0.098407 -0.000000 0.099873
v -0.025553 -0.000000 0.112696
v -0.108765 -0.000000 0.107543
v -0.119725 -0.000000 0.114679
v -0.036646 -0.000000 0.124771
v -0.087615 -0.000000 0.165138
v -0.048351 -0.000000 0.135851
v -0.060716 -0.000000 0.146139
v -0.073788 -0.000000 0.155834
vt 0.493869 0.113795
vt 0.412292 0.000072
vt 0.521925 0.000072
vt 0.400476 0.048765
vt 0.114971 0.050411
vt 0.000072 0.000072
vt 0.103857 0.000072
vt 0.012776 0.054193
vt 0.388410 0.097618
vt 0.126373 0.100562
vt 0.026066 0.108528
vt 0.376090 0.146615
vt 0.138049 0.150520
vt 0.039974 0.163289
vt 0.467535 0.214417
vt 0.363512 0.195734
vt 0.149985 0.200281
vt 0.054536 0.218689
vt 0.350670 0.244954
vt 0.162164 0.249839
vt 0.443058 0.302911
vt 0.069789 0.274942
vt 0.337559 0.294255
vt 0.174572 0.299188
vt 0.085769 0.332261
vt 0.324175 0.343616
vt 0.187192 0.348325
vt 0.420576 0.380242
vt 0.102508 0.390859
vt 0.310510 0.393019
vt 0.200011 0.397242
vt 0.400226 0.447381
vt 0.120046 0.450948
vt 0.296561 0.442441
vt 0.213011 0.445937
vt 0.282323 0.491865
vt 0.226180 0.494403
vt 0.382144 0.505298
vt 0.138416 0.512744
vt 0.267792 0.541268
vt 0.239502 0.542635
vt 0.366468 0.554963
vt 0.157652 0.576459
vt 0.252959 0.590630
vt 0.353335 0.597342
vt 0.177794 0.642305
vt 0.342881 0.633409
vt 0.335246 0.664130
vt 0.198874 0.710495
vt 0.330563 0.690478
vt 0.328973 0.713419
vt 0.211859 0.749772
vt 0.330019 0.737518
vt 0.333093 0.760154
vt 0.225288 0.785229
vt 0.338085 0.781392
vt 0.344889 0.801288
vt 0.239233 0.817182
vt 0.353399 0.819905
vt 0.253772 0.845954
vt 0.363507 0.837304
vt 0.375106 0.853546
vt 0.268980 0.871862
vt 0.388094 0.868693
vt 0.402357 0.882802
vt 0.284936 0.895228
vt 0.417795 0.895939
vt 0.301714 0.916370
vt 0.434299 0.908160
vt 0.451762 0.919530
vt 0.319389 0.935610
vt 0.400600 0.999928
vt 0.338036 0.953261
vt 0.357740 0.969655
vt 0.378572 0.985106
vn -0.000000 1.000000 0.000000
usemtl None.025
s 1
f 1/1/1 2/2/1 3/3/1
f 1/1/1 4/4/1 2/2/1
f 5/5/1 6/6/1 7/7/1
f 5/5/1 8/8/1 6/6/1
f 1/1/1 9/9/1 4/4/1
f 10/10/1 8/8/1 5/5/1
f 10/10/1 11/11/1 8/8/1
f 1/1/1 12/12/1 9/9/1
f 13/13/1 11/11/1 10/10/1
f 13/13/1 14/14/1 11/11/1
f 15/15/1 12/12/1 1/1/1
f 15/15/1 16/16/1 12/12/1
f 17/17/1 14/14/1 13/13/1
f 17/17/1 18/18/1 14/14/1
f 15/15/1 19/19/1 16/16/1
f 20/20/1 18/18/1 17/17/1
f 21/21/1 19/19/1 15/15/1
f 20/20/1 22/22/1 18/18/1
f 21/21/1 23/23/1 19/19/1
f 24/24/1 22/22/1 20/20/1
f 24/24/1 25/25/1 22/22/1
f 21/21/1 26/26/1 23/23/1
f 27/27/1 25/25/1 24/24/1
f 28/28/1 26/26/1 21/21/1
f 27/27/1 29/29/1 25/25/1
f 28/28/1 30/30/1 26/26/1
f 31/31/1 29/29/1 27/27/1
f 32/32/1 30/30/1 28/28/1
f 31/31/1 33/33/1 29/29/1
f 32/32/1 34/34/1 30/30/1
f 35/35/1 33/33/1 31/31/1
f 32/32/1 36/36/1 34/34/1
f 37/37/1 33/33/1 35/35/1
f 38/38/1 36/36/1 32/32/1
f 37/37/1 39/39/1 33/33/1
f 38/38/1 40/40/1 36/36/1
f 41/41/1 39/39/1 37/37/1
f 42/42/1 40/40/1 38/38/1
f 41/41/1 43/43/1 39/39/1
f 42/42/1 44/44/1 40/40/1
f 44/44/1 43/43/1 41/41/1
f 45/45/1 44/44/1 42/42/1
f 44/44/1 46/46/1 43/43/1
f 45/45/1 46/46/1 44/44/1
f 47/47/1 46/46/1 45/45/1
f 48/48/1 46/46/1 47/47/1
f 48/48/1 49/49/1 46/46/1
f 50/50/1 49/49/1 48/48/1
f 51/51/1 49/49/1 50/50/1
f 51/51/1 52/52/1 49/49/1
f 53/53/1 52/52/1 51/51/1
f 54/54/1 52/52/1 53/53/1
f 54/54/1 55/55/1 52/52/1
f 56/56/1 55/55/1 54/54/1
f 57/57/1 55/55/1 56/56/1
f 57/57/1 58/58/1 55/55/1
f 59/59/1 58/58/1 57/57/1
f 59/59/1 60/60/1 58/58/1
f 61/61/1 60/60/1 59/59/1
f 62/62/1 60/60/1 61/61/1
f 62/62/1 63/63/1 60/60/1
f 64/64/1 63/63/1 62/62/1
f 65/65/1 63/63/1 64/64/1
f 65/65/1 66/66/1 63/63/1
f 67/67/1 66/66/1 65/65/1
f 67/67/1 68/68/1 66/66/1
f 69/69/1 68/68/1 67/67/1
f 70/70/1 68/68/1 69/69/1
f 70/70/1 71/71/1 68/68/1
f 72/72/1 71/71/1 70/70/1
f 72/72/1 73/73/1 71/71/1
f 72/72/1 74/74/1 73/73/1
f 72/72/1 75/75/1 74/74/1
