# Blender v2.76 (sub 0) OBJ File: ''
# www.blender.org
mtllib Z.mtl
o Text.026
v -0.127523 0.000000 -0.406422
v 0.127523 0.000000 -0.462385
v -0.123853 0.000000 -0.462385
v 0.127523 0.000000 -0.413761
v 0.049541 0.000000 -0.406422
v -0.066055 0.000000 -0.055963
v -0.139450 0.000000 -0.055963
v -0.139450 0.000000 0.000000
v 0.139450 0.000000 -0.055963
v 0.135780 0.000000 0.000000
vt 0.121095 0.025844
vt 0.000078 0.577367
vt 0.000078 0.033781
vt 0.105225 0.577367
vt 0.121095 0.408743
vt 0.878910 0.158784
vt 0.878911 0.000078
vt 0.999922 0.000078
vt 0.878910 0.603158
vt 0.999922 0.595222
vn -0.000000 1.000000 0.000000
usemtl None.026
s 1
f 1/1/1 2/2/1 3/3/1
f 1/1/1 4/4/1 2/2/1
f 1/1/1 5/5/1 4/4/1
f 5/5/1 6/6/1 4/4/1
f 7/7/1 6/6/1 5/5/1
f 8/8/1 6/6/1 7/7/1
f 8/8/1 9/9/1 6/6/1
f 8/8/1 10/10/1 9/9/1
